<svg width="168" height="54" viewBox="0 0 168 54" fill="none" xmlns="http://www.w3.org/2000/svg">
<g id="app-store" clip-path="url(#clip0_145_5)">
<path id="Vector" d="M152 0H16C7.16344 0 0 7.16344 0 16V38C0 46.8366 7.16344 54 16 54H152C160.837 54 168 46.8366 168 38V16C168 7.16344 160.837 0 152 0Z" fill="#FBF8FC"/>
<path id="Vector_2" d="M64.8999 22.9999V16.4399H66.5399C67.5532 16.4399 68.3232 16.7199 68.8499 17.2799C69.3766 17.8399 69.6399 18.6432 69.6399 19.6899C69.6399 20.2099 69.5732 20.6766 69.4399 21.0899C69.3066 21.4966 69.1099 21.8432 68.8499 22.1299C68.5899 22.4099 68.2699 22.6266 67.8899 22.7799C67.5099 22.9266 67.0732 22.9999 66.5799 22.9999H64.8999ZM65.7299 22.3199H66.4799C67.2466 22.3199 67.8199 22.0899 68.1999 21.6299C68.5866 21.1699 68.7799 20.5232 68.7799 19.6899C68.7799 18.8566 68.5866 18.2199 68.1999 17.7799C67.8199 17.3399 67.2466 17.1199 66.4799 17.1199H65.7299V22.3199ZM72.8622 23.1199C72.5622 23.1199 72.2756 23.0632 72.0022 22.9499C71.7356 22.8366 71.4989 22.6732 71.2922 22.4599C71.0856 22.2399 70.9189 21.9732 70.7922 21.6599C70.6722 21.3399 70.6122 20.9799 70.6122 20.5799C70.6122 20.1732 70.6722 19.8132 70.7922 19.4999C70.9189 19.1799 71.0856 18.9099 71.2922 18.6899C71.4989 18.4699 71.7356 18.3032 72.0022 18.1899C72.2756 18.0766 72.5622 18.0199 72.8622 18.0199C73.1622 18.0199 73.4456 18.0766 73.7122 18.1899C73.9856 18.3032 74.2256 18.4699 74.4322 18.6899C74.6389 18.9099 74.8022 19.1799 74.9222 19.4999C75.0489 19.8132 75.1122 20.1732 75.1122 20.5799C75.1122 20.9799 75.0489 21.3399 74.9222 21.6599C74.8022 21.9732 74.6389 22.2399 74.4322 22.4599C74.2256 22.6732 73.9856 22.8366 73.7122 22.9499C73.4456 23.0632 73.1622 23.1199 72.8622 23.1199ZM72.8622 22.4399C73.0689 22.4399 73.2589 22.3966 73.4322 22.3099C73.6056 22.2166 73.7522 22.0899 73.8722 21.9299C73.9989 21.7632 74.0956 21.5666 74.1622 21.3399C74.2289 21.1132 74.2622 20.8599 74.2622 20.5799C74.2622 20.2999 74.2289 20.0466 74.1622 19.8199C74.0956 19.5866 73.9989 19.3866 73.8722 19.2199C73.7522 19.0532 73.6056 18.9266 73.4322 18.8399C73.2589 18.7466 73.0689 18.6999 72.8622 18.6999C72.6556 18.6999 72.4656 18.7466 72.2922 18.8399C72.1189 18.9266 71.9689 19.0532 71.8422 19.2199C71.7222 19.3866 71.6289 19.5866 71.5622 19.8199C71.4956 20.0466 71.4622 20.2999 71.4622 20.5799C71.4622 20.8599 71.4956 21.1132 71.5622 21.3399C71.6289 21.5666 71.7222 21.7632 71.8422 21.9299C71.9689 22.0899 72.1189 22.2166 72.2922 22.3099C72.4656 22.3966 72.6556 22.4399 72.8622 22.4399ZM77.1231 22.9999L75.7731 18.1399H76.6131L77.3331 20.9499C77.3864 21.1832 77.4364 21.4099 77.4831 21.6299C77.5298 21.8499 77.5764 22.0732 77.6231 22.2999H77.6631C77.7164 22.0732 77.7698 21.8499 77.8231 21.6299C77.8764 21.4032 77.9331 21.1766 77.9931 20.9499L78.7431 18.1399H79.5431L80.3031 20.9499C80.3631 21.1832 80.4198 21.4099 80.4731 21.6299C80.5331 21.8499 80.5898 22.0732 80.6431 22.2999H80.6831C80.7364 22.0732 80.7864 21.8499 80.8331 21.6299C80.8798 21.4099 80.9298 21.1832 80.9831 20.9499L81.6931 18.1399H82.4731L81.1731 22.9999H80.1731L79.4731 20.3899C79.4131 20.1566 79.3564 19.9266 79.3031 19.6999C79.2564 19.4732 79.2031 19.2366 79.1431 18.9899H79.1031C79.0498 19.2366 78.9964 19.4766 78.9431 19.7099C78.8898 19.9366 78.8298 20.1666 78.7631 20.3999L78.0831 22.9999H77.1231ZM83.5308 22.9999V18.1399H84.2108L84.2808 18.8399H84.3108C84.5442 18.6066 84.7875 18.4132 85.0408 18.2599C85.3008 18.0999 85.6008 18.0199 85.9408 18.0199C86.4542 18.0199 86.8275 18.1799 87.0608 18.4999C87.3008 18.8199 87.4208 19.2932 87.4208 19.9199V22.9999H86.6008V20.0299C86.6008 19.5699 86.5275 19.2399 86.3808 19.0399C86.2342 18.8332 86.0008 18.7299 85.6808 18.7299C85.4275 18.7299 85.2042 18.7932 85.0108 18.9199C84.8175 19.0466 84.5975 19.2332 84.3508 19.4799V22.9999H83.5308ZM89.8696 23.1199C89.5563 23.1199 89.3329 23.0266 89.1996 22.8399C89.0663 22.6532 88.9996 22.3799 88.9996 22.0199V15.8799H89.8196V22.0799C89.8196 22.2132 89.8429 22.3066 89.8896 22.3599C89.9363 22.4132 89.9896 22.4399 90.0496 22.4399C90.0763 22.4399 90.0996 22.4399 90.1196 22.4399C90.1463 22.4399 90.1829 22.4332 90.2296 22.4199L90.3396 23.0399C90.2863 23.0666 90.2229 23.0866 90.1496 23.0999C90.0763 23.1132 89.9829 23.1199 89.8696 23.1199ZM93.4384 23.1199C93.1384 23.1199 92.8517 23.0632 92.5784 22.9499C92.3117 22.8366 92.0751 22.6732 91.8684 22.4599C91.6617 22.2399 91.4951 21.9732 91.3684 21.6599C91.2484 21.3399 91.1884 20.9799 91.1884 20.5799C91.1884 20.1732 91.2484 19.8132 91.3684 19.4999C91.4951 19.1799 91.6617 18.9099 91.8684 18.6899C92.0751 18.4699 92.3117 18.3032 92.5784 18.1899C92.8517 18.0766 93.1384 18.0199 93.4384 18.0199C93.7384 18.0199 94.0217 18.0766 94.2884 18.1899C94.5617 18.3032 94.8017 18.4699 95.0084 18.6899C95.2151 18.9099 95.3784 19.1799 95.4984 19.4999C95.6251 19.8132 95.6884 20.1732 95.6884 20.5799C95.6884 20.9799 95.6251 21.3399 95.4984 21.6599C95.3784 21.9732 95.2151 22.2399 95.0084 22.4599C94.8017 22.6732 94.5617 22.8366 94.2884 22.9499C94.0217 23.0632 93.7384 23.1199 93.4384 23.1199ZM93.4384 22.4399C93.6451 22.4399 93.8351 22.3966 94.0084 22.3099C94.1817 22.2166 94.3284 22.0899 94.4484 21.9299C94.5751 21.7632 94.6717 21.5666 94.7384 21.3399C94.8051 21.1132 94.8384 20.8599 94.8384 20.5799C94.8384 20.2999 94.8051 20.0466 94.7384 19.8199C94.6717 19.5866 94.5751 19.3866 94.4484 19.2199C94.3284 19.0532 94.1817 18.9266 94.0084 18.8399C93.8351 18.7466 93.6451 18.6999 93.4384 18.6999C93.2317 18.6999 93.0417 18.7466 92.8684 18.8399C92.6951 18.9266 92.5451 19.0532 92.4184 19.2199C92.2984 19.3866 92.2051 19.5866 92.1384 19.8199C92.0717 20.0466 92.0384 20.2999 92.0384 20.5799C92.0384 20.8599 92.0717 21.1132 92.1384 21.3399C92.2051 21.5666 92.2984 21.7632 92.4184 21.9299C92.5451 22.0899 92.6951 22.2166 92.8684 22.3099C93.0417 22.3966 93.2317 22.4399 93.4384 22.4399ZM97.9516 23.1199C97.545 23.1199 97.205 22.9999 96.9316 22.7599C96.665 22.5199 96.5316 22.1799 96.5316 21.7399C96.5316 21.2066 96.7683 20.7999 97.2416 20.5199C97.715 20.2332 98.4716 20.0332 99.5116 19.9199C99.5116 19.7666 99.495 19.6166 99.4616 19.4699C99.435 19.3232 99.385 19.1932 99.3116 19.0799C99.2383 18.9666 99.135 18.8766 99.0016 18.8099C98.875 18.7366 98.7116 18.6999 98.5116 18.6999C98.2316 18.6999 97.9683 18.7532 97.7216 18.8599C97.475 18.9666 97.255 19.0866 97.0616 19.2199L96.7416 18.6499C96.9683 18.5032 97.245 18.3632 97.5716 18.2299C97.8983 18.0899 98.2583 18.0199 98.6516 18.0199C99.245 18.0199 99.675 18.2032 99.9416 18.5699C100.208 18.9299 100.342 19.4132 100.342 20.0199V22.9999H99.6616L99.5916 22.4199H99.5616C99.3283 22.6132 99.0783 22.7799 98.8116 22.9199C98.545 23.0532 98.2583 23.1199 97.9516 23.1199ZM98.1916 22.4599C98.425 22.4599 98.645 22.4066 98.8516 22.2999C99.0583 22.1866 99.2783 22.0232 99.5116 21.8099V20.4599C99.105 20.5132 98.7616 20.5766 98.4816 20.6499C98.2083 20.7232 97.985 20.8099 97.8116 20.9099C97.645 21.0099 97.5216 21.1266 97.4416 21.2599C97.3683 21.3866 97.3316 21.5266 97.3316 21.6799C97.3316 21.9599 97.415 22.1599 97.5816 22.2799C97.7483 22.3999 97.9516 22.4599 98.1916 22.4599ZM103.531 23.1199C102.917 23.1199 102.427 22.8999 102.061 22.4599C101.701 22.0199 101.521 21.3932 101.521 20.5799C101.521 20.1866 101.577 19.8332 101.691 19.5199C101.811 19.1999 101.967 18.9299 102.161 18.7099C102.354 18.4899 102.577 18.3199 102.831 18.1999C103.084 18.0799 103.351 18.0199 103.631 18.0199C103.911 18.0199 104.154 18.0699 104.361 18.1699C104.567 18.2699 104.777 18.4066 104.991 18.5799L104.951 17.7499V15.8799H105.781V22.9999H105.101L105.031 22.4299H105.001C104.807 22.6166 104.584 22.7799 104.331 22.9199C104.084 23.0532 103.817 23.1199 103.531 23.1199ZM103.711 22.4299C103.937 22.4299 104.151 22.3766 104.351 22.2699C104.551 22.1566 104.751 21.9866 104.951 21.7599V19.2199C104.744 19.0332 104.544 18.9032 104.351 18.8299C104.164 18.7499 103.971 18.7099 103.771 18.7099C103.577 18.7099 103.394 18.7566 103.221 18.8499C103.054 18.9366 102.907 19.0632 102.781 19.2299C102.654 19.3899 102.554 19.5832 102.481 19.8099C102.407 20.0366 102.371 20.2899 102.371 20.5699C102.371 21.1566 102.487 21.6132 102.721 21.9399C102.954 22.2666 103.284 22.4299 103.711 22.4299ZM110.47 22.9999L108.72 18.1399H109.57L110.49 20.8999C110.563 21.1399 110.636 21.3799 110.71 21.6199C110.79 21.8599 110.866 22.0966 110.94 22.3299H110.98C111.053 22.0966 111.126 21.8599 111.2 21.6199C111.273 21.3799 111.346 21.1399 111.42 20.8999L112.34 18.1399H113.15L111.43 22.9999H110.47ZM114.088 22.9999V18.1399H114.908V22.9999H114.088ZM114.508 17.1399C114.348 17.1399 114.211 17.0899 114.098 16.9899C113.991 16.8899 113.938 16.7632 113.938 16.6099C113.938 16.4499 113.991 16.3232 114.098 16.2299C114.211 16.1299 114.348 16.0799 114.508 16.0799C114.668 16.0799 114.801 16.1299 114.908 16.2299C115.021 16.3232 115.078 16.4499 115.078 16.6099C115.078 16.7632 115.021 16.8899 114.908 16.9899C114.801 17.0899 114.668 17.1399 114.508 17.1399ZM117.669 23.1199C117.262 23.1199 116.922 22.9999 116.649 22.7599C116.382 22.5199 116.249 22.1799 116.249 21.7399C116.249 21.2066 116.485 20.7999 116.959 20.5199C117.432 20.2332 118.189 20.0332 119.229 19.9199C119.229 19.7666 119.212 19.6166 119.179 19.4699C119.152 19.3232 119.102 19.1932 119.029 19.0799C118.955 18.9666 118.852 18.8766 118.719 18.8099C118.592 18.7366 118.429 18.6999 118.229 18.6999C117.949 18.6999 117.685 18.7532 117.439 18.8599C117.192 18.9666 116.972 19.0866 116.779 19.2199L116.459 18.6499C116.685 18.5032 116.962 18.3632 117.289 18.2299C117.615 18.0899 117.975 18.0199 118.369 18.0199C118.962 18.0199 119.392 18.2032 119.659 18.5699C119.925 18.9299 120.059 19.4132 120.059 20.0199V22.9999H119.379L119.309 22.4199H119.279C119.045 22.6132 118.795 22.7799 118.529 22.9199C118.262 23.0532 117.975 23.1199 117.669 23.1199ZM117.909 22.4599C118.142 22.4599 118.362 22.4066 118.569 22.2999C118.775 22.1866 118.995 22.0232 119.229 21.8099V20.4599C118.822 20.5132 118.479 20.5766 118.199 20.6499C117.925 20.7232 117.702 20.8099 117.529 20.9099C117.362 21.0099 117.239 21.1266 117.159 21.2599C117.085 21.3866 117.049 21.5266 117.049 21.6799C117.049 21.9599 117.132 22.1599 117.299 22.2799C117.465 22.3999 117.669 22.4599 117.909 22.4599Z" fill="#232224"/>
<path id="Vector_3" d="M66.9901 32.7102L66.7821 33.4902H68.5891L68.3941 32.7102C68.2728 32.2855 68.1558 31.8349 68.0431 31.3582C67.9304 30.8815 67.8178 30.4222 67.7051 29.9802H67.6531C67.5491 30.4309 67.4408 30.8945 67.3281 31.3712C67.2241 31.8392 67.1114 32.2855 66.9901 32.7102ZM63.9221 37.0002L66.5741 28.5242H68.8751L71.5271 37.0002H69.4991L68.9791 34.9852H66.3921L65.8721 37.0002H63.9221ZM72.2972 39.3922V30.5522H73.8572L73.9872 31.1892H74.0392C74.2906 30.9639 74.5722 30.7775 74.8842 30.6302C75.2049 30.4742 75.5342 30.3962 75.8722 30.3962C76.2622 30.3962 76.6132 30.4742 76.9252 30.6302C77.2372 30.7862 77.5016 31.0072 77.7182 31.2932C77.9349 31.5792 78.0996 31.9259 78.2122 32.3332C78.3336 32.7319 78.3942 33.1782 78.3942 33.6722C78.3942 34.2269 78.3162 34.7209 78.1602 35.1542C78.0129 35.5789 77.8092 35.9429 77.5492 36.2462C77.2979 36.5409 77.0076 36.7662 76.6782 36.9222C76.3576 37.0782 76.0239 37.1562 75.6772 37.1562C75.3999 37.1562 75.1312 37.0999 74.8712 36.9872C74.6112 36.8659 74.3686 36.6969 74.1432 36.4802L74.2082 37.5072V39.3922H72.2972ZM75.2352 35.5962C75.5646 35.5962 75.8462 35.4489 76.0802 35.1542C76.3142 34.8509 76.4312 34.3655 76.4312 33.6982C76.4312 32.5369 76.0586 31.9562 75.3132 31.9562C74.9406 31.9562 74.5722 32.1512 74.2082 32.5412V35.1802C74.3816 35.3362 74.5549 35.4445 74.7282 35.5052C74.9016 35.5659 75.0706 35.5962 75.2352 35.5962ZM79.7494 39.3922V30.5522H81.3094L81.4394 31.1892H81.4914C81.7427 30.9639 82.0244 30.7775 82.3364 30.6302C82.6571 30.4742 82.9864 30.3962 83.3244 30.3962C83.7144 30.3962 84.0654 30.4742 84.3774 30.6302C84.6894 30.7862 84.9537 31.0072 85.1704 31.2932C85.3871 31.5792 85.5517 31.9259 85.6644 32.3332C85.7857 32.7319 85.8464 33.1782 85.8464 33.6722C85.8464 34.2269 85.7684 34.7209 85.6124 35.1542C85.4651 35.5789 85.2614 35.9429 85.0014 36.2462C84.7501 36.5409 84.4597 36.7662 84.1304 36.9222C83.8097 37.0782 83.4761 37.1562 83.1294 37.1562C82.8521 37.1562 82.5834 37.0999 82.3234 36.9872C82.0634 36.8659 81.8207 36.6969 81.5954 36.4802L81.6604 37.5072V39.3922H79.7494ZM82.6874 35.5962C83.0167 35.5962 83.2984 35.4489 83.5324 35.1542C83.7664 34.8509 83.8834 34.3655 83.8834 33.6982C83.8834 32.5369 83.5107 31.9562 82.7654 31.9562C82.3927 31.9562 82.0244 32.1512 81.6604 32.5412V35.1802C81.8337 35.3362 82.0071 35.4445 82.1804 35.5052C82.3537 35.5659 82.5227 35.5962 82.6874 35.5962ZM92.5471 37.1562C91.9924 37.1562 91.4378 37.0565 90.8831 36.8572C90.3371 36.6492 89.8474 36.3415 89.4141 35.9342L90.5061 34.6212C90.8094 34.8812 91.1431 35.0935 91.5071 35.2582C91.8798 35.4229 92.2438 35.5052 92.5991 35.5052C92.9978 35.5052 93.2924 35.4315 93.4831 35.2842C93.6824 35.1369 93.7821 34.9375 93.7821 34.6862C93.7821 34.5562 93.7518 34.4435 93.6911 34.3482C93.6391 34.2529 93.5568 34.1705 93.4441 34.1012C93.3401 34.0232 93.2101 33.9539 93.0541 33.8932C92.9068 33.8239 92.7421 33.7502 92.5601 33.6722L91.4551 33.2042C91.2384 33.1175 91.0261 33.0049 90.8181 32.8662C90.6188 32.7275 90.4368 32.5672 90.2721 32.3852C90.1161 32.1945 89.9904 31.9779 89.8951 31.7352C89.7998 31.4839 89.7521 31.2022 89.7521 30.8902C89.7521 30.5435 89.8258 30.2185 89.9731 29.9152C90.1204 29.6032 90.3284 29.3345 90.5971 29.1092C90.8658 28.8752 91.1821 28.6932 91.5461 28.5632C91.9188 28.4332 92.3261 28.3682 92.7681 28.3682C93.2621 28.3682 93.7474 28.4635 94.2241 28.6542C94.7094 28.8449 95.1341 29.1222 95.4981 29.4862L94.5231 30.6952C94.2458 30.4785 93.9684 30.3139 93.6911 30.2012C93.4138 30.0799 93.1061 30.0192 92.7681 30.0192C92.4388 30.0192 92.1744 30.0885 91.9751 30.2272C91.7844 30.3572 91.6891 30.5435 91.6891 30.7862C91.6891 30.9162 91.7194 31.0289 91.7801 31.1242C91.8494 31.2109 91.9404 31.2932 92.0531 31.3712C92.1744 31.4405 92.3131 31.5099 92.4691 31.5792C92.6251 31.6399 92.7941 31.7092 92.9761 31.7872L94.0681 32.2292C94.5881 32.4372 94.9954 32.7232 95.2901 33.0872C95.5934 33.4512 95.7451 33.9322 95.7451 34.5302C95.7451 34.8855 95.6714 35.2235 95.5241 35.5442C95.3854 35.8562 95.1774 36.1335 94.9001 36.3762C94.6314 36.6102 94.2978 36.8009 93.8991 36.9482C93.5004 37.0869 93.0498 37.1562 92.5471 37.1562ZM99.1426 37.1562C98.7439 37.1562 98.4016 37.0955 98.1156 36.9742C97.8382 36.8529 97.6086 36.6839 97.4266 36.4672C97.2532 36.2505 97.1232 35.9905 97.0366 35.6872C96.9586 35.3752 96.9196 35.0329 96.9196 34.6602V32.0472H96.0356V30.6302L97.0236 30.5522L97.2446 28.8362H98.8306V30.5522H100.377V32.0472H98.8306V34.6342C98.8306 34.9982 98.9042 35.2625 99.0516 35.4272C99.2076 35.5832 99.4112 35.6612 99.6626 35.6612C99.7666 35.6612 99.8706 35.6482 99.9746 35.6222C100.087 35.5962 100.187 35.5659 100.273 35.5312L100.572 36.9222C100.399 36.9742 100.195 37.0262 99.9616 37.0782C99.7276 37.1302 99.4546 37.1562 99.1426 37.1562ZM104.177 37.1562C103.769 37.1562 103.375 37.0825 102.994 36.9352C102.612 36.7792 102.274 36.5582 101.98 36.2722C101.694 35.9862 101.464 35.6352 101.291 35.2192C101.117 34.7945 101.031 34.3135 101.031 33.7762C101.031 33.2389 101.117 32.7622 101.291 32.3462C101.464 31.9215 101.694 31.5662 101.98 31.2802C102.274 30.9942 102.612 30.7775 102.994 30.6302C103.375 30.4742 103.769 30.3962 104.177 30.3962C104.584 30.3962 104.974 30.4742 105.347 30.6302C105.728 30.7775 106.062 30.9942 106.348 31.2802C106.642 31.5662 106.876 31.9215 107.05 32.3462C107.223 32.7622 107.31 33.2389 107.31 33.7762C107.31 34.3135 107.223 34.7945 107.05 35.2192C106.876 35.6352 106.642 35.9862 106.348 36.2722C106.062 36.5582 105.728 36.7792 105.347 36.9352C104.974 37.0825 104.584 37.1562 104.177 37.1562ZM104.177 35.6092C104.567 35.6092 104.861 35.4445 105.061 35.1152C105.26 34.7859 105.36 34.3395 105.36 33.7762C105.36 33.2129 105.26 32.7665 105.061 32.4372C104.861 32.1079 104.567 31.9432 104.177 31.9432C103.778 31.9432 103.479 32.1079 103.28 32.4372C103.089 32.7665 102.994 33.2129 102.994 33.7762C102.994 34.3395 103.089 34.7859 103.28 35.1152C103.479 35.4445 103.778 35.6092 104.177 35.6092ZM108.618 37.0002V30.5522H110.178L110.308 31.6832H110.36C110.594 31.2412 110.876 30.9162 111.205 30.7082C111.535 30.5002 111.864 30.3962 112.193 30.3962C112.375 30.3962 112.523 30.4092 112.635 30.4352C112.757 30.4525 112.865 30.4829 112.96 30.5262L112.648 32.1772C112.527 32.1425 112.414 32.1165 112.31 32.0992C112.206 32.0819 112.085 32.0732 111.946 32.0732C111.704 32.0732 111.448 32.1599 111.179 32.3332C110.919 32.5065 110.703 32.8142 110.529 33.2562V37.0002H108.618ZM116.557 37.1562C116.098 37.1562 115.669 37.0825 115.27 36.9352C114.872 36.7792 114.525 36.5582 114.23 36.2722C113.936 35.9775 113.706 35.6222 113.541 35.2062C113.377 34.7902 113.294 34.3135 113.294 33.7762C113.294 33.2562 113.381 32.7882 113.554 32.3722C113.728 31.9475 113.953 31.5922 114.23 31.3062C114.516 31.0115 114.841 30.7862 115.205 30.6302C115.569 30.4742 115.946 30.3962 116.336 30.3962C116.796 30.3962 117.194 30.4742 117.532 30.6302C117.879 30.7862 118.165 31.0029 118.39 31.2802C118.624 31.5575 118.798 31.8869 118.91 32.2682C119.023 32.6409 119.079 33.0482 119.079 33.4902C119.079 33.6635 119.071 33.8282 119.053 33.9842C119.036 34.1402 119.019 34.2572 119.001 34.3352H115.14C115.227 34.8032 115.418 35.1499 115.712 35.3752C116.016 35.5919 116.384 35.7002 116.817 35.7002C117.277 35.7002 117.74 35.5572 118.208 35.2712L118.845 36.4282C118.516 36.6535 118.148 36.8312 117.74 36.9612C117.342 37.0912 116.947 37.1562 116.557 37.1562ZM115.127 33.0742H117.454C117.454 32.7102 117.372 32.4155 117.207 32.1902C117.043 31.9649 116.765 31.8522 116.375 31.8522C116.072 31.8522 115.803 31.9519 115.569 32.1512C115.344 32.3505 115.197 32.6582 115.127 33.0742Z" fill="#232224"/>
<path id="Vector_4" d="M37.0097 27.8722C36.8389 24.858 38.9487 21.7812 42.0511 21.7812C42.7655 21.7812 43.0895 21.9505 43.8676 22.1971C44.2842 22.3291 44.9902 22.6959 45.3984 22.6959C45.8066 22.6959 46.2964 22.4257 46.9572 22.1789C47.8946 21.8287 48.449 21.7912 48.9906 21.7812C50.8072 21.7812 52.1408 22.5548 52.9911 23.7562C51.5876 24.6864 50.848 25.8142 50.8071 27.6436C50.8071 29.3066 51.8481 30.9281 53.5217 31.6557C53.1135 33.4019 50.9092 36.9982 49.0927 36.9982C48.4689 36.9618 48.0856 36.8628 47.3578 36.5825C46.8155 36.3404 46.0923 36.1666 45.6229 36.1666C45.133 36.1459 44.584 36.3077 43.8982 36.5825C43.3165 36.8156 42.9699 36.9478 42.1735 36.9982C40.6631 37.0936 37.3123 33.2148 37.0097 27.8722Z" fill="url(#paint0_linear_145_5)"/>
<path id="Vector_5" d="M46.378 18.5383C45.5354 19.4625 45.2146 20.6795 45.2758 21.7813C46.6637 21.6774 47.623 21.0953 48.5007 20.0143C49.3783 18.9333 49.3848 18.1478 49.3783 17C48.3568 17.1693 47.174 17.6652 46.378 18.5383Z" fill="url(#paint1_linear_145_5)"/>
</g>
<defs>
<linearGradient id="paint0_linear_145_5" x1="50.9609" y1="19.7" x2="37.7443" y2="32.2849" gradientUnits="userSpaceOnUse">
<stop stop-color="#A950C4"/>
<stop offset="1" stop-color="#82269E"/>
</linearGradient>
<linearGradient id="paint1_linear_145_5" x1="50.9608" y1="19.7" x2="37.7442" y2="32.2849" gradientUnits="userSpaceOnUse">
<stop stop-color="#A950C4"/>
<stop offset="1" stop-color="#82269E"/>
</linearGradient>
<clipPath id="clip0_145_5">
<rect width="168" height="54" fill="white"/>
</clipPath>
</defs>
</svg>
