<svg width="48" height="48" viewBox="0 0 48 48" fill="none" xmlns="http://www.w3.org/2000/svg">
<g id="appstore">
<path id="Vector" d="M8.0187 25.1119C7.688 19.5356 11.7743 13.8438 17.7831 13.8438C19.1668 13.8438 19.7943 14.1568 21.3014 14.613C22.1083 14.8572 23.4757 15.5359 24.2663 15.5359C25.0569 15.5359 26.0057 15.036 27.2855 14.5794C29.1011 13.9316 30.1749 13.8623 31.2239 13.8438C34.7423 13.8438 37.3253 15.2746 38.9722 17.4972C36.2539 19.2181 34.8213 21.3046 34.7423 24.6889C34.7423 27.7656 36.7584 30.7653 40 32.1113C39.2094 35.3418 34.9399 41.9951 31.4216 41.9951C30.2135 41.9279 29.471 41.7444 28.0614 41.226C27.011 40.778 25.6104 40.4569 24.7012 40.4569C23.7524 40.4184 22.689 40.7176 21.3607 41.226C20.2341 41.6572 19.5628 41.9021 18.0203 41.9951C15.0949 42.1717 8.60485 34.9958 8.0187 25.1119Z" fill="url(#paint0_linear_264_10)"/>
<path id="Vector_2" d="M26.1637 7.84591C24.5319 9.55554 23.9104 11.8071 24.029 13.8454C26.7172 13.6531 28.5752 12.5763 30.2751 10.5764C31.9749 8.57661 31.9874 7.12343 31.9749 5C29.9964 5.31321 27.7055 6.23066 26.1637 7.84591Z" fill="url(#paint1_linear_264_10)"/>
</g>
<defs>
<linearGradient id="paint0_linear_264_10" x1="35.04" y1="9.99335" x2="10.5601" y2="34.3976" gradientUnits="userSpaceOnUse">
<stop stop-color="#A950C4"/>
<stop offset="1" stop-color="#82269E"/>
</linearGradient>
<linearGradient id="paint1_linear_264_10" x1="35.0399" y1="9.995" x2="10.56" y2="34.3992" gradientUnits="userSpaceOnUse">
<stop stop-color="#A950C4"/>
<stop offset="1" stop-color="#82269E"/>
</linearGradient>
</defs>
</svg>
