<svg width="819" height="1143" viewBox="0 0 819 1143" fill="none" xmlns="http://www.w3.org/2000/svg">
<g id="fignu3">
<g id="fignu3_2">
<g id="fignu3-shadow"  filter="url(#filter0_f_145_417)">
<path id="Vector" class="fignu3-shadow" d="M397.5 1064C572.85 1064 715 1050.57 715 1034C715 1017.43 572.85 1004 397.5 1004C222.15 1004 80 1017.43 80 1034C80 1050.57 222.15 1064 397.5 1064Z" fill="#464646" fill-opacity="0.4"/>
</g>
<g id="fignu3-card-verse" class="fignu3-card-verse">
<path id="Rectangle 1018" d="M551.046 351.087L141.13 77.1897C132.707 71.5621 123.537 74.8701 120.646 84.5783L35.2332 371.456C32.3427 381.164 36.8271 393.597 45.2494 399.224L455.166 673.121C463.588 678.749 472.759 675.441 475.65 665.733L561.063 378.855C563.953 369.147 559.469 356.714 551.046 351.087Z" fill="url(#paint0_linear_145_417)"/>
<path id="Rectangle 1019" d="M559.388 384.48L118.972 90.2031L96.4997 165.68L536.916 459.956L559.388 384.48Z" fill="#D6D6D6"/>
<path id="Rectangle 1020" d="M157.596 278.712L124.856 256.836C107.377 245.157 88.3452 252.022 82.3466 272.17C76.348 292.317 85.6546 318.118 103.133 329.797L135.873 351.673C153.352 363.352 172.384 356.487 178.383 336.339C184.382 316.192 175.075 290.391 157.596 278.712Z" fill="url(#paint1_linear_145_417)"/>
<text id="5032 9334 3764 9846" transform="matrix(0.83147 0.55557 -0.285354 0.958422 66.1064 326.715)" fill="#FBF8FC" xml:space="preserve" style="white-space: pre" font-family="Sora" font-size="26.4108" letter-spacing="0em"><tspan x="0" y="25.4797">5032 9334 3764 9846</tspan></text>
<text id="gold" transform="matrix(0.83147 0.55557 -0.285354 0.958422 131.538 205.204)" fill="#F3F0F5" xml:space="preserve" style="white-space: pre" font-family="Sora" font-size="26.4108" font-weight="bold" letter-spacing="0em"><tspan x="0" y="25.4797">gold</tspan></text>
<text id="02/17" transform="matrix(0.83147 0.55557 -0.285354 0.958422 79.5991 384.566)" fill="#FBF8FC" xml:space="preserve" style="white-space: pre" font-family="Sora" font-size="13.2054" letter-spacing="0em"><tspan x="0" y="12.9898">02/17</tspan></text>
<text id="02/20" transform="matrix(0.83147 0.55557 -0.285354 0.958422 141.819 426.141)" fill="#FBF8FC" xml:space="preserve" style="white-space: pre" font-family="Sora" font-size="13.2054" letter-spacing="0em"><tspan x="0" y="12.9898">02/20</tspan></text>
<text id="123" transform="matrix(0.83147 0.55557 -0.285354 0.958422 211.968 473.013)" fill="#FBF8FC" xml:space="preserve" style="white-space: pre" font-family="Sora" font-size="13.2054" letter-spacing="0em"><tspan x="0" y="12.9898">123</tspan></text>
<g id="Group 346">
<text id="cirrus." transform="matrix(0.83147 0.55557 -0.285354 0.958422 418.323 617.549)" fill="#FBF9FC" xml:space="preserve" style="white-space: pre" font-family="Sora" font-size="9.53725" font-weight="bold" letter-spacing="0em"><tspan x="0" y="9.24267">cirrus.</tspan></text>
<path id="Ellipse 7" d="M419.811 617.464C430.255 624.442 441.627 620.34 445.211 608.302C448.795 596.264 443.234 580.848 432.791 573.87C422.347 566.891 410.975 570.993 407.391 583.031C403.807 595.07 409.368 610.486 419.811 617.464Z" fill="#0167B2"/>
<path id="Ellipse 8" d="M442.991 632.952C453.435 639.93 464.807 635.828 468.391 623.79C471.975 611.752 466.415 596.336 455.971 589.358C445.527 582.38 434.155 586.482 430.571 598.52C426.987 610.558 432.548 625.974 442.991 632.952Z" fill="#02A1E2"/>
<path id="Intersect" fill-rule="evenodd" clip-rule="evenodd" d="M432.705 620.514C438.377 619.532 443.131 615.211 445.224 608.179C447.318 601.148 446.288 592.962 442.986 585.983C437.313 586.966 432.56 591.287 430.467 598.318C428.373 605.35 429.403 613.535 432.705 620.514Z" fill="#207CBD"/>
</g>
<g id="member since">
<text id="MEMBER" transform="matrix(0.83147 0.55557 -0.285354 0.958422 54.606 370.256)" fill="#FBF8FC" xml:space="preserve" style="white-space: pre" font-family="Source Sans Pro" font-size="4.40181" letter-spacing="0em"><tspan x="0" y="4.56484">MEMBER </tspan></text>
<text id="SINCE" transform="matrix(0.83147 0.55557 -0.285354 0.958422 52.8936 376.006)" fill="#FBF8FC" xml:space="preserve" style="white-space: pre" font-family="Source Sans Pro" font-size="4.40181" letter-spacing="0em"><tspan x="0" y="4.56484">SINCE</tspan></text>
</g>
<g id="valid thru">
<text id="VALID" transform="matrix(0.83147 0.55557 -0.285354 0.958422 122.925 415.906)" fill="#FBF8FC" xml:space="preserve" style="white-space: pre" font-family="Source Sans Pro" font-size="4.40181" letter-spacing="0em"><tspan x="0" y="4.56484">VALID </tspan></text>
<text id="THRU" transform="matrix(0.83147 0.55557 -0.285354 0.958422 121.213 421.656)" fill="#FBF8FC" xml:space="preserve" style="white-space: pre" font-family="Source Sans Pro" font-size="4.40181" letter-spacing="0em"><tspan x="0" y="4.56484">THRU</tspan></text>
</g>
<g id="security code">
<text id="SECURITY" transform="matrix(0.83147 0.55557 -0.285354 0.958422 185.145 457.479)" fill="#FBF8FC" xml:space="preserve" style="white-space: pre" font-family="Source Sans Pro" font-size="4.40181" letter-spacing="0em"><tspan x="0" y="4.56484">SECURITY </tspan></text>
<text id="CODE" transform="matrix(0.83147 0.55557 -0.285354 0.958422 183.432 463.23)" fill="#FBF8FC" xml:space="preserve" style="white-space: pre" font-family="Source Sans Pro" font-size="4.40181" letter-spacing="0em"><tspan x="0" y="4.56484">CODE</tspan></text>
</g>
<path id="Vector_2" d="M282.942 330.431C282.83 330.804 282.595 331.076 282.288 331.187C281.981 331.298 281.626 331.239 281.303 331.022L273.983 326.131L270.706 327.314L274.055 316.063C274.166 315.691 274.401 315.419 274.708 315.308C275.016 315.197 275.37 315.256 275.694 315.472L284.234 321.179C284.557 321.395 284.823 321.75 284.974 322.167C285.124 322.583 285.146 323.027 285.035 323.4L282.942 330.431Z" stroke="#FBF8FC" stroke-width="0.733634" stroke-linecap="round" stroke-linejoin="round"/>
<g id="Group 347">
<path id="Vector_2_2" d="M267.403 360.513C270.772 362.764 274.44 361.441 275.596 357.558C276.753 353.674 274.959 348.701 271.59 346.45C268.221 344.199 264.553 345.523 263.397 349.406C262.24 353.289 264.034 358.262 267.403 360.513Z" stroke="#FBF8FC" stroke-width="0.733634" stroke-linecap="round" stroke-linejoin="round"/>
<path id="Vector_3" d="M268.349 350.186C268.633 349.812 269.034 349.605 269.481 349.602C269.929 349.598 270.395 349.799 270.796 350.167C271.196 350.536 271.507 351.05 271.672 351.617C271.836 352.184 271.845 352.768 271.696 353.266C271.278 354.672 269.238 354.152 269.238 354.152" stroke="#FBF8FC" stroke-width="0.733634" stroke-linecap="round" stroke-linejoin="round"/>
<path id="Vector_4" d="M268.45 356.998L268.456 357.002" stroke="#FBF8FC" stroke-width="0.733634" stroke-linecap="round" stroke-linejoin="round"/>
</g>
<g id="Est&#195;&#131;&#194;&#161; com d&#195;&#131;&#194;&#186;vidas? Nosso app pode te ajudar.">
<text id="Est&#195;&#161; com d&#195;&#186;vidas?" transform="matrix(0.83147 0.55557 -0.285354 0.958422 294.427 323.786)" fill="#FBF8FC" xml:space="preserve" style="white-space: pre" font-family="Source Sans Pro" font-size="6.60271" letter-spacing="0em"><tspan x="0" y="6.34726">Est&#xe1; com d&#xfa;vidas? </tspan></text>
<text id="Nosso app pode te ajudar." transform="matrix(0.83147 0.55557 -0.285354 0.958422 291.574 333.37)" fill="#FBF8FC" xml:space="preserve" style="white-space: pre" font-family="Source Sans Pro" font-size="6.60271" letter-spacing="0em"><tspan x="0" y="6.34726">Nosso app pode te ajudar.</tspan></text>
</g>
<g id="Fale com a gente: 0800 591 2117">
<text id="Fale com a gente:" transform="matrix(0.83147 0.55557 -0.285354 0.958422 285.634 353.318)" fill="#FBF8FC" xml:space="preserve" style="white-space: pre" font-family="Source Sans Pro" font-size="6.60271" letter-spacing="0em"><tspan x="0" y="6.34726">Fale com a gente: </tspan></text>
<text id="0800 591 2117" transform="matrix(0.83147 0.55557 -0.285354 0.958422 282.781 362.902)" fill="#FBF8FC" xml:space="preserve" style="white-space: pre" font-family="Source Sans Pro" font-size="6.60271" letter-spacing="0em"><tspan x="0" y="6.34726">0800 591 2117</tspan></text>
</g>
<path id="Ellipse 170" d="M137.537 336.123C148.149 343.213 159.705 339.045 163.347 326.813C166.989 314.581 161.338 298.916 150.726 291.825C140.114 284.735 128.559 288.903 124.917 301.135C121.275 313.367 126.925 329.032 137.537 336.123Z" fill="#D9D9D9"/>
<path id="Subtract" fill-rule="evenodd" clip-rule="evenodd" d="M134.078 262.998L124.856 256.836C107.377 245.157 88.345 252.022 82.3464 272.17C76.3478 292.317 85.6544 318.118 103.133 329.797L112.471 336.036C140.484 321.181 146.82 306.267 134.078 262.998Z" fill="url(#paint2_linear_145_417)"/>
</g>
<g id="fignu3-card-front" class="fignu3-card-front">
<path id="Rectangle 1021" d="M618.828 308.911L243.947 629.09C236.244 635.669 233.849 648.256 238.596 657.204L378.889 921.613C383.637 930.561 393.73 932.481 401.432 925.903L776.314 605.724C784.017 599.145 786.412 586.558 781.664 577.611L641.371 313.201C636.624 304.253 626.531 302.333 618.828 308.911Z" fill="url(#paint3_linear_145_417)"/>
<text id="Nasser Y S Ali" transform="matrix(0.760406 -0.649448 0.468701 0.883357 469.922 755.527)" fill="#FBF8FC" xml:space="preserve" style="white-space: pre" font-family="Sora" font-size="17.6072" font-weight="bold" letter-spacing="0em"><tspan x="0" y="16.9864">WARLISON M SILVA</tspan></text>
<path id="Union" fill-rule="evenodd" clip-rule="evenodd" d="M393.175 802.864C393.179 802.872 393.182 802.876 393.182 802.876C393.182 802.876 393.181 802.869 393.179 802.857C393.167 802.806 393.129 802.644 393.122 802.341C393.113 801.947 393.16 801.42 393.324 800.822C393.643 799.656 394.426 798.144 396.241 796.809C403.648 791.361 410.517 793.7 412.685 797.786L426.441 823.712C426.583 823.98 426.595 824.114 426.596 824.147C426.581 824.183 426.517 824.305 426.287 824.502L421.979 828.181C421.748 828.378 421.635 828.407 421.603 828.411C421.579 828.398 421.486 828.333 421.344 828.066L408.646 804.133C407.743 802.432 406.143 801.378 404.468 801.034C402.788 800.689 400.869 801.026 399.292 802.372L394.903 806.121L393.175 802.864ZM426.597 824.142C426.598 824.138 426.599 824.135 426.599 824.135C426.599 824.135 426.599 824.138 426.597 824.142ZM421.594 828.411C421.594 828.411 421.595 828.41 421.599 828.411C421.595 828.411 421.594 828.411 421.594 828.411ZM400.448 804.55L396.058 808.298L411.161 836.763C411.523 837.445 411.825 838.303 411.618 839.28C411.416 840.237 410.814 840.88 410.288 841.33L405.901 845.076C405.411 845.495 404.751 845.902 404.009 845.825C403.228 845.745 402.651 845.164 402.237 844.384L389.395 820.18C388.679 818.831 388.49 816.692 388.762 814.704C389.038 812.688 389.841 810.445 391.459 809.063L393.029 807.722L391.298 804.459C391.044 803.98 390.937 803.296 390.921 802.639C390.905 801.929 390.99 801.075 391.242 800.154C391.754 798.282 392.936 796.204 395.226 794.52C403.375 788.526 411.633 790.67 414.559 796.185L428.315 822.112C428.656 822.754 428.909 823.572 428.748 824.501C428.585 825.444 428.055 826.155 427.442 826.679L423.134 830.358C422.521 830.882 421.802 831.237 421.052 831.074C420.313 830.914 419.811 830.309 419.47 829.666L406.772 805.734C406.235 804.724 405.185 803.957 403.935 803.7C402.691 803.445 401.41 803.728 400.448 804.55ZM392.614 811.24L394.184 809.899L409.287 838.363C409.404 838.583 409.453 838.726 409.473 838.807C409.422 838.879 409.32 838.992 409.133 839.153L404.746 842.899C404.508 843.103 404.396 843.128 404.373 843.131C404.34 843.114 404.248 843.04 404.111 842.784L391.269 818.579C390.927 817.935 390.715 816.529 390.933 814.937C391.147 813.373 391.726 811.999 392.614 811.24ZM404.386 843.137C404.386 843.137 404.383 843.136 404.376 843.133C404.383 843.134 404.386 843.137 404.386 843.137ZM452.222 810.125C452.218 810.116 452.215 810.113 452.215 810.113C452.215 810.113 452.216 810.119 452.218 810.131C452.23 810.182 452.268 810.345 452.275 810.647C452.284 811.041 452.237 811.568 452.073 812.166C451.754 813.333 450.97 814.845 449.156 816.179C441.749 821.627 434.88 819.288 432.712 815.203L418.956 789.276C418.814 789.008 418.802 788.874 418.801 788.842C418.816 788.806 418.88 788.683 419.11 788.487L423.418 784.807C423.649 784.61 423.762 784.581 423.794 784.578C423.817 784.59 423.911 784.655 424.053 784.923L436.751 808.855C437.654 810.557 439.254 811.611 440.928 811.954C442.609 812.3 444.528 811.963 446.104 810.616L450.494 806.867L452.222 810.125ZM418.8 788.846C418.799 788.851 418.798 788.853 418.798 788.853C418.798 788.853 418.798 788.851 418.8 788.846ZM423.803 784.578C423.803 784.578 423.801 784.578 423.797 784.577C423.801 784.577 423.803 784.578 423.803 784.578ZM444.949 808.439L449.339 804.69L434.236 776.226C433.874 775.543 433.572 774.685 433.778 773.708C433.98 772.752 434.582 772.108 435.109 771.658L439.496 767.912C439.986 767.493 440.646 767.087 441.387 767.163C442.168 767.244 442.746 767.825 443.159 768.604L456.002 792.808C456.718 794.158 456.907 796.296 456.635 798.285C456.359 800.3 455.556 802.543 453.938 803.926L452.368 805.266L454.099 808.529C454.353 809.008 454.46 809.693 454.475 810.35C454.492 811.059 454.407 811.914 454.155 812.835C453.643 814.707 452.46 816.784 450.171 818.468C442.022 824.462 433.764 822.318 430.838 816.803L417.081 790.877C416.741 790.234 416.488 789.416 416.649 788.488C416.812 787.544 417.342 786.833 417.955 786.309L422.263 782.63C422.876 782.106 423.595 781.751 424.345 781.914C425.084 782.074 425.586 782.679 425.927 783.322L438.625 807.254C439.161 808.265 440.212 809.031 441.462 809.288C442.706 809.543 443.987 809.261 444.949 808.439ZM452.783 801.748L451.213 803.089L436.11 774.625C435.993 774.405 435.943 774.262 435.924 774.181C435.975 774.11 436.076 773.996 436.264 773.835L440.651 770.089C440.889 769.886 441.001 769.86 441.024 769.857C441.057 769.875 441.149 769.948 441.285 770.205L454.128 794.409C454.47 795.054 454.682 796.459 454.464 798.051C454.25 799.616 453.671 800.99 452.783 801.748ZM441.011 769.852C441.011 769.852 441.014 769.852 441.021 769.855C441.014 769.854 441.011 769.852 441.011 769.852Z" fill="#FBF8FC"/>
<path id="Ellipse 171" d="M600.086 449.461C614.182 437.422 618.566 414.388 609.877 398.014C601.189 381.639 582.719 378.124 568.623 390.163C554.528 402.202 550.144 425.235 558.833 441.61C567.521 457.985 585.991 461.5 600.086 449.461Z" fill="#E71924"/>
<path id="Ellipse 172" d="M631.191 422.895C645.287 410.856 649.671 387.822 640.982 371.447C632.294 355.073 613.824 351.558 599.728 363.596C585.633 375.635 581.249 398.669 589.938 415.044C598.626 431.418 617.096 434.933 631.191 422.895Z" fill="#F99F19"/>
<path id="Intersect_2" fill-rule="evenodd" clip-rule="evenodd" d="M612.32 429.922C615.507 419.323 614.896 407.472 609.816 397.897C604.735 388.323 596.311 383.145 587.372 382.902C584.185 393.501 584.796 405.352 589.876 414.927C594.957 424.502 603.381 429.68 612.32 429.922Z" fill="#F26520"/>
<g id="Group 348">
<path id="Rectangle 344" d="M379.816 660.142L331.962 701.013C330.09 702.612 329.508 705.671 330.662 707.846L350.326 744.907C351.48 747.082 353.933 747.549 355.805 745.95L403.659 705.079C405.532 703.48 406.114 700.42 404.96 698.246L385.295 661.184C384.142 659.01 381.688 658.543 379.816 660.142Z" fill="url(#paint4_linear_145_417)" stroke="#211F21" stroke-width="1.57332"/>
<path id="Vector 9" d="M336.515 718.332L352.865 704.367" stroke="#211F21" stroke-width="1.46727" stroke-linecap="round"/>
<path id="Vector 10" d="M344.134 732.692L360.126 719.034" stroke="#211F21" stroke-width="1.46727" stroke-linecap="round"/>
<path id="Vector 11" d="M382.418 699.996L398.369 686.372" stroke="#211F21" stroke-width="1.46727" stroke-linecap="round"/>
<path id="Vector 12" d="M374.804 686.302L390.995 672.474" stroke="#211F21" stroke-width="1.46727" stroke-linecap="round"/>
<path id="Ellipse 12" d="M360.19 688.685C360.851 688.12 361.056 687.041 360.649 686.273C360.242 685.505 359.376 685.341 358.715 685.905C358.055 686.469 357.849 687.549 358.256 688.317C358.664 689.084 359.53 689.249 360.19 688.685Z" fill="#211F21"/>
<g id="Vector 13">
<path id="Vector_5" d="M429.669 664.301C428.059 653.213 425.826 648.085 417.917 642.152C417.077 641.522 417.015 640.453 417.332 639.958C417.649 639.463 418.348 639.09 419.219 639.692C428.07 645.803 430.634 651.278 432.201 663.612C432.294 664.879 431.609 665.633 430.974 665.669C430.232 665.711 429.805 665.238 429.669 664.301Z" fill="#FBF8FC"/>
<path id="Vector_6" d="M414.098 646.422C413.822 646.994 414.033 648.09 415.005 648.677C421.128 652.87 422.986 656.672 423.977 665.586C424.055 666.503 424.626 667.103 425.236 666.867C425.957 666.588 426.218 665.649 426.14 664.748C425.306 655.088 423.208 650.92 416.185 645.986C415.536 645.53 414.512 645.563 414.098 646.422Z" fill="#FBF8FC"/>
<path id="Vector_7" d="M411.708 652.84C411.233 653.582 411.535 654.442 412.292 655.034C416.232 658.11 417.801 660.381 418.315 666.384C418.366 667.462 418.683 668.382 419.497 668.066C420.312 667.751 420.58 666.922 420.524 666.179C420 658.74 417.858 656.148 413.15 652.281C412.748 651.951 412.183 652.097 411.708 652.84Z" fill="#FBF8FC"/>
<path id="Vector_8" d="M408.504 658.269C408.151 659.243 408.439 660.019 409.533 660.756C411.838 662.335 412.542 663.726 412.852 667.01C412.965 668.479 413.483 669.837 414.403 669.388C415.324 668.938 415.503 668.307 415.261 666.636C414.475 662.365 413.554 660.357 410.591 657.833C409.854 657.151 409.056 657.125 408.504 658.269Z" fill="#FBF8FC"/>
</g>
<path id="Vector 14" d="M369.701 682.582C364.959 677.835 360.521 677.295 355.935 681.212C350.352 685.98 351.395 692.266 352.742 704.135C358.07 708.203 359.788 711.378 360.485 718.728C370.379 727.588 374.973 728.995 379.486 725.052C385.468 719.943 384.046 712.599 382.218 700.166C377.612 696.212 375.839 693.374 374.564 686.575" stroke="#211F21" stroke-width="1.46727" stroke-linecap="round"/>
</g>
</g>
</g>
</g>
<defs>
<filter id="filter0_f_145_417" x="13" y="937" width="769" height="194" filterUnits="userSpaceOnUse" color-interpolation-filters="sRGB">
<feFlood flood-opacity="0" result="BackgroundImageFix"/>
<feBlend mode="normal" in="SourceGraphic" in2="BackgroundImageFix" result="shape"/>
<feGaussianBlur stdDeviation="33.5" result="effect1_foregroundBlur_145_417"/>
</filter>
<linearGradient id="paint0_linear_145_417" x1="485.088" y1="359.138" x2="202.454" y2="535.144" gradientUnits="userSpaceOnUse">
<stop stop-color="#A950C4"/>
<stop offset="1" stop-color="#82269E"/>
</linearGradient>
<linearGradient id="paint1_linear_145_417" x1="122.066" y1="342.645" x2="177.349" y2="302.926" gradientUnits="userSpaceOnUse">
<stop stop-color="#F6F3F7"/>
<stop offset="1" stop-color="#D6D6D6"/>
</linearGradient>
<linearGradient id="paint2_linear_145_417" x1="135.776" y1="268.347" x2="82.841" y2="300.869" gradientUnits="userSpaceOnUse">
<stop stop-color="#F5F5F5"/>
<stop offset="1" stop-color="#D6D6D6"/>
</linearGradient>
<linearGradient id="paint3_linear_145_417" x1="591.605" y1="390.39" x2="658.237" y2="805.879" gradientUnits="userSpaceOnUse">
<stop stop-color="#A950C4"/>
<stop offset="1" stop-color="#82269E"/>
</linearGradient>
<linearGradient id="paint4_linear_145_417" x1="382.276" y1="667.107" x2="348.386" y2="740.519" gradientUnits="userSpaceOnUse">
<stop stop-color="#F4F4F4"/>
<stop offset="1" stop-color="#D6D6D6"/>
</linearGradient>
</defs>
</svg>
