<svg  viewBox="0 0 606 903" fill="none" xmlns="http://www.w3.org/2000/svg">
<g id="fignu2">
<path id="fignu2-line" d="M308 728V901" stroke="url(#paint0_linear_146_369)" stroke-width="3" stroke-linecap="round" stroke-dasharray="1 10"/>
<g id="fignu2-phone">
<g id="Rectangle 4.3" filter="url(#filter0_d_146_369)">
<path id="Vector" d="M470 168.821C470 168.368 470.368 168 470.821 168C472.181 168 473.284 169.103 473.284 170.463V238.608C473.284 239.968 472.181 241.071 470.821 241.071C470.368 241.071 470 240.703 470 240.25V168.821Z" fill="white"/>
</g>
<path id="Rectangle 1005" d="M142 118C142 116.343 143.343 115 145 115H145.105C145.657 115 146.105 115.448 146.105 116V139.452C146.105 140.004 145.657 140.452 145.105 140.452H145C143.343 140.452 142 139.108 142 137.452V118Z" fill="white"/>
<path id="Rectangle 4.1" d="M142 161.463C142 160.103 143.103 159 144.463 159H145.284C145.738 159 146.105 159.368 146.105 159.821V202.514C146.105 202.967 145.738 203.335 145.284 203.335H144.463C143.103 203.335 142 202.232 142 200.872V161.463Z" fill="white"/>
<path id="Rectangle 4.1_2" d="M142 221.463C142 220.103 143.103 219 144.463 219H145.284C145.738 219 146.105 219.368 146.105 219.821V262.514C146.105 262.967 145.738 263.335 145.284 263.335H144.463C143.103 263.335 142 262.232 142 260.872V221.463Z" fill="white"/>
<g id="Rectangle 1006" filter="url(#filter1_dddd_146_369)">
<path id="Vector_2" d="M424 29H192C165.49 29 144 50.4903 144 77V667C144 693.51 165.49 715 192 715H424C450.51 715 472 693.51 472 667V77C472 50.4903 450.51 29 424 29Z" fill="white"/>
</g>
<path id="Rectangle 1007" d="M323 47H291C289.895 47 289 47.8954 289 49C289 50.1046 289.895 51 291 51H323C324.105 51 325 50.1046 325 49C325 47.8954 324.105 47 323 47Z" fill="#C4C4C4"/>
<path id="Ellipse 176" d="M342 53C344.209 53 346 51.2091 346 49C346 46.7909 344.209 45 342 45C339.791 45 338 46.7909 338 49C338 51.2091 339.791 53 342 53Z" fill="#C4C4C4"/>
<path id="Subtract" fill-rule="evenodd" clip-rule="evenodd" d="M222 47C222 46.6643 222.01 46.3309 222.029 46H222C222 42.134 218.866 39 215 39H192C171.013 39 154 56.0132 154 77V668C154 688.987 171.013 706 192 706H424C444.987 706 462 688.987 462 668V77C462 56.0132 444.987 39 424 39H402C398.134 39 395 42.134 395 46H394.971C394.99 46.3309 395 46.6643 395 47C395 56.3888 387.389 64 378 64H239C229.611 64 222 56.3888 222 47Z" fill="url(#paint1_linear_146_369)"/>
</g>
<g id="fignu2-screen1" class="fignu2-screen1">
<path id="Union" fill-rule="evenodd" clip-rule="evenodd" d="M282.29 354.57C282.29 354.58 282.29 354.585 282.291 354.585C282.292 354.586 282.293 354.58 282.297 354.568C282.312 354.516 282.359 354.353 282.509 354.094C282.704 353.756 283.023 353.347 283.492 352.963C284.407 352.212 285.954 351.504 288.414 351.685C298.459 352.422 303.949 359.313 303.949 364.298V395.933C303.949 396.26 303.891 396.381 303.875 396.409C303.842 396.429 303.716 396.486 303.39 396.486H297.283C296.957 396.486 296.831 396.429 296.798 396.409C296.782 396.381 296.724 396.26 296.724 395.933V366.731C296.724 364.655 295.709 362.623 294.253 361.133C292.792 359.638 290.747 358.545 288.512 358.545H282.29V354.57ZM303.882 396.403C303.881 396.404 303.88 396.405 303.879 396.407C303.883 396.404 303.884 396.402 303.884 396.402C303.884 396.402 303.884 396.402 303.882 396.403ZM296.789 396.402C296.789 396.402 296.791 396.403 296.794 396.407C296.79 396.404 296.789 396.402 296.789 396.402ZM288.512 361.202H282.29V395.933C282.29 396.766 282.14 397.703 281.433 398.375C280.741 399.034 279.82 399.142 279.074 399.142H272.856C272.162 399.142 271.307 399.01 270.623 398.414C269.903 397.786 269.64 396.884 269.64 395.933V366.4C269.64 364.753 270.563 362.822 271.858 361.347C273.17 359.853 275.114 358.545 277.408 358.545H279.633V354.564C279.633 353.98 279.883 353.328 280.208 352.765C280.559 352.157 281.085 351.501 281.807 350.908C283.276 349.704 285.504 348.808 288.609 349.036C299.66 349.847 306.606 357.569 306.606 364.298V395.933C306.606 396.717 306.429 397.586 305.791 398.25C305.144 398.925 304.259 399.142 303.39 399.142H297.283C296.414 399.142 295.529 398.925 294.882 398.25C294.244 397.586 294.067 396.717 294.067 395.933V366.731C294.067 365.498 293.44 364.101 292.353 362.99C291.272 361.883 289.876 361.202 288.512 361.202ZM277.408 361.202H279.633V395.933C279.633 396.201 279.608 396.357 279.585 396.44C279.498 396.463 279.34 396.486 279.074 396.486H272.856C272.519 396.486 272.396 396.427 272.372 396.413C272.349 396.374 272.297 396.247 272.297 395.933V366.4C272.297 365.613 272.818 364.281 273.854 363.1C274.873 361.94 276.149 361.202 277.408 361.202ZM272.382 396.427C272.382 396.427 272.379 396.424 272.374 396.416C272.38 396.422 272.383 396.426 272.382 396.427ZM336.13 403.013C336.13 403.003 336.13 402.998 336.129 402.998C336.128 402.997 336.126 403.003 336.123 403.015C336.108 403.067 336.06 403.23 335.911 403.489C335.716 403.827 335.397 404.236 334.928 404.62C334.013 405.371 332.466 406.079 330.005 405.898C319.961 405.161 314.47 398.27 314.47 393.285V361.65C314.47 361.323 314.528 361.202 314.545 361.174C314.577 361.154 314.703 361.097 315.03 361.097H321.136C321.463 361.097 321.589 361.154 321.621 361.174C321.638 361.202 321.695 361.323 321.695 361.65V390.852C321.695 392.928 322.71 394.96 324.166 396.45C325.627 397.945 327.673 399.038 329.908 399.038H336.13V403.013ZM321.629 361.18C321.63 361.181 321.631 361.181 321.631 361.181C321.631 361.181 321.63 361.18 321.629 361.179C321.628 361.179 321.627 361.178 321.625 361.177C321.627 361.178 321.629 361.18 321.629 361.18ZM329.908 396.382H336.13V361.65C336.13 360.817 336.279 359.88 336.987 359.208C337.679 358.549 338.599 358.441 339.345 358.441H345.563C346.258 358.441 347.113 358.573 347.796 359.169C348.516 359.797 348.779 360.699 348.779 361.65V391.183C348.779 392.83 347.857 394.761 346.562 396.236C345.249 397.73 343.305 399.038 341.012 399.038H338.786V403.019C338.786 403.603 338.536 404.255 338.211 404.818C337.86 405.426 337.335 406.082 336.612 406.675C335.144 407.879 332.915 408.775 329.811 408.547C318.759 407.736 311.814 400.014 311.814 393.285V361.65C311.814 360.866 311.99 359.997 312.628 359.333C313.276 358.658 314.16 358.441 315.03 358.441H321.136C322.005 358.441 322.89 358.658 323.538 359.333C324.176 359.997 324.352 360.866 324.352 361.65V390.852C324.352 392.085 324.98 393.482 326.066 394.593C327.148 395.7 328.544 396.382 329.908 396.382ZM341.012 396.382H338.786V361.65C338.786 361.382 338.812 361.226 338.834 361.143C338.921 361.12 339.079 361.097 339.345 361.097H345.563C345.901 361.097 346.023 361.156 346.048 361.17C346.07 361.209 346.122 361.336 346.122 361.65V391.183C346.122 391.97 345.602 393.302 344.565 394.483C343.547 395.643 342.271 396.382 341.012 396.382ZM346.039 361.158C346.038 361.157 346.037 361.156 346.037 361.156C346.037 361.157 346.039 361.161 346.046 361.167C346.043 361.162 346.04 361.159 346.039 361.158Z" fill="#EDEAEF"/>
<path id="Rectangle 426" d="M355.194 694.381H261.467C260.104 694.381 259 695.485 259 696.847C259 698.21 260.104 699.314 261.467 699.314H355.194C356.557 699.314 357.661 698.21 357.661 696.847C357.661 695.485 356.557 694.381 355.194 694.381Z" fill="#EDEAEF"/>
</g>
<g id="fignu2-screen2" class="fignu2-screen2">
<text id="Me ajuda" fill="#FBF9FC" xml:space="preserve" style="white-space: pre" font-family="Source Sans Pro" font-size="8.87422" letter-spacing="0em"><tspan x="216.329" y="356.672">Me ajuda</tspan></text>
<text id="Ativar a fun&#195;&#131;&#194;&#167;&#195;&#131;&#194;&#163;o d&#195;&#131;&#194;&#169;bito" fill="#FBF9FC" xml:space="preserve" style="white-space: pre" font-family="Source Sans Pro" font-size="8.87422" letter-spacing="0em"><tspan x="216.329" y="396.113">Ativar a fun&#xe7;&#xe3;o d&#xe9;bito</tspan></text>
<text id="Perfil" fill="#FBF9FC" xml:space="preserve" style="white-space: pre" font-family="Source Sans Pro" font-size="8.87422" letter-spacing="0em"><tspan x="216.329" y="435.554">Perfil</tspan></text>
<text id="Configurar NuConta" fill="#FBF9FC" xml:space="preserve" style="white-space: pre" font-family="Source Sans Pro" font-size="8.87422" letter-spacing="0em"><tspan x="216.329" y="474.996">Configurar NuConta</tspan></text>
<text id="Configurar cart&#195;&#131;&#194;&#163;o" fill="#FBF9FC" xml:space="preserve" style="white-space: pre" font-family="Source Sans Pro" font-size="8.87422" letter-spacing="0em"><tspan x="216.329" y="514.437">Configurar cart&#xe3;o</tspan></text>
<text id="sair do app" fill="#FBF9FC" xml:space="preserve" style="white-space: pre" font-family="Source Sans Pro" font-size="8.87422" font-weight="bold" letter-spacing="0em"><tspan x="280.421" y="607.124">SAIR DO APP</tspan></text>
<g id="Group 322">
<text id="Banco" fill="#FBF9FC" xml:space="preserve" style="white-space: pre" font-family="Source Sans Pro" font-size="11.8323" letter-spacing="0em"><tspan x="216.581" y="282.422">Banco</tspan></text>
<text id="260 - Nu Pagamentos S.A." fill="#FBF9FC" xml:space="preserve" style="white-space: pre" font-family="Source Sans Pro" font-size="11.8323" font-weight="bold" letter-spacing="0em"><tspan x="252.571" y="282.422">260 - Nu Pagamentos S.A.</tspan></text>
</g>
<g id="Group 323">
<text id="0001" fill="#FBF9FC" xml:space="preserve" style="white-space: pre" font-family="Source Sans Pro" font-size="11.8323" font-weight="bold" letter-spacing="0em"><tspan x="309.058" y="299.184">0001</tspan></text>
<text id="Ag&#195;&#131;&#194;&#170;ncia" fill="#FBF9FC" xml:space="preserve" style="white-space: pre" font-family="Source Sans Pro" font-size="11.8323" letter-spacing="0em"><tspan x="266.658" y="299.184">Ag&#xea;ncia</tspan></text>
</g>
<g id="Group 324">
<text id="77712444-0" fill="#FBF9FC" xml:space="preserve" style="white-space: pre" font-family="Source Sans Pro" font-size="11.8323" font-weight="bold" letter-spacing="0em"><tspan x="285.645" y="315.947">77712444-0</tspan></text>
<text id="Conta" fill="#FBF9FC" xml:space="preserve" style="white-space: pre" font-family="Source Sans Pro" font-size="11.8323" letter-spacing="0em"><tspan x="252.12" y="315.947">Conta</tspan></text>
</g>
<path id="Vector_3" d="M432.515 360.627L438.416 354.71L432.515 348.792" stroke="#FBF9FC" stroke-width="0.986024" stroke-linecap="round" stroke-linejoin="round"/>
<path id="Vector_2_2" d="M432.515 519.413L438.416 513.495L432.515 507.578" stroke="#FBF9FC" stroke-width="0.986024" stroke-linecap="round" stroke-linejoin="round"/>
<path id="Vector_3_2" d="M432.515 479.963L438.416 474.046L432.515 468.128" stroke="#FBF9FC" stroke-width="0.986024" stroke-linecap="round" stroke-linejoin="round"/>
<path id="Vector_4" d="M432.515 439.527L438.416 433.61L432.515 427.692" stroke="#FBF9FC" stroke-width="0.986024" stroke-linecap="round" stroke-linejoin="round"/>
<path id="Vector_5" d="M432.515 400.077L438.416 394.16L432.515 388.242" stroke="#FBF9FC" stroke-width="0.986024" stroke-linecap="round" stroke-linejoin="round"/>
<g id="Group 325">
<path id="Vector_6" d="M198.465 441.499V439.527C198.465 438.481 198.051 437.477 197.313 436.737C196.575 435.998 195.575 435.582 194.532 435.582H186.664C185.621 435.582 184.621 435.998 183.883 436.737C183.145 437.477 182.731 438.481 182.731 439.527V441.499" stroke="#FBF9FC" stroke-width="0.986024" stroke-linecap="round" stroke-linejoin="round"/>
<path id="Vector_7" d="M190.598 431.637C192.77 431.637 194.532 429.871 194.532 427.692C194.532 425.513 192.77 423.747 190.598 423.747C188.425 423.747 186.664 425.513 186.664 427.692C186.664 429.871 188.425 431.637 190.598 431.637Z" stroke="#FBF9FC" stroke-width="0.986024" stroke-linecap="round" stroke-linejoin="round"/>
</g>
<g id="Group 326">
<path id="Vector_8" d="M190.599 461.225V482.922" stroke="#FBF9FC" stroke-width="0.986024" stroke-linecap="round" stroke-linejoin="round"/>
<path id="Vector_9" d="M195.515 465.169H188.14C187.227 465.169 186.352 465.532 185.706 466.18C185.061 466.827 184.698 467.705 184.698 468.62C184.698 469.536 185.061 470.414 185.706 471.061C186.352 471.709 187.227 472.072 188.14 472.072H193.057C193.97 472.072 194.845 472.436 195.491 473.083C196.136 473.731 196.499 474.609 196.499 475.524C196.499 476.44 196.136 477.318 195.491 477.965C194.845 478.612 193.97 478.976 193.057 478.976H184.698" stroke="#FBF9FC" stroke-width="0.986024" stroke-linecap="round" stroke-linejoin="round"/>
</g>
<g id="Group 327">
<path id="Vector_10" d="M199.449 504.619H181.747C180.661 504.619 179.781 505.502 179.781 506.592V518.427C179.781 519.516 180.661 520.399 181.747 520.399H199.449C200.535 520.399 201.415 519.516 201.415 518.427V506.592C201.415 505.502 200.535 504.619 199.449 504.619Z" stroke="#FBF9FC" stroke-width="0.986024" stroke-linecap="round" stroke-linejoin="round"/>
<path id="Vector_11" d="M179.781 510.537H201.415" stroke="#FBF9FC" stroke-width="0.986024" stroke-linecap="round" stroke-linejoin="round"/>
</g>
<g id="Group 328">
<path id="Vector_12" d="M199.449 386.27H181.747C180.661 386.27 179.781 387.153 179.781 388.242V400.077C179.781 401.167 180.661 402.05 181.747 402.05H199.449C200.535 402.05 201.415 401.167 201.415 400.077V388.242C201.415 387.153 200.535 386.27 199.449 386.27Z" stroke="#FBF9FC" stroke-width="0.986024" stroke-linecap="round" stroke-linejoin="round"/>
<path id="Vector_13" d="M179.781 392.187H201.415" stroke="#FBF9FC" stroke-width="0.986024" stroke-linecap="round" stroke-linejoin="round"/>
</g>
<g id="Group 329">
<path id="Vector_14" d="M190.598 362.6C196.029 362.6 200.432 358.184 200.432 352.737C200.432 347.291 196.029 342.875 190.598 342.875C185.167 342.875 180.764 347.291 180.764 352.737C180.764 358.184 185.167 362.6 190.598 362.6Z" stroke="#FBF9FC" stroke-width="0.986024" stroke-linecap="round" stroke-linejoin="round"/>
<path id="Vector_15" d="M187.736 349.779C187.968 349.12 188.424 348.564 189.025 348.21C189.625 347.856 190.331 347.726 191.018 347.844C191.705 347.963 192.328 348.321 192.776 348.855C193.225 349.39 193.471 350.066 193.47 350.765C193.47 352.737 190.519 353.724 190.519 353.724" stroke="#FBF9FC" stroke-width="0.986024" stroke-linecap="round" stroke-linejoin="round"/>
<path id="Vector_16" d="M190.598 357.669H190.608" stroke="#FBF9FC" stroke-width="0.986024" stroke-linecap="round" stroke-linejoin="round"/>
</g>
<path id="Vector 34" d="M169.986 334.919H440.157" stroke="#BB71D2" stroke-width="0.807701"/>
<path id="Vector 35" d="M169.986 532.124H441.143" stroke="#BB71D2" stroke-width="0.807701"/>
<text id="Configurar App" fill="#FBF9FC" xml:space="preserve" style="white-space: pre" font-family="Source Sans Pro" font-size="8.87422" letter-spacing="0em"><tspan x="216.329" y="553.877">Configurar App</tspan></text>
<path id="Vector_17" d="M432.515 558.863L438.416 552.945L432.515 547.028" stroke="#FBF9FC" stroke-width="0.986024" stroke-linecap="round" stroke-linejoin="round"/>
<path id="Vector 36" d="M169.986 571.565H441.143" stroke="#BB71D2" stroke-width="0.807701"/>
<path id="Vector 37" d="M169.986 492.683H441.143" stroke="#BB71D2" stroke-width="0.807701"/>
<path id="Vector 38" d="M169.986 453.242H441.143" stroke="#BB71D2" stroke-width="0.807701"/>
<path id="Vector 39" d="M169.986 413.801H441.143" stroke="#BB71D2" stroke-width="0.807701"/>
<path id="Vector 40" d="M169 374.36H440.157" stroke="#BB71D2" stroke-width="0.807701"/>
<path id="Rectangle 351" d="M437.199 585.773H171.958C170.548 585.773 169.404 586.916 169.404 588.327V621.852C169.404 623.263 170.548 624.406 171.958 624.406H437.199C438.609 624.406 439.753 623.263 439.753 621.852V588.327C439.753 586.916 438.609 585.773 437.199 585.773Z" stroke="#BB71D2" stroke-width="0.807701"/>
<path id="Vector_18" d="M312.697 143.653L306.797 137.736L300.896 143.653" stroke="#FBF9FC" stroke-width="0.986024" stroke-linecap="round" stroke-linejoin="round"/>
<g id="Group 330">
<path id="Rectangle 396" d="M352.704 164.337H261.004V256.037H352.704V164.337Z" fill="white"/>
<path id="Union_2" fill-rule="evenodd" clip-rule="evenodd" d="M317.963 170.898H345.995V176.713H317.963V170.898ZM307.078 182.081V176.713H312.446V170.898H301.263V176.265V176.713V182.081V187.896H306.631V193.562H300.965V204.745H306.78V199.079H312.446V187.896V182.081H307.078ZM334.961 182.23H329.146V188.045H334.961V182.23ZM267.565 204.447H273.38V210.262H267.565V204.447ZM273.38 210.262H278.748V204.745H289.931V210.113H306.78V204.447H312.595V210.262H306.78V215.928V221.445H300.965V215.928H284.414V210.56H279.196V216.077H273.38V210.262ZM329.146 210.56V216.077H323.331V210.56H317.963V204.745H329.146V210.56ZM340.329 221.445V226.812H346.144V232.628H340.329V227.26H334.961V232.329H340.329V238.144H334.514H329.146V227.26H317.963V221.445H334.514V210.262H340.329V215.928V221.445ZM340.329 215.928V204.745H346.144V215.928H340.329ZM329.146 238.144V243.661V249.476H306.78V243.661H323.331V238.294H317.963V232.478H323.778V238.144H329.146ZM346.144 243.96V238.144H340.329V243.96H346.144ZM334.514 243.81H340.329V249.626H334.514V243.81ZM312.595 226.812H317.963V232.628H312.595V238.443H306.78V232.628H312.148V227.26H306.78V221.445H312.148V215.629H317.963V221.445H312.595V226.812ZM306.78 237.995V243.661H300.965V237.995V237.846V226.812H306.78V237.846V237.995ZM278.748 232.478H284.563V238.294H278.748V232.478ZM284.563 182.23H278.748V188.045H284.563V182.23ZM289.782 193.562H273.38V176.713H289.782V193.562ZM267.565 193.562V199.377H295.597V194.009V176.713H295.598V170.898H267.566V176.713H267.565V193.562ZM267.565 221.445H295.597V227.26V243.512H289.782V227.26H273.38V243.512H267.565V227.26V221.445ZM295.597 243.512H267.565V249.327H295.597V243.512ZM340.18 193.562H323.778V176.713H317.963V193.562V199.377H345.995V193.562V176.713H340.18V193.562Z" fill="#82269E"/>
</g>
<path id="Rectangle 352" d="M430.07 641H179.93C177.207 641 175 643.207 175 645.93V702.07C175 704.793 177.207 707 179.93 707H430.07C432.793 707 435 704.793 435 702.07V645.93C435 643.207 432.793 641 430.07 641Z" fill="#FBF9FC"/>
<text id="NuConta" fill="#3C3B3D" xml:space="preserve" style="white-space: pre" font-family="Source Sans Pro" font-size="11.8323" letter-spacing="0em"><tspan x="227.889" y="668.178">NuConta</tspan></text>
<g id="Group 331">
<path id="Vector_19" d="M394.162 667.35C394.162 667.35 398.096 659.46 404.98 659.46C411.864 659.46 415.797 667.35 415.797 667.35C415.797 667.35 411.864 675.24 404.98 675.24C398.096 675.24 394.162 667.35 394.162 667.35Z" stroke="#3C3B3D" stroke-width="0.986024" stroke-linecap="round" stroke-linejoin="round"/>
<path id="Vector_20" d="M404.98 670.308C406.609 670.308 407.93 668.984 407.93 667.35C407.93 665.716 406.609 664.391 404.98 664.391C403.35 664.391 402.029 665.716 402.029 667.35C402.029 668.984 403.35 670.308 404.98 670.308Z" stroke="#3C3B3D" stroke-width="0.986024" stroke-linecap="round" stroke-linejoin="round"/>
</g>
<path id="Vector_21" d="M197.482 674.253C202.913 674.253 207.316 669.838 207.316 664.391C207.316 658.944 202.913 654.528 197.482 654.528C192.051 654.528 187.648 658.944 187.648 664.391C187.648 669.838 192.051 674.253 197.482 674.253Z" stroke="#3C3B3D" stroke-width="0.986024" stroke-linecap="round" stroke-linejoin="round"/>
<g id="Group 332">
<path id="Vector_22" d="M197.482 658.473V669.322" stroke="#3C3B3D" stroke-width="0.986024" stroke-linecap="round" stroke-linejoin="round"/>
<path id="Vector_23" d="M199.94 660.446H196.253C195.796 660.446 195.359 660.628 195.036 660.951C194.713 661.275 194.532 661.714 194.532 662.172C194.532 662.63 194.713 663.069 195.036 663.392C195.359 663.716 195.796 663.898 196.253 663.898H198.711C199.168 663.898 199.605 664.08 199.928 664.403C200.251 664.727 200.432 665.166 200.432 665.624C200.432 666.081 200.251 666.52 199.928 666.844C199.605 667.168 199.168 667.35 198.711 667.35H194.532" stroke="#3C3B3D" stroke-width="0.986024" stroke-linecap="round" stroke-linejoin="round"/>
</g>
<g id="Group 333">
<path id="Vector_24" d="M195.515 542.097H185.681C184.595 542.097 183.714 542.98 183.714 544.069V559.849C183.714 560.938 184.595 561.821 185.681 561.821H195.515C196.601 561.821 197.482 560.938 197.482 559.849V544.069C197.482 542.98 196.601 542.097 195.515 542.097Z" stroke="#FBF9FC" stroke-width="0.986024" stroke-linecap="round" stroke-linejoin="round"/>
<path id="Vector_25" d="M190.598 557.875H190.608" stroke="#FBF9FC" stroke-width="0.986024" stroke-linecap="round" stroke-linejoin="round"/>
</g>
<g id="Group 334">
<g id="Group 32">
<path id="Rectangle 421" d="M400.329 57.0723H399.73C399.186 57.0723 398.744 57.5137 398.744 58.0583V59.3919C398.744 59.9365 399.186 60.3779 399.73 60.3779H400.329C400.874 60.3779 401.315 59.9365 401.315 59.3919V58.0583C401.315 57.5137 400.874 57.0723 400.329 57.0723Z" fill="white"/>
<path id="Rectangle 422" d="M404.002 55.603H403.403C402.859 55.603 402.417 56.0445 402.417 56.5891V59.3919C402.417 59.9364 402.859 60.3779 403.403 60.3779H404.002C404.547 60.3779 404.988 59.9364 404.988 59.3919V56.5891C404.988 56.0445 404.547 55.603 404.002 55.603Z" fill="white"/>
<path id="Rectangle 423" d="M407.675 53.7666H407.076C406.532 53.7666 406.09 54.2081 406.09 54.7526V59.3919C406.09 59.9365 406.532 60.378 407.076 60.378H407.675C408.22 60.378 408.661 59.9365 408.661 59.3919V54.7526C408.661 54.2081 408.22 53.7666 407.675 53.7666Z" fill="white"/>
<path id="Rectangle 424" d="M411.348 51.9302H410.749C410.205 51.9302 409.763 52.3716 409.763 52.9162V59.392C409.763 59.9365 410.205 60.378 410.749 60.378H411.348C411.893 60.378 412.334 59.9365 412.334 59.392V52.9162C412.334 52.3716 411.893 51.9302 411.348 51.9302Z" fill="white"/>
</g>
<g id="Group 34">
<path id="Vector 36_2" d="M448.045 58.2796V55.4399C448.834 55.9132 448.992 56.3865 448.992 56.8597C448.992 57.333 448.834 57.8063 448.045 58.2796Z" fill="white" fill-opacity="0.5"/>
<path id="Rectangle 413" d="M445.521 53.2314H434.162C433.29 53.2314 432.584 53.9378 432.584 54.8091V58.9109C432.584 59.7823 433.29 60.4886 434.162 60.4886H445.521C446.392 60.4886 447.098 59.7823 447.098 58.9109V54.8091C447.098 53.9378 446.392 53.2314 445.521 53.2314Z" stroke="white" stroke-opacity="0.5" stroke-width="0.631056"/>
<path id="Rectangle 414" d="M445.206 54.1777H434.478C433.955 54.1777 433.531 54.6015 433.531 55.1243V58.5951C433.531 59.1179 433.955 59.5417 434.478 59.5417H445.206C445.728 59.5417 446.152 59.1179 446.152 58.5951V55.1243C446.152 54.6015 445.728 54.1777 445.206 54.1777Z" fill="#FBF9FC"/>
</g>
<g id="Group 33">
<path id="Subtract_2" fill-rule="evenodd" clip-rule="evenodd" d="M426.407 55.6135L427.591 54.43C426.236 52.8969 424.255 51.9302 422.048 51.9302C419.834 51.9302 417.848 52.9028 416.492 54.444L417.674 55.6259C418.82 54.5567 420.357 53.9023 422.048 53.9023C423.731 53.9023 425.264 54.5516 426.407 55.6135Z" fill="white"/>
<path id="Subtract_3" fill-rule="evenodd" clip-rule="evenodd" d="M426.717 58.5244C426.717 58.5246 426.717 58.5241 426.717 58.5244ZM419.7 57.9246L418.656 56.7862C419.597 55.8598 420.906 55.3117 422.329 55.3734C423.628 55.4296 424.787 55.9834 425.632 56.8428L424.477 57.9016C423.881 57.3812 423.11 57.0522 422.258 57.0152C421.281 56.9729 420.378 57.3224 419.7 57.9246Z" fill="white"/>
<path id="Vector 37_2" d="M422.048 60.3112L420.569 58.8322C421.04 58.3846 421.39 58.1748 422.048 58.1748C422.705 58.1748 423.052 58.3428 423.527 58.8322L422.048 60.3112Z" fill="white"/>
</g>
<text id="22:31" fill="white" xml:space="preserve" style="white-space: pre" font-family="Source Sans Pro" font-size="12.8183" font-weight="bold" letter-spacing="0em"><tspan x="177.874" y="60.43">22:30</tspan></text>
</g>
<g id="Group 335">
<text id="Warlison M Silva" fill="#FBF9FC" xml:space="preserve" style="white-space: pre" font-family="Sora" font-size="14.5386" font-weight="bold" letter-spacing="0em"><tspan x="262.62" y="114.246">Warlison M Silva</tspan></text>
<path id="Union_3" fill-rule="evenodd" clip-rule="evenodd" d="M225.442 100.692V99.1959C225.442 99.1959 225.443 99.1929 225.443 99.1909C225.449 99.1739 225.466 99.1229 225.514 99.0389C225.588 98.9119 225.71 98.7539 225.894 98.6029C226.249 98.3119 226.862 98.0249 227.863 98.0979C232.041 98.4049 234.273 101.262 234.273 103.266V116.6C234.273 116.633 234.271 116.66 234.269 116.68C234.249 116.682 234.221 116.684 234.187 116.684H231.613C231.578 116.684 231.55 116.682 231.53 116.68C231.528 116.66 231.526 116.633 231.526 116.6V104.291C231.526 103.369 231.076 102.477 230.442 101.827C229.805 101.175 228.906 100.692 227.915 100.692H225.442ZM227.915 102.11H225.442V116.6C225.442 116.964 225.378 117.411 225.034 117.738C224.699 118.056 224.261 118.102 223.937 118.102H221.316C221.008 118.102 220.605 118.044 220.277 117.758C219.93 117.456 219.812 117.027 219.812 116.6V104.152C219.812 103.409 220.223 102.562 220.783 101.924C221.353 101.275 222.21 100.692 223.235 100.692H224.024V99.1629C224.024 98.8789 224.143 98.5769 224.286 98.3299C224.443 98.0589 224.676 97.7679 224.995 97.5069C225.645 96.9729 226.622 96.5849 227.967 96.6839C232.682 97.0299 235.691 100.332 235.691 103.266V116.6C235.691 116.95 235.613 117.361 235.306 117.68C234.995 118.004 234.576 118.102 234.187 118.102H231.613C231.223 118.102 230.804 118.004 230.493 117.68C230.186 117.361 230.108 116.95 230.108 116.6V104.291C230.108 103.819 229.865 103.266 229.428 102.818C228.993 102.374 228.441 102.11 227.915 102.11ZM223.235 102.11H224.024V116.6C224.024 116.632 224.023 116.659 224.021 116.682C223.998 116.683 223.97 116.684 223.937 116.684H221.316C221.282 116.684 221.255 116.682 221.234 116.68C221.232 116.66 221.23 116.634 221.23 116.6V104.152C221.23 103.868 221.427 103.34 221.849 102.859C222.262 102.389 222.762 102.11 223.235 102.11ZM247.837 118.058V119.554C247.837 119.554 247.837 119.556 247.836 119.558C247.83 119.575 247.814 119.627 247.765 119.71C247.692 119.837 247.569 119.996 247.385 120.146C247.031 120.437 246.417 120.725 245.416 120.652C241.239 120.345 239.006 117.487 239.006 115.484V102.149C239.006 102.116 239.008 102.09 239.01 102.07C239.031 102.068 239.058 102.066 239.093 102.066H241.667C241.702 102.066 241.729 102.068 241.749 102.07C241.752 102.09 241.753 102.116 241.753 102.149V114.458C241.753 115.381 242.203 116.273 242.837 116.922C243.474 117.574 244.373 118.058 245.364 118.058H247.837ZM245.364 116.64H247.837V102.149C247.837 101.786 247.902 101.338 248.245 101.012C248.58 100.693 249.019 100.648 249.342 100.648H251.963C252.271 100.648 252.675 100.706 253.002 100.991C253.349 101.294 253.468 101.722 253.468 102.149V114.598C253.468 115.34 253.056 116.188 252.496 116.826C251.926 117.475 251.069 118.058 250.044 118.058H249.256V119.587C249.256 119.871 249.136 120.172 248.993 120.42C248.836 120.691 248.603 120.982 248.285 121.243C247.635 121.776 246.657 122.165 245.312 122.066C240.597 121.72 237.588 118.418 237.588 115.484V102.149C237.588 101.799 237.667 101.389 237.973 101.07C238.284 100.745 238.704 100.648 239.093 100.648H241.667C242.056 100.648 242.475 100.745 242.787 101.07C243.093 101.389 243.172 101.799 243.172 102.149V114.458C243.172 114.931 243.414 115.484 243.852 115.931C244.286 116.376 244.838 116.64 245.364 116.64ZM250.044 116.64H249.256V102.149C249.256 102.118 249.256 102.091 249.258 102.068C249.282 102.067 249.31 102.066 249.342 102.066H251.963C251.997 102.066 252.025 102.067 252.046 102.07C252.048 102.09 252.05 102.116 252.05 102.149V114.598C252.05 114.881 251.853 115.409 251.43 115.89C251.017 116.361 250.517 116.64 250.044 116.64Z" fill="white"/>
</g>
</g>
<g id="fignu2-screen3" class="fignu2-screen3">
<path id="Vector_26" d="M302.543 137.735L308.444 143.652L314.344 137.735" stroke="#FBF9FC" stroke-width="0.986245" stroke-linecap="round" stroke-linejoin="round"/>
<path id="Rectangle 426_2" d="M433.149 229.455H182.642C179.919 229.455 177.711 231.663 177.711 234.386V484.893C177.711 487.616 179.919 489.824 182.642 489.824H433.149C435.872 489.824 438.08 487.616 438.08 484.893V234.386C438.08 231.663 435.872 229.455 433.149 229.455Z" fill="#FBF8FC"/>
<path id="Rectangle 427" d="M433.149 430.649H182.642C179.919 430.649 177.711 432.857 177.711 435.581V484.893C177.711 487.616 179.919 489.824 182.642 489.824H433.149C435.872 489.824 438.08 487.616 438.08 484.893V435.581C438.08 432.857 435.872 430.649 433.149 430.649Z" fill="#EDEAEF"/>
<text id="Saldo dispon&#195;&#131;&#194;&#173;vel" fill="#3C3B3D" xml:space="preserve" style="white-space: pre" font-family="Source Sans Pro" font-size="11.8349" letter-spacing="0em"><tspan x="190.923" y="333.127">Saldo dispon&#xed;vel</tspan></text>
<g id="Transfer&#195;&#131;&#194;&#170;ncia de R$ 500,00 feita para Juliana ontem">
<text id="Transfer&#195;&#170;ncia de R$ 500,00 feita para Juliana" fill="#3C3B3D" xml:space="preserve" style="white-space: pre" font-family="Source Sans Pro" font-size="8.87621" letter-spacing="0em"><tspan x="233.731" y="457.906">Transfer&#xea;ncia de R$ 500,00 feita para Juliana </tspan></text>
<text id="ontem" fill="#3C3B3D" xml:space="preserve" style="white-space: pre" font-family="Source Sans Pro" font-size="8.87621" letter-spacing="0em"><tspan x="233.731" y="469.906">ontem</tspan></text>
</g>
<text id="NuConta_2" fill="#3C3B3D" xml:space="preserve" style="white-space: pre" font-family="Source Sans Pro" font-size="11.8349" letter-spacing="0em"><tspan x="231.308" y="257.202">NuConta</tspan></text>
<text id="R$ 2.150,59" fill="#3C3B3D" xml:space="preserve" style="white-space: pre" font-family="Sora" font-size="23.6699" font-weight="bold" letter-spacing="0em"><tspan x="190.923" y="364.665">R$ 2.150,59</tspan></text>
<g id="Group 333_2">
<path id="Vector_27" d="M396.95 256.084C396.95 256.084 400.883 248.194 407.767 248.194C414.651 248.194 418.585 256.084 418.585 256.084C418.585 256.084 414.651 263.974 407.767 263.974C400.883 263.974 396.95 256.084 396.95 256.084Z" stroke="#3C3B3D" stroke-width="0.986245" stroke-linecap="round" stroke-linejoin="round"/>
<path id="Vector_28" d="M407.767 259.043C409.397 259.043 410.718 257.719 410.718 256.085C410.718 254.451 409.397 253.125 407.767 253.125C406.138 253.125 404.817 254.451 404.817 256.085C404.817 257.719 406.138 259.043 407.767 259.043Z" stroke="#3C3B3D" stroke-width="0.986245" stroke-linecap="round" stroke-linejoin="round"/>
</g>
<g id="Group 334_2">
<g id="Group 13">
<path id="Vector_29" d="M200.27 247.208V258.056" stroke="#3C3B3D" stroke-width="0.986245" stroke-linecap="round" stroke-linejoin="round"/>
<path id="Vector_30" d="M202.728 249.18H199.041C198.584 249.18 198.146 249.362 197.824 249.686C197.501 250.009 197.32 250.448 197.32 250.906C197.32 251.364 197.501 251.803 197.824 252.127C198.146 252.45 198.584 252.632 199.041 252.632H201.499C201.955 252.632 202.393 252.814 202.716 253.138C203.039 253.461 203.22 253.9 203.22 254.358C203.22 254.816 203.039 255.255 202.716 255.578C202.393 255.902 201.955 256.084 201.499 256.084H197.32" stroke="#3C3B3D" stroke-width="0.986245" stroke-linecap="round" stroke-linejoin="round"/>
</g>
<path id="Vector_31" d="M200.269 262.988C205.701 262.988 210.103 258.572 210.103 253.125C210.103 247.678 205.701 243.263 200.269 243.263C194.838 243.263 190.435 247.678 190.435 253.125C190.435 258.572 194.838 262.988 200.269 262.988Z" stroke="#3C3B3D" stroke-width="0.986245" stroke-linecap="round" stroke-linejoin="round"/>
</g>
<g id="Group 335_2">
<g id="Group 14">
<path id="Vector_32" d="M207.153 456.292V467.14" stroke="#3C3B3D" stroke-width="0.986245" stroke-linecap="round" stroke-linejoin="round"/>
<path id="Vector_33" d="M209.612 458.264H205.924C205.468 458.264 205.03 458.446 204.707 458.77C204.385 459.093 204.203 459.532 204.203 459.99C204.203 460.448 204.385 460.887 204.707 461.211C205.03 461.534 205.468 461.716 205.924 461.716H208.383C208.839 461.716 209.277 461.898 209.6 462.222C209.922 462.545 210.104 462.984 210.104 463.442C210.104 463.9 209.922 464.339 209.6 464.662C209.277 464.986 208.839 465.168 208.383 465.168H204.203" stroke="#3C3B3D" stroke-width="0.986245" stroke-linecap="round" stroke-linejoin="round"/>
</g>
<path id="Vector_34" d="M207.153 452.347C201.722 452.347 197.319 456.762 197.319 462.209C197.319 467.656 201.722 472.072 207.153 472.072C212.585 472.072 216.987 467.656 216.987 462.209C216.987 460.995 216.769 459.832 216.368 458.757" stroke="#3C3B3D" stroke-width="0.986245" stroke-linecap="round" stroke-linejoin="round"/>
<g id="Group 15">
<path id="Vector_35" d="M217.971 453.333L214.037 449.388L210.104 453.333" stroke="#3C3B3D" stroke-width="0.986245" stroke-linecap="round" stroke-linejoin="round"/>
<path id="Vector_36" d="M214.037 457.278V449.388" stroke="#3C3B3D" stroke-width="0.986245" stroke-linecap="round" stroke-linejoin="round"/>
</g>
</g>
<path id="Vector_37" d="M415.635 467.141L421.535 461.223L415.635 455.306" stroke="#3C3B3D" stroke-width="0.986245" stroke-linecap="round" stroke-linejoin="round"/>
<path id="Ellipse 16" d="M293.102 509.549C294.736 509.549 296.061 508.224 296.061 506.59C296.061 504.956 294.736 503.631 293.102 503.631C291.468 503.631 290.143 504.956 290.143 506.59C290.143 508.224 291.468 509.549 293.102 509.549Z" fill="#FBF8FC"/>
<path id="Ellipse 17" d="M308.881 509.549C310.515 509.549 311.84 508.224 311.84 506.59C311.84 504.956 310.515 503.631 308.881 503.631C307.247 503.631 305.922 504.956 305.922 506.59C305.922 508.224 307.247 509.549 308.881 509.549Z" fill="#BB71D2"/>
<path id="Ellipse 18" d="M324.661 509.549C326.295 509.549 327.62 508.224 327.62 506.59C327.62 504.956 326.295 503.631 324.661 503.631C323.027 503.631 321.702 504.956 321.702 506.59C321.702 508.224 323.027 509.549 324.661 509.549Z" fill="#BB71D2"/>
<path id="Rectangle 428" d="M354.929 685.101H261.236C259.874 685.101 258.77 686.205 258.77 687.567V687.567C258.77 688.928 259.874 690.032 261.236 690.032H354.929C356.291 690.032 357.395 688.928 357.395 687.567V687.567C357.395 686.205 356.291 685.101 354.929 685.101Z" fill="#EDEAEF"/>
<g id="Group 336">
<g id="Group 32_2">
<path id="Rectangle 421_2" d="M400.215 57.0742H399.616C399.071 57.0742 398.63 57.5158 398.63 58.0605V59.3944C398.63 59.9391 399.071 60.3806 399.616 60.3806H400.215C400.76 60.3806 401.202 59.9391 401.202 59.3944V58.0605C401.202 57.5158 400.76 57.0742 400.215 57.0742Z" fill="white"/>
<path id="Rectangle 422_2" d="M403.889 55.605H403.29C402.746 55.605 402.304 56.0465 402.304 56.5912V59.3947C402.304 59.9393 402.746 60.3809 403.29 60.3809H403.889C404.434 60.3809 404.876 59.9393 404.876 59.3947V56.5912C404.876 56.0465 404.434 55.605 403.889 55.605Z" fill="white"/>
<path id="Rectangle 423_2" d="M407.563 53.7681H406.964C406.419 53.7681 405.978 54.2096 405.978 54.7543V59.3947C405.978 59.9393 406.419 60.3809 406.964 60.3809H407.563C408.108 60.3809 408.549 59.9393 408.549 59.3947V54.7543C408.549 54.2096 408.108 53.7681 407.563 53.7681Z" fill="white"/>
<path id="Rectangle 424_2" d="M411.236 51.9312H410.637C410.092 51.9312 409.651 52.3727 409.651 52.9174V59.3946C409.651 59.9393 410.092 60.3809 410.637 60.3809H411.236C411.781 60.3809 412.223 59.9393 412.223 59.3946V52.9174C412.223 52.3727 411.781 51.9312 411.236 51.9312Z" fill="white"/>
</g>
<g id="Group 34_2">
<path id="Vector 36_3" d="M447.942 58.2828V55.4424C448.731 55.9158 448.889 56.3892 448.889 56.8626C448.889 57.336 448.731 57.8094 447.942 58.2828Z" fill="white" fill-opacity="0.5"/>
<path id="Rectangle 413_2" d="M445.418 53.2334H434.056C433.185 53.2334 432.478 53.9399 432.478 54.8114V58.9142C432.478 59.7857 433.185 60.4922 434.056 60.4922H445.418C446.289 60.4922 446.996 59.7857 446.996 58.9142V54.8114C446.996 53.9399 446.289 53.2334 445.418 53.2334Z" stroke="white" stroke-opacity="0.5" stroke-width="0.631197"/>
<path id="Rectangle 414_2" d="M445.102 54.1802H434.372C433.849 54.1802 433.425 54.6041 433.425 55.127V58.5985C433.425 59.1214 433.849 59.5453 434.372 59.5453H445.102C445.625 59.5453 446.049 59.1214 446.049 58.5985V55.127C446.049 54.6041 445.625 54.1802 445.102 54.1802Z" fill="#FBF9FC"/>
</g>
<g id="Group 33_2">
<path id="Subtract_4" fill-rule="evenodd" clip-rule="evenodd" d="M426.299 55.6152L427.483 54.4313C426.128 52.898 424.146 51.9312 421.939 51.9312C419.725 51.9312 417.738 52.904 416.382 54.4455L417.565 55.6277C418.71 54.5582 420.248 53.9036 421.939 53.9036C423.623 53.9036 425.155 54.5531 426.299 55.6152Z" fill="white"/>
<path id="Subtract_5" fill-rule="evenodd" clip-rule="evenodd" d="M426.61 58.5265L426.609 58.5257L426.608 58.5265H426.61ZM419.591 57.9266L418.547 56.7881C419.488 55.8614 420.797 55.3131 422.221 55.3748C423.52 55.4311 424.68 55.9849 425.524 56.8445L424.369 57.9036C423.773 57.3831 423.002 57.0539 422.15 57.017C421.172 56.9746 420.269 57.3243 419.591 57.9266Z" fill="white"/>
<path id="Vector 37_3" d="M421.939 60.314L420.459 58.8347C420.931 58.3869 421.281 58.1772 421.939 58.1772C422.596 58.1772 422.943 58.3452 423.418 58.8347L421.939 60.314Z" fill="white"/>
</g>
<text id="22:31_2" fill="white" xml:space="preserve" style="white-space: pre" font-family="Source Sans Pro" font-size="12.8212" font-weight="bold" letter-spacing="0em"><tspan x="177.711" y="60.4295">22:30</tspan></text>
</g>
<g id="Group 337">
<text id="Warlison M Silva_2" fill="#FBF9FC" xml:space="preserve" style="white-space: pre" font-family="Sora" font-size="14.5386" font-weight="bold" letter-spacing="0em"><tspan x="263.616" y="114.393">Warlison M Silva</tspan></text>
<path id="Union_4" fill-rule="evenodd" clip-rule="evenodd" d="M226.438 100.837V99.3412C226.438 99.3412 226.439 99.3392 226.44 99.3372C226.445 99.3202 226.462 99.2682 226.511 99.1852C226.584 99.0582 226.707 98.8992 226.891 98.7492C227.245 98.4582 227.859 98.1702 228.86 98.2442C233.037 98.5502 235.27 101.408 235.27 103.411V116.746C235.27 116.779 235.268 116.805 235.266 116.825C235.245 116.828 235.218 116.829 235.183 116.829H232.609C232.574 116.829 232.547 116.828 232.526 116.825C232.524 116.805 232.523 116.779 232.523 116.746V104.437C232.523 103.514 232.073 102.622 231.439 101.973C230.802 101.321 229.903 100.837 228.912 100.837H226.438ZM228.912 102.255H226.438V116.746C226.438 117.11 226.374 117.557 226.031 117.883C225.696 118.202 225.257 118.248 224.934 118.248H222.313C222.005 118.248 221.601 118.189 221.274 117.904C220.927 117.601 220.808 117.173 220.808 116.746V104.297C220.808 103.555 221.22 102.707 221.78 102.069C222.35 101.42 223.207 100.837 224.232 100.837H225.02V99.3082C225.02 99.0242 225.14 98.7232 225.283 98.4762C225.44 98.2042 225.673 97.9142 225.991 97.6522C226.641 97.1192 227.619 96.7312 228.964 96.8292C233.679 97.1752 236.688 100.477 236.688 103.411V116.746C236.688 117.096 236.609 117.507 236.303 117.826C235.992 118.15 235.572 118.248 235.183 118.248H232.609C232.22 118.248 231.801 118.15 231.489 117.826C231.183 117.507 231.104 117.096 231.104 116.746V104.437C231.104 103.965 230.862 103.411 230.424 102.964C229.99 102.519 229.438 102.255 228.912 102.255ZM224.232 102.255H225.02V116.746C225.02 116.777 225.019 116.804 225.018 116.827C224.994 116.829 224.966 116.829 224.934 116.829H222.313C222.279 116.829 222.251 116.828 222.23 116.825C222.228 116.805 222.226 116.779 222.226 116.746V104.297C222.226 104.014 222.423 103.486 222.846 103.005C223.259 102.535 223.759 102.255 224.232 102.255ZM248.834 118.204V119.7C248.83 119.709 248.815 119.763 248.762 119.856C248.688 119.983 248.565 120.141 248.382 120.292C248.027 120.583 247.413 120.871 246.412 120.797C242.235 120.49 240.003 117.633 240.003 115.63V102.295C240.003 102.262 240.004 102.236 240.007 102.216C240.027 102.213 240.054 102.211 240.089 102.211H242.663C242.698 102.211 242.725 102.213 242.746 102.216C242.748 102.236 242.75 102.262 242.75 102.295V114.604C242.75 115.526 243.199 116.419 243.834 117.068C244.471 117.72 245.369 118.204 246.36 118.204H248.834ZM246.36 116.785H248.834V102.295C248.834 101.931 248.898 101.484 249.241 101.157C249.577 100.839 250.015 100.793 250.338 100.793H252.959C253.268 100.793 253.671 100.851 253.999 101.137C254.346 101.439 254.464 101.868 254.464 102.295V114.744C254.464 115.486 254.053 116.333 253.492 116.972C252.923 117.62 252.066 118.204 251.041 118.204H250.252V119.732C250.252 120.016 250.132 120.318 249.989 120.565C249.833 120.837 249.6 121.127 249.281 121.389C248.631 121.922 247.653 122.31 246.309 122.211C241.594 121.865 238.585 118.564 238.585 115.63V102.295C238.585 101.945 238.663 101.534 238.969 101.215C239.281 100.891 239.7 100.793 240.089 100.793H242.663C243.052 100.793 243.472 100.891 243.783 101.215C244.089 101.534 244.168 101.945 244.168 102.295V114.604C244.168 115.076 244.411 115.629 244.848 116.077C245.282 116.521 245.834 116.785 246.36 116.785ZM251.041 116.785H250.252V102.295C250.252 102.264 250.253 102.237 250.254 102.214C250.278 102.212 250.306 102.211 250.338 102.211H252.959C252.994 102.211 253.021 102.213 253.042 102.215C253.044 102.235 253.046 102.262 253.046 102.295V114.744C253.046 115.027 252.849 115.555 252.427 116.036C252.014 116.506 251.513 116.785 251.041 116.785Z" fill="white"/>
</g>
<g id="Clip path group">
<mask id="mask0_146_369" style="mask-type:luminance" maskUnits="userSpaceOnUse" x="157" y="566" width="303" height="91">
<g id="clip1">
<path id="Vector_38" d="M459.888 566.896H157V656.551H459.888V566.896Z" fill="white"/>
</g>
</mask>
<g mask="url(#mask0_146_369)">
<g id="component-menu">
<path id="Rectangle 426_3" d="M248.467 566.896H171.258C169.92 566.896 168.835 567.981 168.835 569.319V654.221C168.835 655.559 169.92 656.644 171.258 656.644H248.467C249.806 656.644 250.891 655.559 250.891 654.221V569.319C250.891 567.981 249.806 566.896 248.467 566.896Z" fill="#9C4FB4"/>
<text id="Transferir" fill="#EDEAEF" xml:space="preserve" style="white-space: pre" font-family="Source Sans Pro" font-size="11.8349" letter-spacing="0em"><tspan x="177.711" y="646.54">Transferir</tspan></text>
<path id="Rectangle 427_2" d="M433.882 566.896H356.672C355.334 566.896 354.249 567.981 354.249 569.319V654.221C354.249 655.559 355.334 656.644 356.672 656.644H433.882C435.22 656.644 436.305 655.559 436.305 654.221V569.319C436.305 567.981 435.22 566.896 433.882 566.896Z" fill="#9C4FB4"/>
<text id="Cobrar" fill="#EDEAEF" xml:space="preserve" style="white-space: pre" font-family="Source Sans Pro" font-size="11.8349" letter-spacing="0em"><tspan x="362.964" y="646.659">Cobrar</tspan></text>
<path id="Rectangle 428_2" d="M341.174 566.896H263.965C262.627 566.896 261.542 567.981 261.542 569.319V654.221C261.542 655.559 262.627 656.644 263.965 656.644H341.174C342.513 656.644 343.598 655.559 343.598 654.221V569.319C343.598 567.981 342.513 566.896 341.174 566.896Z" fill="#9C4FB4"/>
<text id="Depositar" fill="#EDEAEF" xml:space="preserve" style="white-space: pre" font-family="Source Sans Pro" font-size="11.8349" letter-spacing="0em"><tspan x="270.418" y="646.54">Depositar </tspan></text>
<g id="Group 328_2">
<g id="Group 323_2">
<path id="Vector_38_2" d="M187.485 581.69V592.538" stroke="#EDEAEF" stroke-width="0.807701" stroke-linecap="round" stroke-linejoin="round"/>
<path id="Vector_39" d="M189.944 583.662H186.256C185.8 583.662 185.362 583.844 185.039 584.168C184.717 584.491 184.535 584.93 184.535 585.388C184.535 585.846 184.717 586.285 185.039 586.608C185.362 586.932 185.8 587.114 186.256 587.114H188.715C189.171 587.114 189.609 587.296 189.932 587.619C190.254 587.943 190.436 588.382 190.436 588.84C190.436 589.298 190.254 589.737 189.932 590.06C189.609 590.384 189.171 590.566 188.715 590.566H184.535" stroke="#EDEAEF" stroke-width="0.807701" stroke-linecap="round" stroke-linejoin="round"/>
</g>
<path id="Vector_40" d="M187.485 577.745C182.054 577.745 177.651 582.16 177.651 587.607C177.651 593.054 182.054 597.47 187.485 597.47C192.917 597.47 197.319 593.054 197.319 587.607C197.319 586.393 197.101 585.23 196.7 584.155" stroke="#EDEAEF" stroke-width="0.807701" stroke-linecap="round" stroke-linejoin="round"/>
<g id="Group 324_2">
<path id="Vector_41" d="M198.303 578.731L194.369 574.786L190.436 578.731" stroke="#EDEAEF" stroke-width="0.807701" stroke-linecap="round" stroke-linejoin="round"/>
<path id="Vector_42" d="M194.369 582.676V574.786" stroke="#EDEAEF" stroke-width="0.807701" stroke-linecap="round" stroke-linejoin="round"/>
</g>
</g>
<g id="Group 329_2">
<g id="Group 325_2">
<path id="Vector_43" d="M279.925 581.69V592.538" stroke="#EDEAEF" stroke-width="0.807701" stroke-linecap="round" stroke-linejoin="round"/>
<path id="Vector_44" d="M282.384 583.662H278.696C278.24 583.662 277.802 583.844 277.479 584.168C277.156 584.491 276.975 584.93 276.975 585.388C276.975 585.846 277.156 586.285 277.479 586.608C277.802 586.932 278.24 587.114 278.696 587.114H281.155C281.611 587.114 282.049 587.296 282.372 587.619C282.694 587.943 282.876 588.382 282.876 588.84C282.876 589.298 282.694 589.737 282.372 590.06C282.049 590.384 281.611 590.566 281.155 590.566H276.975" stroke="#EDEAEF" stroke-width="0.807701" stroke-linecap="round" stroke-linejoin="round"/>
</g>
<path id="Vector_45" d="M279.925 577.745C274.494 577.745 270.091 582.16 270.091 587.607C270.091 593.054 274.494 597.47 279.925 597.47C285.356 597.47 289.759 593.054 289.759 587.607C289.759 586.393 289.54 585.23 289.14 584.155" stroke="#EDEAEF" stroke-width="0.807701" stroke-linecap="round" stroke-linejoin="round"/>
<g id="Group 327_2">
<path id="Vector_46" d="M282.876 578.731L286.809 582.676L290.743 578.731" stroke="#EDEAEF" stroke-width="0.807701" stroke-linecap="round" stroke-linejoin="round"/>
<path id="Vector_47" d="M286.809 574.786V582.676" stroke="#EDEAEF" stroke-width="0.807701" stroke-linecap="round" stroke-linejoin="round"/>
</g>
</g>
<g id="Group 330_2">
<g id="Group 326_2">
<path id="Vector_48" d="M372.589 580.703V588.758" stroke="#EDEAEF" stroke-width="0.807701" stroke-linecap="round" stroke-linejoin="round"/>
<path id="Vector_49" d="M374.414 582.168H371.676C371.337 582.168 371.012 582.303 370.773 582.543C370.533 582.783 370.398 583.109 370.398 583.449C370.398 583.789 370.533 584.115 370.773 584.355C371.012 584.595 371.337 584.73 371.676 584.73H373.501C373.84 584.73 374.165 584.865 374.405 585.106C374.644 585.346 374.779 585.672 374.779 586.012C374.779 586.352 374.644 586.678 374.405 586.918C374.165 587.158 373.84 587.293 373.501 587.293H370.398" stroke="#EDEAEF" stroke-width="0.807701" stroke-linecap="round" stroke-linejoin="round"/>
</g>
<path id="Vector_50" d="M381.216 589.58C381.216 590.103 381.008 590.604 380.639 590.974C380.271 591.344 379.77 591.552 379.249 591.552H367.448L363.514 595.497V579.717C363.514 579.194 363.721 578.692 364.09 578.322C364.459 577.952 364.959 577.745 365.481 577.745H379.249C379.77 577.745 380.271 577.952 380.639 578.322C381.008 578.692 381.216 579.194 381.216 579.717V589.58Z" stroke="#EDEAEF" stroke-width="0.807701" stroke-linecap="round" stroke-linejoin="round"/>
</g>
<path id="Rectangle 429" d="M461.299 566.896H449.379C448.041 566.896 446.956 567.981 446.956 569.319V654.221C446.956 655.559 448.041 656.644 449.379 656.644H461.299C462.637 656.644 463.722 655.559 463.722 654.221V569.319C463.722 567.981 462.637 566.896 461.299 566.896Z" fill="#9C4FB4"/>
</g>
</g>
</g>
</g>
<g id="fignu2-screen4" class="fignu2-screen4">
<path id="Vector_51" d="M302.543 137.736L308.444 143.653L314.344 137.736" stroke="#FBF9FC" stroke-width="0.986024" stroke-linecap="round" stroke-linejoin="round"/>
<path id="Rectangle 427_3" d="M433.086 229.415H182.636C179.913 229.415 177.706 231.622 177.706 234.345V484.795C177.706 487.518 179.913 489.725 182.636 489.725H433.086C435.809 489.725 438.016 487.518 438.016 484.795V234.345C438.016 231.622 435.809 229.415 433.086 229.415Z" fill="#FBF8FC"/>
<text id="Fatura atual" fill="#54B9C7" xml:space="preserve" style="white-space: pre" font-family="Source Sans Pro" font-size="11.8323" letter-spacing="0em"><tspan x="192.539" y="337.167">FATURA ATUAL </tspan></text>
<text id="Limite dispon&#195;&#131;&#194;&#173;vel" fill="#3C3B3D" xml:space="preserve" style="white-space: pre" font-family="Source Sans Pro" font-size="8.87422" letter-spacing="0em"><tspan x="192.539" y="383.6">Limite dispon&#xed;vel</tspan></text>
<text id="Cart&#195;&#131;&#194;&#163;o de cr&#195;&#131;&#194;&#169;dito" fill="#3C3B3D" xml:space="preserve" style="white-space: pre" font-family="Source Sans Pro" font-size="11.8323" letter-spacing="0em"><tspan x="231.308" y="256.397">Cart&#xe3;o de cr&#xe9;dito</tspan></text>
<g id="R$ 150,64">
<text id="R$,64" fill="#54B9C7" xml:space="preserve" style="white-space: pre" font-family="Sora" font-size="23.6646" letter-spacing="0em"><tspan x="190.923" y="364.668">R$,64</tspan></text>
<text id="150" fill="#54B9C7" xml:space="preserve" style="white-space: pre" font-family="Sora" font-size="23.6646" font-weight="bold" letter-spacing="0em"><tspan x="222.93" y="364.668"> 150</tspan></text>
</g>
<text id="R$ 150,64_2" fill="#9EC249" xml:space="preserve" style="white-space: pre" font-family="Sora" font-size="8.87422" font-weight="bold" letter-spacing="0em"><tspan x="260.386" y="383.325">R$ 150,64</tspan></text>
<g id="Group 324_3">
<path id="Vector_52" d="M396.95 256.085C396.95 256.085 400.884 248.195 407.767 248.195C414.651 248.195 418.585 256.085 418.585 256.085C418.585 256.085 414.651 263.975 407.767 263.975C400.884 263.975 396.95 256.085 396.95 256.085Z" stroke="#3C3B3D" stroke-width="0.986024" stroke-linecap="round" stroke-linejoin="round"/>
<path id="Vector_53" d="M407.767 259.044C409.397 259.044 410.718 257.719 410.718 256.085C410.718 254.451 409.397 253.127 407.767 253.127C406.138 253.127 404.817 254.451 404.817 256.085C404.817 257.719 406.138 259.044 407.767 259.044Z" stroke="#3C3B3D" stroke-width="0.986024" stroke-linecap="round" stroke-linejoin="round"/>
</g>
<path id="Ellipse 16_2" d="M293.071 509.445C294.705 509.445 296.029 508.121 296.029 506.487C296.029 504.853 294.705 503.529 293.071 503.529C291.437 503.529 290.113 504.853 290.113 506.487C290.113 508.121 291.437 509.445 293.071 509.445Z" fill="#BB71D2"/>
<path id="Ellipse 17_2" d="M308.848 509.445C310.482 509.445 311.806 508.121 311.806 506.487C311.806 504.853 310.482 503.529 308.848 503.529C307.214 503.529 305.89 504.853 305.89 506.487C305.89 508.121 307.214 509.445 308.848 509.445Z" fill="#EDEAEF"/>
<path id="Ellipse 18_2" d="M324.624 509.445C326.258 509.445 327.582 508.121 327.582 506.487C327.582 504.853 326.258 503.529 324.624 503.529C322.99 503.529 321.666 504.853 321.666 506.487C321.666 508.121 322.99 509.445 324.624 509.445Z" fill="#BB71D2"/>
<g id="Group 325_3">
<path id="Vector_54" d="M213.054 245.237H195.353C194.266 245.237 193.386 246.12 193.386 247.209V259.044C193.386 260.133 194.266 261.017 195.353 261.017H213.054C214.14 261.017 215.021 260.133 215.021 259.044V247.209C215.021 246.12 214.14 245.237 213.054 245.237Z" stroke="#3C3B3D" stroke-width="0.986024" stroke-linecap="round" stroke-linejoin="round"/>
<path id="Vector_55" d="M193.386 251.154H215.021" stroke="#3C3B3D" stroke-width="0.986024" stroke-linecap="round" stroke-linejoin="round"/>
</g>
<path id="Rectangle 428_3" d="M433.087 229.415C435.809 229.415 438.017 231.622 438.017 234.345V291.534H433.087V229.415Z" fill="#F3AE3C"/>
<path id="Rectangle 429_2" d="M438.017 291.534H433.087V353.653H438.017V291.534Z" fill="#54B9C7"/>
<path id="Rectangle 430" d="M438.017 353.654H433.087V442.396H438.017V353.654Z" fill="#9EC249"/>
<path id="Rectangle 431" d="M177.706 430.564H438.017V484.795C438.017 487.518 435.809 489.725 433.087 489.725H182.636C179.914 489.725 177.706 487.518 177.706 484.795V430.564Z" fill="#EDEAEF"/>
<g id="Transfer&#195;&#131;&#194;&#170;ncia de R$ 500,00 feita para Juliana ontem_2">
<text id="Transfer&#195;&#170;ncia de R$ 500,00 feita para Juliana_2" fill="#3C3B3D" xml:space="preserve" style="white-space: pre" font-family="Source Sans Pro" font-size="8.87422" letter-spacing="0em"><tspan x="236.868" y="458.233">Transfer&#xea;ncia de R$ 500,00 feita para Juliana </tspan></text>
<text id="ontem_2" fill="#3C3B3D" xml:space="preserve" style="white-space: pre" font-family="Source Sans Pro" font-size="8.87422" letter-spacing="0em"><tspan x="236.868" y="470.233">ontem</tspan></text>
</g>
<g id="Group 326_3">
<path id="Vector_56" d="M207.153 456.293V467.142" stroke="#3C3B3D" stroke-width="0.986024" stroke-linecap="round" stroke-linejoin="round"/>
<path id="Vector_57" d="M209.612 458.266H205.924C205.468 458.266 205.03 458.448 204.707 458.771C204.384 459.095 204.203 459.534 204.203 459.992C204.203 460.449 204.384 460.888 204.707 461.212C205.03 461.536 205.468 461.718 205.924 461.718H208.383C208.839 461.718 209.277 461.899 209.599 462.223C209.922 462.547 210.103 462.986 210.103 463.444C210.103 463.901 209.922 464.34 209.599 464.664C209.277 464.988 208.839 465.169 208.383 465.169H204.203" stroke="#3C3B3D" stroke-width="0.986024" stroke-linecap="round" stroke-linejoin="round"/>
</g>
<path id="Vector_58" d="M207.153 452.348C201.722 452.348 197.319 456.764 197.319 462.211C197.319 467.658 201.722 472.073 207.153 472.073C212.585 472.073 216.987 467.658 216.987 462.211C216.987 460.996 216.769 459.833 216.368 458.759" stroke="#3C3B3D" stroke-width="0.986024" stroke-linecap="round" stroke-linejoin="round"/>
<g id="Group 327_3">
<path id="Vector_59" d="M217.971 453.334L214.037 449.389L210.104 453.334" stroke="#3C3B3D" stroke-width="0.986024" stroke-linecap="round" stroke-linejoin="round"/>
<path id="Vector_60" d="M214.037 457.279V449.389" stroke="#3C3B3D" stroke-width="0.986024" stroke-linecap="round" stroke-linejoin="round"/>
</g>
<path id="Vector_61" d="M415.635 467.142L421.535 461.224L415.635 455.307" stroke="#3C3B3D" stroke-width="0.986024" stroke-linecap="round" stroke-linejoin="round"/>
<g id="Group 328_3">
<g id="Group 32_3">
<path id="Rectangle 421_3" d="M400.161 57.0723H399.562C399.018 57.0723 398.576 57.5137 398.576 58.0583V59.3919C398.576 59.9365 399.018 60.3779 399.562 60.3779H400.161C400.706 60.3779 401.147 59.9365 401.147 59.3919V58.0583C401.147 57.5137 400.706 57.0723 400.161 57.0723Z" fill="white"/>
<path id="Rectangle 422_3" d="M403.834 55.603H403.235C402.691 55.603 402.249 56.0445 402.249 56.5891V59.3919C402.249 59.9364 402.691 60.3779 403.235 60.3779H403.834C404.379 60.3779 404.82 59.9364 404.82 59.3919V56.5891C404.82 56.0445 404.379 55.603 403.834 55.603Z" fill="white"/>
<path id="Rectangle 423_3" d="M407.507 53.7666H406.908C406.364 53.7666 405.922 54.2081 405.922 54.7526V59.3919C405.922 59.9365 406.364 60.378 406.908 60.378H407.507C408.052 60.378 408.493 59.9365 408.493 59.3919V54.7526C408.493 54.2081 408.052 53.7666 407.507 53.7666Z" fill="white"/>
<path id="Rectangle 424_3" d="M411.18 51.9302H410.581C410.037 51.9302 409.595 52.3716 409.595 52.9162V59.392C409.595 59.9365 410.037 60.378 410.581 60.378H411.18C411.725 60.378 412.166 59.9365 412.166 59.392V52.9162C412.166 52.3716 411.725 51.9302 411.18 51.9302Z" fill="white"/>
</g>
<g id="Group 34_3">
<path id="Vector 36_4" d="M447.877 58.2801V55.4404C448.666 55.9137 448.824 56.387 448.824 56.8602C448.824 57.3335 448.666 57.8068 447.877 58.2801Z" fill="white" fill-opacity="0.5"/>
<path id="Rectangle 413_3" d="M445.353 53.2314H433.994C433.122 53.2314 432.416 53.9378 432.416 54.8091V58.9109C432.416 59.7823 433.122 60.4886 433.994 60.4886H445.353C446.224 60.4886 446.93 59.7823 446.93 58.9109V54.8091C446.93 53.9378 446.224 53.2314 445.353 53.2314Z" stroke="white" stroke-opacity="0.5" stroke-width="0.631056"/>
<path id="Rectangle 414_3" d="M445.038 54.1782H434.31C433.787 54.1782 433.363 54.602 433.363 55.1248V58.5956C433.363 59.1184 433.787 59.5422 434.31 59.5422H445.038C445.56 59.5422 445.984 59.1184 445.984 58.5956V55.1248C445.984 54.602 445.56 54.1782 445.038 54.1782Z" fill="#FBF9FC"/>
</g>
<g id="Group 33_3">
<path id="Subtract_6" fill-rule="evenodd" clip-rule="evenodd" d="M427.423 54.4301L426.239 55.6135C425.096 54.5516 423.564 53.9023 421.88 53.9023C420.189 53.9023 418.652 54.5567 417.507 55.6261L416.325 54.4439C417.68 52.9028 419.666 51.9302 421.88 51.9302C424.087 51.9302 426.068 52.897 427.423 54.4301Z" fill="white"/>
<path id="Subtract_7" fill-rule="evenodd" clip-rule="evenodd" d="M426.549 58.5244C426.549 58.5246 426.549 58.5242 426.549 58.5244ZM419.532 57.9247L418.489 56.7864C419.43 55.8599 420.738 55.3117 422.162 55.3734C423.46 55.4297 424.62 55.9835 425.464 56.8429L424.31 57.9016C423.713 57.3813 422.943 57.0522 422.091 57.0152C421.113 56.9729 420.21 57.3225 419.532 57.9247Z" fill="white"/>
<path id="Vector 37_4" d="M421.88 60.3112L420.401 58.8322C420.872 58.3846 421.222 58.1748 421.88 58.1748C422.537 58.1748 422.884 58.3428 423.359 58.8322L421.88 60.3112Z" fill="white"/>
</g>
<text id="22:31_3" fill="white" xml:space="preserve" style="white-space: pre" font-family="Source Sans Pro" font-size="12.8183" font-weight="bold" letter-spacing="0em"><tspan x="177.706" y="60.43">22:31</tspan></text>
</g>
<g id="Group 329_3">
<text id="Warlison M Silva_3" fill="#FBF9FC" xml:space="preserve" style="white-space: pre" font-family="Sora" font-size="14.5386" font-weight="bold" letter-spacing="0em"><tspan x="264.424" y="114.393">Warlison M Silva</tspan></text>
<path id="Union_5" fill-rule="evenodd" clip-rule="evenodd" d="M227.246 100.838V99.3419C227.246 99.3419 227.247 99.3399 227.248 99.3379C227.253 99.3209 227.27 99.2699 227.318 99.1859C227.392 99.0589 227.515 98.9009 227.698 98.7499C228.053 98.4589 228.667 98.1709 229.668 98.2449C233.845 98.5519 236.077 101.409 236.077 103.413V116.747C236.077 116.78 236.076 116.806 236.073 116.826C236.053 116.829 236.026 116.831 235.991 116.831H233.417C233.382 116.831 233.355 116.829 233.334 116.826C233.332 116.806 233.33 116.78 233.33 116.747V104.438C233.33 103.516 232.881 102.623 232.246 101.974C231.609 101.322 230.71 100.838 229.719 100.838H227.246ZM229.719 102.257H227.246V116.747C227.246 117.111 227.182 117.558 226.838 117.885C226.503 118.203 226.065 118.249 225.741 118.249H223.121C222.812 118.249 222.409 118.191 222.081 117.905C221.734 117.603 221.616 117.174 221.616 116.747V104.298C221.616 103.556 222.027 102.709 222.588 102.07C223.157 101.422 224.014 100.838 225.039 100.838H225.828V99.3099C225.828 99.0259 225.948 98.7239 226.09 98.4769C226.247 98.2049 226.48 97.9149 226.799 97.6529C227.449 97.1199 228.427 96.7319 229.771 96.8309C234.486 97.1769 237.495 100.478 237.495 103.413V116.747C237.495 117.097 237.417 117.508 237.111 117.827C236.799 118.151 236.38 118.249 235.991 118.249H233.417C233.028 118.249 232.608 118.151 232.297 117.827C231.991 117.508 231.912 117.097 231.912 116.747V104.438C231.912 103.966 231.669 103.413 231.232 102.965C230.798 102.521 230.246 102.257 229.719 102.257ZM225.039 102.257H225.828V116.747C225.828 116.778 225.827 116.805 225.826 116.828C225.802 116.83 225.774 116.831 225.741 116.831H223.121C223.086 116.831 223.059 116.829 223.038 116.827C223.036 116.807 223.034 116.78 223.034 116.747V104.298C223.034 104.015 223.231 103.487 223.653 103.006C224.066 102.536 224.566 102.257 225.039 102.257ZM249.642 118.205V119.701C249.642 119.701 249.641 119.703 249.64 119.705C249.635 119.722 249.618 119.774 249.569 119.857C249.496 119.984 249.373 120.143 249.189 120.293C248.835 120.584 248.221 120.872 247.22 120.798C243.043 120.492 240.81 117.634 240.81 115.631V102.296C240.81 102.263 240.812 102.237 240.814 102.217C240.835 102.214 240.862 102.213 240.897 102.213H243.471C243.506 102.213 243.533 102.214 243.554 102.217C243.556 102.237 243.557 102.263 243.557 102.296V114.605C243.557 115.528 244.007 116.42 244.641 117.069C245.278 117.721 246.177 118.205 247.168 118.205H249.642ZM247.168 116.787H249.642V102.296C249.642 101.932 249.706 101.485 250.049 101.159C250.384 100.84 250.823 100.795 251.146 100.795H253.767C254.075 100.795 254.479 100.853 254.806 101.138C255.153 101.441 255.272 101.869 255.272 102.296V114.745C255.272 115.487 254.86 116.335 254.3 116.973C253.73 117.622 252.873 118.205 251.849 118.205H251.06V119.734C251.06 120.018 250.94 120.319 250.797 120.566C250.64 120.838 250.407 121.128 250.089 121.39C249.439 121.923 248.461 122.311 247.116 122.213C242.401 121.867 239.392 118.565 239.392 115.631V102.296C239.392 101.946 239.471 101.535 239.777 101.216C240.089 100.892 240.508 100.795 240.897 100.795H243.471C243.86 100.795 244.279 100.892 244.591 101.216C244.897 101.535 244.976 101.946 244.976 102.296V114.605C244.976 115.077 245.218 115.631 245.656 116.078C246.09 116.523 246.642 116.787 247.168 116.787ZM251.849 116.787H251.06V102.296C251.06 102.265 251.061 102.238 251.062 102.215C251.086 102.213 251.114 102.213 251.146 102.213H253.767C253.801 102.213 253.829 102.214 253.85 102.217C253.852 102.237 253.854 102.263 253.854 102.296V114.745C253.854 115.028 253.657 115.556 253.234 116.037C252.821 116.507 252.321 116.787 251.849 116.787Z" fill="white"/>
</g>
<g id="Clip path group_2">
<mask id="mask1_146_369" style="mask-type:luminance" maskUnits="userSpaceOnUse" x="157" y="566" width="303" height="91">
<g id="clip2">
<path id="Vector_62" d="M459.888 566.897H157V656.552H459.888V566.897Z" fill="white"/>
</g>
</mask>
<g mask="url(#mask1_146_369)">
<g id="component-menu_2">
<path id="Rectangle 426_4" d="M248.467 566.897H171.258C169.92 566.897 168.835 567.982 168.835 569.32V654.222C168.835 655.56 169.92 656.645 171.258 656.645H248.467C249.806 656.645 250.891 655.56 250.891 654.222V569.32C250.891 567.982 249.806 566.897 248.467 566.897Z" fill="#9C4FB4"/>
<text id="Transferir_2" fill="#EDEAEF" xml:space="preserve" style="white-space: pre" font-family="Source Sans Pro" font-size="11.8349" letter-spacing="0em"><tspan x="177.711" y="646.541">Transferir</tspan></text>
<path id="Rectangle 427_4" d="M433.882 566.897H356.672C355.334 566.897 354.249 567.982 354.249 569.32V654.222C354.249 655.56 355.334 656.645 356.672 656.645H433.882C435.22 656.645 436.305 655.56 436.305 654.222V569.32C436.305 567.982 435.22 566.897 433.882 566.897Z" fill="#9C4FB4"/>
<text id="Cobrar_2" fill="#EDEAEF" xml:space="preserve" style="white-space: pre" font-family="Source Sans Pro" font-size="11.8349" letter-spacing="0em"><tspan x="362.964" y="646.66">Cobrar</tspan></text>
<path id="Rectangle 428_4" d="M341.174 566.897H263.965C262.627 566.897 261.542 567.982 261.542 569.32V654.222C261.542 655.56 262.627 656.645 263.965 656.645H341.174C342.513 656.645 343.598 655.56 343.598 654.222V569.32C343.598 567.982 342.513 566.897 341.174 566.897Z" fill="#9C4FB4"/>
<text id="Depositar_2" fill="#EDEAEF" xml:space="preserve" style="white-space: pre" font-family="Source Sans Pro" font-size="11.8349" letter-spacing="0em"><tspan x="270.418" y="646.541">Depositar </tspan></text>
<g id="Group 328_4">
<g id="Group 323_3">
<path id="Vector_62_2" d="M187.485 581.691V592.54" stroke="#EDEAEF" stroke-width="0.807701" stroke-linecap="round" stroke-linejoin="round"/>
<path id="Vector_63" d="M189.944 583.663H186.256C185.8 583.663 185.362 583.845 185.039 584.169C184.717 584.493 184.535 584.932 184.535 585.389C184.535 585.847 184.717 586.286 185.039 586.61C185.362 586.933 185.8 587.115 186.256 587.115H188.715C189.171 587.115 189.609 587.297 189.932 587.621C190.254 587.944 190.436 588.383 190.436 588.841C190.436 589.299 190.254 589.738 189.932 590.062C189.609 590.385 189.171 590.567 188.715 590.567H184.535" stroke="#EDEAEF" stroke-width="0.807701" stroke-linecap="round" stroke-linejoin="round"/>
</g>
<path id="Vector_64" d="M187.485 577.746C182.054 577.746 177.651 582.161 177.651 587.608C177.651 593.055 182.054 597.471 187.485 597.471C192.917 597.471 197.319 593.055 197.319 587.608C197.319 586.394 197.101 585.231 196.7 584.157" stroke="#EDEAEF" stroke-width="0.807701" stroke-linecap="round" stroke-linejoin="round"/>
<g id="Group 324_4">
<path id="Vector_65" d="M198.303 578.732L194.369 574.787L190.436 578.732" stroke="#EDEAEF" stroke-width="0.807701" stroke-linecap="round" stroke-linejoin="round"/>
<path id="Vector_66" d="M194.369 582.677V574.787" stroke="#EDEAEF" stroke-width="0.807701" stroke-linecap="round" stroke-linejoin="round"/>
</g>
</g>
<g id="Group 329_4">
<g id="Group 325_4">
<path id="Vector_67" d="M279.925 581.691V592.54" stroke="#EDEAEF" stroke-width="0.807701" stroke-linecap="round" stroke-linejoin="round"/>
<path id="Vector_68" d="M282.384 583.663H278.696C278.24 583.663 277.802 583.845 277.479 584.169C277.156 584.493 276.975 584.932 276.975 585.389C276.975 585.847 277.156 586.286 277.479 586.61C277.802 586.933 278.24 587.115 278.696 587.115H281.155C281.611 587.115 282.049 587.297 282.372 587.621C282.694 587.944 282.876 588.383 282.876 588.841C282.876 589.299 282.694 589.738 282.372 590.062C282.049 590.385 281.611 590.567 281.155 590.567H276.975" stroke="#EDEAEF" stroke-width="0.807701" stroke-linecap="round" stroke-linejoin="round"/>
</g>
<path id="Vector_69" d="M279.925 577.746C274.494 577.746 270.091 582.161 270.091 587.608C270.091 593.055 274.494 597.471 279.925 597.471C285.356 597.471 289.759 593.055 289.759 587.608C289.759 586.394 289.54 585.231 289.14 584.157" stroke="#EDEAEF" stroke-width="0.807701" stroke-linecap="round" stroke-linejoin="round"/>
<g id="Group 327_4">
<path id="Vector_70" d="M282.876 578.732L286.809 582.677L290.743 578.732" stroke="#EDEAEF" stroke-width="0.807701" stroke-linecap="round" stroke-linejoin="round"/>
<path id="Vector_71" d="M286.809 574.787V582.677" stroke="#EDEAEF" stroke-width="0.807701" stroke-linecap="round" stroke-linejoin="round"/>
</g>
</g>
<g id="Group 330_3">
<g id="Group 326_4">
<path id="Vector_72" d="M372.589 580.705V588.759" stroke="#EDEAEF" stroke-width="0.807701" stroke-linecap="round" stroke-linejoin="round"/>
<path id="Vector_73" d="M374.414 582.169H371.676C371.337 582.169 371.012 582.304 370.773 582.544C370.533 582.785 370.398 583.111 370.398 583.45C370.398 583.79 370.533 584.116 370.773 584.357C371.012 584.597 371.337 584.732 371.676 584.732H373.501C373.84 584.732 374.165 584.867 374.405 585.107C374.644 585.347 374.779 585.673 374.779 586.013C374.779 586.353 374.644 586.679 374.405 586.919C374.165 587.16 373.84 587.295 373.501 587.295H370.398" stroke="#EDEAEF" stroke-width="0.807701" stroke-linecap="round" stroke-linejoin="round"/>
</g>
<path id="Vector_74" d="M381.216 589.581C381.216 590.104 381.008 590.606 380.639 590.976C380.271 591.346 379.77 591.553 379.249 591.553H367.448L363.514 595.498V579.718C363.514 579.195 363.721 578.694 364.09 578.324C364.459 577.954 364.959 577.746 365.481 577.746H379.249C379.77 577.746 380.271 577.954 380.639 578.324C381.008 578.694 381.216 579.195 381.216 579.718V589.581Z" stroke="#EDEAEF" stroke-width="0.807701" stroke-linecap="round" stroke-linejoin="round"/>
</g>
<path id="Rectangle 429_3" d="M461.299 566.897H449.379C448.041 566.897 446.956 567.982 446.956 569.32V654.222C446.956 655.56 448.041 656.645 449.379 656.645H461.299C462.637 656.645 463.722 655.56 463.722 654.222V569.32C463.722 567.982 462.637 566.897 461.299 566.897Z" fill="#9C4FB4"/>
</g>
</g>
</g>
<path id="Rectangle 432" d="M354.929 685.102H261.236C259.874 685.102 258.77 686.205 258.77 687.567C258.77 688.929 259.874 690.033 261.236 690.033H354.929C356.291 690.033 357.395 688.929 357.395 687.567C357.395 686.205 356.291 685.102 354.929 685.102Z" fill="#EDEAEF"/>
</g>
<g id="fignu2-screen5" class="fignu2-screen5">
<path id="Vector_75" d="M302.351 137.736L308.252 143.653L314.152 137.736" stroke="#FBF9FC" stroke-width="0.986024" stroke-linecap="round" stroke-linejoin="round"/>
<path id="Rectangle 428_5" d="M432.894 229.415H182.444C179.721 229.415 177.514 231.622 177.514 234.345V484.795C177.514 487.518 179.721 489.725 182.444 489.725H432.894C435.617 489.725 437.824 487.518 437.824 484.795V234.345C437.824 231.622 435.617 229.415 432.894 229.415Z" fill="#FBF8FC"/>
<text id="Nubank rewards" fill="#211F21" xml:space="preserve" style="white-space: pre" font-family="Sora" font-size="11.8323" font-weight="bold" letter-spacing="0em"><tspan x="244.039" y="337.608">NUBANK REWARDS</tspan></text>
<g id="Acumule pontos que nunca expiram e troque por passagens a&#195;&#131;&#194;&#169;reas ou servi&#195;&#131;&#194;&#167;os que voc&#195;&#131;&#194;&#170; realmente usa.">
<text id="Acumule pontos que nunca expiram e troque por" fill="#3C3B3D" xml:space="preserve" style="white-space: pre" font-family="Source Sans Pro" font-size="8.87422" letter-spacing="0em"><tspan x="220.094" y="363.407">Acumule pontos que nunca expiram e troque por </tspan></text>
<text id="passagens a&#195;&#169;reas ou servi&#195;&#167;os que voc&#195;&#170; realmente" fill="#3C3B3D" xml:space="preserve" style="white-space: pre" font-family="Source Sans Pro" font-size="8.87422" letter-spacing="0em"><tspan x="219.024" y="375.407">passagens a&#xe9;reas ou servi&#xe7;os que voc&#xea; realmente </tspan></text>
<text id="usa." fill="#3C3B3D" xml:space="preserve" style="white-space: pre" font-family="Source Sans Pro" font-size="8.87422" letter-spacing="0em"><tspan x="302.658" y="387.407">usa.</tspan></text>
</g>
<path id="Ellipse 16_3" d="M292.879 509.445C294.513 509.445 295.837 508.121 295.837 506.487C295.837 504.853 294.513 503.529 292.879 503.529C291.245 503.529 289.921 504.853 289.921 506.487C289.921 508.121 291.245 509.445 292.879 509.445Z" fill="#BB71D2"/>
<path id="Ellipse 17_3" d="M308.655 509.445C310.289 509.445 311.613 508.121 311.613 506.487C311.613 504.853 310.289 503.529 308.655 503.529C307.021 503.529 305.697 504.853 305.697 506.487C305.697 508.121 307.021 509.445 308.655 509.445Z" fill="#BB71D2"/>
<path id="Ellipse 18_3" d="M324.432 509.445C326.066 509.445 327.39 508.121 327.39 506.487C327.39 504.853 326.066 503.529 324.432 503.529C322.798 503.529 321.474 504.853 321.474 506.487C321.474 508.121 322.798 509.445 324.432 509.445Z" fill="#EDEAEF"/>
<text id="ative o seu rewards" fill="#82269E" xml:space="preserve" style="white-space: pre" font-family="Source Sans Pro" font-size="8.87422" font-weight="bold" letter-spacing="0em"><tspan x="263.298" y="458.233">ATIVE O SEU REWARDS</tspan></text>
<path id="Rectangle 429_4" d="M406.272 436.884H213.997C212.586 436.884 211.443 438.027 211.443 439.438V472.963C211.443 474.374 212.586 475.517 213.997 475.517H406.272C407.682 475.517 408.826 474.374 408.826 472.963V439.438C408.826 438.027 407.682 436.884 406.272 436.884Z" stroke="#82269E" stroke-width="0.807701"/>
<g id="Group 323_4">
<path id="Vector_76" d="M317.102 268.907V278.769H301.368V268.907" stroke="url(#paint2_linear_146_369)" stroke-width="0.986024" stroke-linecap="round" stroke-linejoin="round"/>
<path id="Vector_77" d="M319.069 263.975H299.401V268.907H319.069V263.975Z" stroke="url(#paint3_linear_146_369)" stroke-width="0.986024" stroke-linecap="round" stroke-linejoin="round"/>
<path id="Vector_78" d="M309.235 278.769V263.975" stroke="url(#paint4_linear_146_369)" stroke-width="0.986024" stroke-linecap="round" stroke-linejoin="round"/>
<path id="Vector_79" d="M309.235 263.975H304.81C304.158 263.975 303.532 263.715 303.071 263.253C302.61 262.791 302.351 262.164 302.351 261.51C302.351 260.856 302.61 260.229 303.071 259.766C303.532 259.304 304.158 259.044 304.81 259.044C308.252 259.044 309.235 263.975 309.235 263.975Z" stroke="url(#paint5_linear_146_369)" stroke-width="0.986024" stroke-linecap="round" stroke-linejoin="round"/>
<path id="Vector_80" d="M309.235 263.975H313.66C314.312 263.975 314.938 263.715 315.399 263.253C315.86 262.791 316.119 262.164 316.119 261.51C316.119 260.856 315.86 260.229 315.399 259.766C314.938 259.304 314.312 259.044 313.66 259.044C310.218 259.044 309.235 263.975 309.235 263.975Z" stroke="url(#paint6_linear_146_369)" stroke-width="0.986024" stroke-linecap="round" stroke-linejoin="round"/>
</g>
<g id="Group 324_5">
<g id="Group 32_4">
<path id="Rectangle 421_4" d="M399.969 57.0723H399.37C398.825 57.0723 398.384 57.5137 398.384 58.0583V59.3919C398.384 59.9365 398.825 60.3779 399.37 60.3779H399.969C400.513 60.3779 400.955 59.9365 400.955 59.3919V58.0583C400.955 57.5137 400.513 57.0723 399.969 57.0723Z" fill="white"/>
<path id="Rectangle 422_4" d="M403.642 55.603H403.043C402.498 55.603 402.057 56.0445 402.057 56.5891V59.3919C402.057 59.9364 402.498 60.3779 403.043 60.3779H403.642C404.187 60.3779 404.628 59.9364 404.628 59.3919V56.5891C404.628 56.0445 404.187 55.603 403.642 55.603Z" fill="white"/>
<path id="Rectangle 423_4" d="M407.315 53.7666H406.716C406.171 53.7666 405.73 54.2081 405.73 54.7526V59.3919C405.73 59.9365 406.171 60.378 406.716 60.378H407.315C407.859 60.378 408.301 59.9365 408.301 59.3919V54.7526C408.301 54.2081 407.859 53.7666 407.315 53.7666Z" fill="white"/>
<path id="Rectangle 424_4" d="M410.988 51.9302H410.389C409.844 51.9302 409.403 52.3716 409.403 52.9162V59.392C409.403 59.9365 409.844 60.378 410.389 60.378H410.988C411.532 60.378 411.974 59.9365 411.974 59.392V52.9162C411.974 52.3716 411.532 51.9302 410.988 51.9302Z" fill="white"/>
</g>
<g id="Group 34_4">
<path id="Vector 36_5" d="M447.685 58.2801V55.4404C448.474 55.9137 448.631 56.387 448.631 56.8602C448.631 57.3335 448.474 57.8068 447.685 58.2801Z" fill="white" fill-opacity="0.5"/>
<path id="Rectangle 413_4" d="M445.161 53.2314H433.802C432.93 53.2314 432.224 53.9378 432.224 54.8091V58.9109C432.224 59.7823 432.93 60.4886 433.802 60.4886H445.161C446.032 60.4886 446.738 59.7823 446.738 58.9109V54.8091C446.738 53.9378 446.032 53.2314 445.161 53.2314Z" stroke="white" stroke-opacity="0.5" stroke-width="0.631056"/>
<path id="Rectangle 414_4" d="M444.845 54.1782H434.117C433.595 54.1782 433.171 54.602 433.171 55.1248V58.5956C433.171 59.1184 433.595 59.5422 434.117 59.5422H444.845C445.368 59.5422 445.792 59.1184 445.792 58.5956V55.1248C445.792 54.602 445.368 54.1782 444.845 54.1782Z" fill="#FBF9FC"/>
</g>
<g id="Group 33_4">
<path id="Subtract_8" fill-rule="evenodd" clip-rule="evenodd" d="M427.231 54.4301L426.047 55.6135C424.903 54.5516 423.371 53.9023 421.687 53.9023C419.997 53.9023 418.459 54.5567 417.314 55.6261L416.132 54.4439C417.487 52.9028 419.474 51.9302 421.687 51.9302C423.894 51.9302 425.876 52.897 427.231 54.4301Z" fill="white"/>
<path id="Subtract_9" fill-rule="evenodd" clip-rule="evenodd" d="M426.357 58.5244C426.357 58.5246 426.357 58.5242 426.357 58.5244ZM419.34 57.9248L418.296 56.7864C419.237 55.8599 420.546 55.3117 421.969 55.3734C423.268 55.4297 424.428 55.9835 425.272 56.8429L424.117 57.9016C423.521 57.3813 422.751 57.0522 421.898 57.0152C420.921 56.9729 420.018 57.3225 419.34 57.9248Z" fill="white"/>
<path id="Vector 37_5" d="M421.687 60.3112L420.208 58.8322C420.68 58.3846 421.03 58.1748 421.687 58.1748C422.345 58.1748 422.691 58.3428 423.166 58.8322L421.687 60.3112Z" fill="white"/>
</g>
<text id="22:31_4" fill="white" xml:space="preserve" style="white-space: pre" font-family="Source Sans Pro" font-size="12.8183" font-weight="bold" letter-spacing="0em"><tspan x="177.514" y="60.43">22:31</tspan></text>
</g>
<g id="Group 325_5">
<text id="Warlison M Silva_4" fill="#FBF9FC" xml:space="preserve" style="white-space: pre" font-family="Sora" font-size="14.5386" font-weight="bold" letter-spacing="0em"><tspan x="264.232" y="114.393">Warlison M Silva</tspan></text>
<path id="Union_6" fill-rule="evenodd" clip-rule="evenodd" d="M227.054 100.838V99.3419C227.054 99.3419 227.055 99.3399 227.055 99.3379C227.061 99.3209 227.078 99.2699 227.126 99.1859C227.2 99.0589 227.322 98.9009 227.506 98.7499C227.861 98.4589 228.474 98.1709 229.475 98.2449C233.653 98.5519 235.885 101.409 235.885 103.413V116.747C235.885 116.78 235.883 116.806 235.881 116.826C235.861 116.829 235.833 116.831 235.799 116.831H233.225C233.19 116.831 233.163 116.829 233.142 116.826C233.14 116.806 233.138 116.78 233.138 116.747V104.438C233.138 103.516 232.689 102.623 232.054 101.974C231.417 101.322 230.518 100.838 229.527 100.838H227.054ZM229.527 102.257H227.054V116.747C227.054 117.111 226.99 117.558 226.646 117.885C226.311 118.203 225.873 118.249 225.549 118.249H222.928C222.62 118.249 222.217 118.191 221.889 117.905C221.542 117.603 221.424 117.174 221.424 116.747V104.298C221.424 103.556 221.835 102.709 222.396 102.07C222.965 101.422 223.822 100.838 224.847 100.838H225.636V99.3099C225.636 99.0259 225.755 98.7239 225.898 98.4769C226.055 98.2049 226.288 97.9149 226.607 97.6529C227.257 97.1199 228.234 96.7319 229.579 96.8309C234.294 97.1769 237.303 100.478 237.303 103.413V116.747C237.303 117.097 237.225 117.508 236.918 117.827C236.607 118.151 236.188 118.249 235.799 118.249H233.225C232.835 118.249 232.416 118.151 232.105 117.827C231.799 117.508 231.72 117.097 231.72 116.747V104.438C231.72 103.966 231.477 103.413 231.04 102.965C230.605 102.521 230.053 102.257 229.527 102.257ZM224.847 102.257H225.636V116.747C225.636 116.778 225.635 116.805 225.634 116.828C225.61 116.83 225.582 116.831 225.549 116.831H222.928C222.894 116.831 222.867 116.829 222.846 116.827C222.844 116.807 222.842 116.78 222.842 116.747V104.298C222.842 104.015 223.039 103.487 223.461 103.006C223.874 102.536 224.374 102.257 224.847 102.257ZM249.449 118.205V119.701C249.449 119.701 249.449 119.703 249.448 119.705C249.442 119.722 249.425 119.774 249.377 119.857C249.304 119.984 249.181 120.143 248.997 120.293C248.643 120.584 248.029 120.872 247.028 120.798C242.851 120.492 240.618 117.634 240.618 115.631V102.296C240.618 102.263 240.62 102.237 240.622 102.217C240.643 102.214 240.67 102.213 240.705 102.213H243.279C243.314 102.213 243.341 102.214 243.361 102.217C243.364 102.237 243.365 102.263 243.365 102.296V114.605C243.365 115.528 243.815 116.42 244.449 117.069C245.086 117.721 245.985 118.205 246.976 118.205H249.449ZM246.976 116.787H249.449V102.296C249.449 101.932 249.514 101.485 249.857 101.159C250.192 100.84 250.63 100.795 250.954 100.795H253.575C253.883 100.795 254.287 100.853 254.614 101.138C254.961 101.441 255.08 101.869 255.08 102.296V114.745C255.08 115.487 254.668 116.335 254.108 116.973C253.538 117.622 252.681 118.205 251.656 118.205H250.868V119.734C250.868 120.018 250.748 120.319 250.605 120.566C250.448 120.838 250.215 121.128 249.897 121.39C249.246 121.923 248.269 122.311 246.924 122.213C242.209 121.867 239.2 118.565 239.2 115.631V102.296C239.2 101.946 239.279 101.535 239.585 101.216C239.896 100.892 240.316 100.795 240.705 100.795H243.279C243.668 100.795 244.087 100.892 244.399 101.216C244.705 101.535 244.783 101.946 244.783 102.296V114.605C244.783 115.077 245.026 115.631 245.463 116.078C245.898 116.523 246.45 116.787 246.976 116.787ZM251.656 116.787H250.868V102.296C250.868 102.265 250.868 102.238 250.87 102.215C250.894 102.213 250.922 102.213 250.954 102.213H253.575C253.609 102.213 253.637 102.214 253.658 102.217C253.66 102.237 253.661 102.263 253.661 102.296V114.745C253.661 115.028 253.465 115.556 253.042 116.037C252.629 116.507 252.129 116.787 251.656 116.787Z" fill="white"/>
</g>
<g id="Clip path group_3">
<mask id="mask2_146_369" style="mask-type:luminance" maskUnits="userSpaceOnUse" x="156" y="566" width="303" height="91">
<g id="clip3">
<path id="Vector_81" d="M458.888 566.897H156V656.552H458.888V566.897Z" fill="white"/>
</g>
</mask>
<g mask="url(#mask2_146_369)">
<g id="component-menu_3">
<path id="Rectangle 426_5" d="M247.467 566.897H170.258C168.92 566.897 167.835 567.982 167.835 569.32V654.222C167.835 655.56 168.92 656.645 170.258 656.645H247.467C248.806 656.645 249.891 655.56 249.891 654.222V569.32C249.891 567.982 248.806 566.897 247.467 566.897Z" fill="#9C4FB4"/>
<text id="Transferir_3" fill="#EDEAEF" xml:space="preserve" style="white-space: pre" font-family="Source Sans Pro" font-size="11.8349" letter-spacing="0em"><tspan x="176.711" y="646.541">Transferir</tspan></text>
<path id="Rectangle 427_5" d="M432.882 566.897H355.672C354.334 566.897 353.249 567.982 353.249 569.32V654.222C353.249 655.56 354.334 656.645 355.672 656.645H432.882C434.22 656.645 435.305 655.56 435.305 654.222V569.32C435.305 567.982 434.22 566.897 432.882 566.897Z" fill="#9C4FB4"/>
<text id="Cobrar_3" fill="#EDEAEF" xml:space="preserve" style="white-space: pre" font-family="Source Sans Pro" font-size="11.8349" letter-spacing="0em"><tspan x="361.964" y="646.66">Cobrar</tspan></text>
<path id="Rectangle 428_6" d="M340.174 566.897H262.965C261.627 566.897 260.542 567.982 260.542 569.32V654.222C260.542 655.56 261.627 656.645 262.965 656.645H340.174C341.513 656.645 342.598 655.56 342.598 654.222V569.32C342.598 567.982 341.513 566.897 340.174 566.897Z" fill="#9C4FB4"/>
<text id="Depositar_3" fill="#EDEAEF" xml:space="preserve" style="white-space: pre" font-family="Source Sans Pro" font-size="11.8349" letter-spacing="0em"><tspan x="269.418" y="646.541">Depositar </tspan></text>
<g id="Group 328_5">
<g id="Group 323_5">
<path id="Vector_81_2" d="M186.485 581.691V592.54" stroke="#EDEAEF" stroke-width="0.807701" stroke-linecap="round" stroke-linejoin="round"/>
<path id="Vector_82" d="M188.944 583.663H185.256C184.8 583.663 184.362 583.845 184.039 584.169C183.717 584.493 183.535 584.932 183.535 585.389C183.535 585.847 183.717 586.286 184.039 586.61C184.362 586.933 184.8 587.115 185.256 587.115H187.715C188.171 587.115 188.609 587.297 188.932 587.621C189.254 587.944 189.436 588.383 189.436 588.841C189.436 589.299 189.254 589.738 188.932 590.062C188.609 590.385 188.171 590.567 187.715 590.567H183.535" stroke="#EDEAEF" stroke-width="0.807701" stroke-linecap="round" stroke-linejoin="round"/>
</g>
<path id="Vector_83" d="M186.485 577.746C181.054 577.746 176.651 582.161 176.651 587.608C176.651 593.055 181.054 597.471 186.485 597.471C191.917 597.471 196.319 593.055 196.319 587.608C196.319 586.394 196.101 585.231 195.7 584.157" stroke="#EDEAEF" stroke-width="0.807701" stroke-linecap="round" stroke-linejoin="round"/>
<g id="Group 324_6">
<path id="Vector_84" d="M197.303 578.732L193.369 574.787L189.436 578.732" stroke="#EDEAEF" stroke-width="0.807701" stroke-linecap="round" stroke-linejoin="round"/>
<path id="Vector_85" d="M193.369 582.677V574.787" stroke="#EDEAEF" stroke-width="0.807701" stroke-linecap="round" stroke-linejoin="round"/>
</g>
</g>
<g id="Group 329_5">
<g id="Group 325_6">
<path id="Vector_86" d="M278.925 581.691V592.54" stroke="#EDEAEF" stroke-width="0.807701" stroke-linecap="round" stroke-linejoin="round"/>
<path id="Vector_87" d="M281.384 583.663H277.696C277.24 583.663 276.802 583.845 276.479 584.169C276.156 584.493 275.975 584.932 275.975 585.389C275.975 585.847 276.156 586.286 276.479 586.61C276.802 586.933 277.24 587.115 277.696 587.115H280.155C280.611 587.115 281.049 587.297 281.372 587.621C281.694 587.944 281.876 588.383 281.876 588.841C281.876 589.299 281.694 589.738 281.372 590.062C281.049 590.385 280.611 590.567 280.155 590.567H275.975" stroke="#EDEAEF" stroke-width="0.807701" stroke-linecap="round" stroke-linejoin="round"/>
</g>
<path id="Vector_88" d="M278.925 577.746C273.494 577.746 269.091 582.161 269.091 587.608C269.091 593.055 273.494 597.471 278.925 597.471C284.356 597.471 288.759 593.055 288.759 587.608C288.759 586.394 288.54 585.231 288.14 584.157" stroke="#EDEAEF" stroke-width="0.807701" stroke-linecap="round" stroke-linejoin="round"/>
<g id="Group 327_5">
<path id="Vector_89" d="M281.876 578.732L285.809 582.677L289.743 578.732" stroke="#EDEAEF" stroke-width="0.807701" stroke-linecap="round" stroke-linejoin="round"/>
<path id="Vector_90" d="M285.809 574.787V582.677" stroke="#EDEAEF" stroke-width="0.807701" stroke-linecap="round" stroke-linejoin="round"/>
</g>
</g>
<g id="Group 330_4">
<g id="Group 326_5">
<path id="Vector_91" d="M371.589 580.705V588.759" stroke="#EDEAEF" stroke-width="0.807701" stroke-linecap="round" stroke-linejoin="round"/>
<path id="Vector_92" d="M373.414 582.169H370.676C370.337 582.169 370.012 582.304 369.773 582.544C369.533 582.785 369.398 583.111 369.398 583.45C369.398 583.79 369.533 584.116 369.773 584.357C370.012 584.597 370.337 584.732 370.676 584.732H372.501C372.84 584.732 373.165 584.867 373.405 585.107C373.644 585.347 373.779 585.673 373.779 586.013C373.779 586.353 373.644 586.679 373.405 586.919C373.165 587.16 372.84 587.295 372.501 587.295H369.398" stroke="#EDEAEF" stroke-width="0.807701" stroke-linecap="round" stroke-linejoin="round"/>
</g>
<path id="Vector_93" d="M380.216 589.581C380.216 590.104 380.008 590.606 379.639 590.976C379.271 591.346 378.77 591.553 378.249 591.553H366.448L362.514 595.498V579.718C362.514 579.195 362.721 578.694 363.09 578.324C363.459 577.954 363.959 577.746 364.481 577.746H378.249C378.77 577.746 379.271 577.954 379.639 578.324C380.008 578.694 380.216 579.195 380.216 579.718V589.581Z" stroke="#EDEAEF" stroke-width="0.807701" stroke-linecap="round" stroke-linejoin="round"/>
</g>
<path id="Rectangle 429_5" d="M460.299 566.897H448.379C447.041 566.897 445.956 567.982 445.956 569.32V654.222C445.956 655.56 447.041 656.645 448.379 656.645H460.299C461.637 656.645 462.722 655.56 462.722 654.222V569.32C462.722 567.982 461.637 566.897 460.299 566.897Z" fill="#9C4FB4"/>
</g>
</g>
</g>
<path id="Rectangle 430_2" d="M354.737 685.102H261.044C259.682 685.102 258.578 686.205 258.578 687.567C258.578 688.929 259.682 690.033 261.044 690.033H354.737C356.099 690.033 357.203 688.929 357.203 687.567C357.203 686.205 356.099 685.102 354.737 685.102Z" fill="#EDEAEF"/>
</g>
<g id="fignu2-icon1" class="fignu2-icon1">
<g id="Rectangle 890" filter="url(#filter2_dddd_146_369)">
<path id="Vector_94" d="M542.692 529H467.308C449.465 529 435 543.465 435 561.308V636.692C435 654.535 449.465 669 467.308 669H542.692C560.535 669 575 654.535 575 636.692V561.308C575 543.465 560.535 529 542.692 529Z" fill="#FBF8FC"/>
</g>
<path id="Vector_94_2" d="M529 582L496 615L481 600" stroke="url(#paint7_linear_146_369)" stroke-width="5.96174" stroke-linecap="round" stroke-linejoin="round"/>
</g>
<g id="fignu2-icon3" class="fignu2-icon3">
<g id="Rectangle 884" filter="url(#filter3_dddd_146_369)">
<path id="Vector_95" d="M542.692 94H467.308C449.465 94 435 108.465 435 126.308V201.692C435 219.535 449.465 234 467.308 234H542.692C560.535 234 575 219.535 575 201.692V126.308C575 108.465 560.535 94 542.692 94Z" fill="#FBF8FC"/>
</g>
<g id="Group 289">
<path id="Vector_97" d="M505 131V197" stroke="url(#paint8_linear_146_369)" stroke-width="5.96174" stroke-linecap="round" stroke-linejoin="round"/>
<path id="Vector_98" d="M520 143H497.5C494.715 143 492.045 144.106 490.075 146.075C488.106 148.044 487 150.715 487 153.5C487 156.285 488.106 158.955 490.075 160.924C492.045 162.894 494.715 164 497.5 164H512.5C515.285 164 517.955 165.106 519.925 167.075C521.894 169.044 523 171.715 523 174.5C523 177.285 521.894 179.955 519.925 181.924C517.955 183.894 515.285 185 512.5 185H487" stroke="url(#paint9_linear_146_369)" stroke-width="5.96174" stroke-linecap="round" stroke-linejoin="round"/>
</g>
</g>
<g id="fignu2-icon5" class="fignu2-icon5">
<g id="Rectangle 879" filter="url(#filter4_dddd_146_369)">
<path id="Vector_96" d="M141.692 174H66.3077C48.4647 174 34 188.465 34 206.308V281.692C34 299.535 48.4647 314 66.3077 314H141.692C159.535 314 174 299.535 174 281.692V206.308C174 188.465 159.535 174 141.692 174Z" fill="#FBF8FC"/>
</g>
<path id="Vector_101" d="M104 274C104 274 128 262 128 244V223L104 214L80 223V244C80 262 104 274 104 274Z" stroke="url(#paint10_linear_146_369)" stroke-width="5.96174" stroke-linecap="round" stroke-linejoin="round"/>
</g>
</g>
<defs>
<filter id="filter0_d_146_369" x="463" y="163" width="13.2839" height="83.0708" filterUnits="userSpaceOnUse" color-interpolation-filters="sRGB">
<feFlood flood-opacity="0" result="BackgroundImageFix"/>
<feColorMatrix in="SourceAlpha" type="matrix" values="0 0 0 0 0 0 0 0 0 0 0 0 0 0 0 0 0 0 127 0" result="hardAlpha"/>
<feOffset dx="-2"/>
<feGaussianBlur stdDeviation="2.5"/>
<feColorMatrix type="matrix" values="0 0 0 0 0 0 0 0 0 0 0 0 0 0 0 0 0 0 0.12 0"/>
<feBlend mode="normal" in2="BackgroundImageFix" result="effect1_dropShadow_146_369"/>
<feBlend mode="normal" in="SourceGraphic" in2="effect1_dropShadow_146_369" result="shape"/>
</filter>
<filter id="filter1_dddd_146_369" x="64" y="0" width="488" height="846" filterUnits="userSpaceOnUse" color-interpolation-filters="sRGB">
<feFlood flood-opacity="0" result="BackgroundImageFix"/>
<feColorMatrix in="SourceAlpha" type="matrix" values="0 0 0 0 0 0 0 0 0 0 0 0 0 0 0 0 0 0 127 0" result="hardAlpha"/>
<feOffset dy="2.30969"/>
<feGaussianBlur stdDeviation="1.81152"/>
<feColorMatrix type="matrix" values="0 0 0 0 0.662745 0 0 0 0 0.313726 0 0 0 0 0.768627 0 0 0 0.0278729 0"/>
<feBlend mode="normal" in2="BackgroundImageFix" result="effect1_dropShadow_146_369"/>
<feColorMatrix in="SourceAlpha" type="matrix" values="0 0 0 0 0 0 0 0 0 0 0 0 0 0 0 0 0 0 127 0" result="hardAlpha"/>
<feOffset dy="6.38599"/>
<feGaussianBlur stdDeviation="5.00862"/>
<feColorMatrix type="matrix" values="0 0 0 0 0.662745 0 0 0 0 0.313726 0 0 0 0 0.768627 0 0 0 0.04 0"/>
<feBlend mode="normal" in2="effect1_dropShadow_146_369" result="effect2_dropShadow_146_369"/>
<feColorMatrix in="SourceAlpha" type="matrix" values="0 0 0 0 0 0 0 0 0 0 0 0 0 0 0 0 0 0 127 0" result="hardAlpha"/>
<feOffset dy="15.375"/>
<feGaussianBlur stdDeviation="12.0588"/>
<feColorMatrix type="matrix" values="0 0 0 0 0.662745 0 0 0 0 0.313726 0 0 0 0 0.768627 0 0 0 0.0521271 0"/>
<feBlend mode="normal" in2="effect2_dropShadow_146_369" result="effect3_dropShadow_146_369"/>
<feColorMatrix in="SourceAlpha" type="matrix" values="0 0 0 0 0 0 0 0 0 0 0 0 0 0 0 0 0 0 127 0" result="hardAlpha"/>
<feOffset dy="51"/>
<feGaussianBlur stdDeviation="40"/>
<feColorMatrix type="matrix" values="0 0 0 0 0.662745 0 0 0 0 0.313726 0 0 0 0 0.768627 0 0 0 0.08 0"/>
<feBlend mode="normal" in2="effect3_dropShadow_146_369" result="effect4_dropShadow_146_369"/>
<feBlend mode="normal" in="SourceGraphic" in2="effect4_dropShadow_146_369" result="shape"/>
</filter>
<filter id="filter2_dddd_146_369" x="355" y="500" width="300" height="300" filterUnits="userSpaceOnUse" color-interpolation-filters="sRGB">
<feFlood flood-opacity="0" result="BackgroundImageFix"/>
<feColorMatrix in="SourceAlpha" type="matrix" values="0 0 0 0 0 0 0 0 0 0 0 0 0 0 0 0 0 0 127 0" result="hardAlpha"/>
<feOffset dy="2.30969"/>
<feGaussianBlur stdDeviation="1.81152"/>
<feColorMatrix type="matrix" values="0 0 0 0 0.662745 0 0 0 0 0.313726 0 0 0 0 0.768627 0 0 0 0.0278729 0"/>
<feBlend mode="normal" in2="BackgroundImageFix" result="effect1_dropShadow_146_369"/>
<feColorMatrix in="SourceAlpha" type="matrix" values="0 0 0 0 0 0 0 0 0 0 0 0 0 0 0 0 0 0 127 0" result="hardAlpha"/>
<feOffset dy="6.38599"/>
<feGaussianBlur stdDeviation="5.00862"/>
<feColorMatrix type="matrix" values="0 0 0 0 0.662745 0 0 0 0 0.313726 0 0 0 0 0.768627 0 0 0 0.04 0"/>
<feBlend mode="normal" in2="effect1_dropShadow_146_369" result="effect2_dropShadow_146_369"/>
<feColorMatrix in="SourceAlpha" type="matrix" values="0 0 0 0 0 0 0 0 0 0 0 0 0 0 0 0 0 0 127 0" result="hardAlpha"/>
<feOffset dy="15.375"/>
<feGaussianBlur stdDeviation="12.0588"/>
<feColorMatrix type="matrix" values="0 0 0 0 0.662745 0 0 0 0 0.313726 0 0 0 0 0.768627 0 0 0 0.0521271 0"/>
<feBlend mode="normal" in2="effect2_dropShadow_146_369" result="effect3_dropShadow_146_369"/>
<feColorMatrix in="SourceAlpha" type="matrix" values="0 0 0 0 0 0 0 0 0 0 0 0 0 0 0 0 0 0 127 0" result="hardAlpha"/>
<feOffset dy="51"/>
<feGaussianBlur stdDeviation="40"/>
<feColorMatrix type="matrix" values="0 0 0 0 0.662745 0 0 0 0 0.313726 0 0 0 0 0.768627 0 0 0 0.08 0"/>
<feBlend mode="normal" in2="effect3_dropShadow_146_369" result="effect4_dropShadow_146_369"/>
<feBlend mode="normal" in="SourceGraphic" in2="effect4_dropShadow_146_369" result="shape"/>
</filter>
<filter id="filter3_dddd_146_369" x="355" y="65" width="300" height="300" filterUnits="userSpaceOnUse" color-interpolation-filters="sRGB">
<feFlood flood-opacity="0" result="BackgroundImageFix"/>
<feColorMatrix in="SourceAlpha" type="matrix" values="0 0 0 0 0 0 0 0 0 0 0 0 0 0 0 0 0 0 127 0" result="hardAlpha"/>
<feOffset dy="2.30969"/>
<feGaussianBlur stdDeviation="1.81152"/>
<feColorMatrix type="matrix" values="0 0 0 0 0.662745 0 0 0 0 0.313726 0 0 0 0 0.768627 0 0 0 0.0278729 0"/>
<feBlend mode="normal" in2="BackgroundImageFix" result="effect1_dropShadow_146_369"/>
<feColorMatrix in="SourceAlpha" type="matrix" values="0 0 0 0 0 0 0 0 0 0 0 0 0 0 0 0 0 0 127 0" result="hardAlpha"/>
<feOffset dy="6.38599"/>
<feGaussianBlur stdDeviation="5.00862"/>
<feColorMatrix type="matrix" values="0 0 0 0 0.662745 0 0 0 0 0.313726 0 0 0 0 0.768627 0 0 0 0.04 0"/>
<feBlend mode="normal" in2="effect1_dropShadow_146_369" result="effect2_dropShadow_146_369"/>
<feColorMatrix in="SourceAlpha" type="matrix" values="0 0 0 0 0 0 0 0 0 0 0 0 0 0 0 0 0 0 127 0" result="hardAlpha"/>
<feOffset dy="15.375"/>
<feGaussianBlur stdDeviation="12.0588"/>
<feColorMatrix type="matrix" values="0 0 0 0 0.662745 0 0 0 0 0.313726 0 0 0 0 0.768627 0 0 0 0.0521271 0"/>
<feBlend mode="normal" in2="effect2_dropShadow_146_369" result="effect3_dropShadow_146_369"/>
<feColorMatrix in="SourceAlpha" type="matrix" values="0 0 0 0 0 0 0 0 0 0 0 0 0 0 0 0 0 0 127 0" result="hardAlpha"/>
<feOffset dy="51"/>
<feGaussianBlur stdDeviation="40"/>
<feColorMatrix type="matrix" values="0 0 0 0 0.662745 0 0 0 0 0.313726 0 0 0 0 0.768627 0 0 0 0.08 0"/>
<feBlend mode="normal" in2="effect3_dropShadow_146_369" result="effect4_dropShadow_146_369"/>
<feBlend mode="normal" in="SourceGraphic" in2="effect4_dropShadow_146_369" result="shape"/>
</filter>
<filter id="filter4_dddd_146_369" x="-46" y="145" width="300" height="300" filterUnits="userSpaceOnUse" color-interpolation-filters="sRGB">
<feFlood flood-opacity="0" result="BackgroundImageFix"/>
<feColorMatrix in="SourceAlpha" type="matrix" values="0 0 0 0 0 0 0 0 0 0 0 0 0 0 0 0 0 0 127 0" result="hardAlpha"/>
<feOffset dy="2.30969"/>
<feGaussianBlur stdDeviation="1.81152"/>
<feColorMatrix type="matrix" values="0 0 0 0 0.662745 0 0 0 0 0.313726 0 0 0 0 0.768627 0 0 0 0.0278729 0"/>
<feBlend mode="normal" in2="BackgroundImageFix" result="effect1_dropShadow_146_369"/>
<feColorMatrix in="SourceAlpha" type="matrix" values="0 0 0 0 0 0 0 0 0 0 0 0 0 0 0 0 0 0 127 0" result="hardAlpha"/>
<feOffset dy="6.38599"/>
<feGaussianBlur stdDeviation="5.00862"/>
<feColorMatrix type="matrix" values="0 0 0 0 0.662745 0 0 0 0 0.313726 0 0 0 0 0.768627 0 0 0 0.04 0"/>
<feBlend mode="normal" in2="effect1_dropShadow_146_369" result="effect2_dropShadow_146_369"/>
<feColorMatrix in="SourceAlpha" type="matrix" values="0 0 0 0 0 0 0 0 0 0 0 0 0 0 0 0 0 0 127 0" result="hardAlpha"/>
<feOffset dy="15.375"/>
<feGaussianBlur stdDeviation="12.0588"/>
<feColorMatrix type="matrix" values="0 0 0 0 0.662745 0 0 0 0 0.313726 0 0 0 0 0.768627 0 0 0 0.0521271 0"/>
<feBlend mode="normal" in2="effect2_dropShadow_146_369" result="effect3_dropShadow_146_369"/>
<feColorMatrix in="SourceAlpha" type="matrix" values="0 0 0 0 0 0 0 0 0 0 0 0 0 0 0 0 0 0 127 0" result="hardAlpha"/>
<feOffset dy="51"/>
<feGaussianBlur stdDeviation="40"/>
<feColorMatrix type="matrix" values="0 0 0 0 0.662745 0 0 0 0 0.313726 0 0 0 0 0.768627 0 0 0 0.08 0"/>
<feBlend mode="normal" in2="effect3_dropShadow_146_369" result="effect4_dropShadow_146_369"/>
<feBlend mode="normal" in="SourceGraphic" in2="effect4_dropShadow_146_369" result="shape"/>
</filter>
<linearGradient id="paint0_linear_146_369" x1="-nan" y1="-nan" x2="-nan" y2="-nan" gradientUnits="userSpaceOnUse">
<stop stop-color="#82269E"/>
<stop offset="1" stop-color="#82269E" stop-opacity="0"/>
</linearGradient>
<linearGradient id="paint1_linear_146_369" x1="414.26" y1="129.045" x2="48.1891" y2="323.893" gradientUnits="userSpaceOnUse">
<stop stop-color="#A950C4"/>
<stop offset="1" stop-color="#82269E"/>
</linearGradient>
<linearGradient id="paint2_linear_146_369" x1="314.663" y1="270.238" x2="309.186" y2="280.31" gradientUnits="userSpaceOnUse">
<stop stop-color="#A950C4"/>
<stop offset="1" stop-color="#82269E"/>
</linearGradient>
<linearGradient id="paint3_linear_146_369" x1="316.021" y1="264.641" x2="314.665" y2="270.871" gradientUnits="userSpaceOnUse">
<stop stop-color="#A950C4"/>
<stop offset="1" stop-color="#82269E"/>
</linearGradient>
<linearGradient id="paint4_linear_146_369" x1="-nan" y1="-nan" x2="-nan" y2="-nan" gradientUnits="userSpaceOnUse">
<stop stop-color="#A950C4"/>
<stop offset="1" stop-color="#82269E"/>
</linearGradient>
<linearGradient id="paint5_linear_146_369" x1="308.168" y1="259.71" x2="305.243" y2="264.417" gradientUnits="userSpaceOnUse">
<stop stop-color="#A950C4"/>
<stop offset="1" stop-color="#82269E"/>
</linearGradient>
<linearGradient id="paint6_linear_146_369" x1="315.052" y1="259.71" x2="312.127" y2="264.417" gradientUnits="userSpaceOnUse">
<stop stop-color="#A950C4"/>
<stop offset="1" stop-color="#82269E"/>
</linearGradient>
<linearGradient id="paint7_linear_146_369" x1="521.56" y1="586.455" x2="502.349" y2="618.664" gradientUnits="userSpaceOnUse">
<stop stop-color="#A950C4"/>
<stop offset="1" stop-color="#82269E"/>
</linearGradient>
<linearGradient id="paint8_linear_146_369" x1="-nan" y1="-nan" x2="-nan" y2="-nan" gradientUnits="userSpaceOnUse">
<stop stop-color="#A950C4"/>
<stop offset="1" stop-color="#82269E"/>
</linearGradient>
<linearGradient id="paint9_linear_146_369" x1="517.42" y1="148.67" x2="489.634" y2="176.123" gradientUnits="userSpaceOnUse">
<stop stop-color="#A950C4"/>
<stop offset="1" stop-color="#82269E"/>
</linearGradient>
<linearGradient id="paint10_linear_146_369" x1="120.56" y1="222.1" x2="80.9927" y2="258.586" gradientUnits="userSpaceOnUse">
<stop stop-color="#A950C4"/>
<stop offset="1" stop-color="#82269E"/>
</linearGradient>
</defs>
</svg>
