<svg width="168" height="54" viewBox="0 0 168 54" fill="none" xmlns="http://www.w3.org/2000/svg">
<g id="google-play" clip-path="url(#clip0_145_504)">
<path id="Vector" d="M152 0H16C7.16344 0 0 7.16344 0 16V38C0 46.8366 7.16344 54 16 54H152C160.837 54 168 46.8366 168 38V16C168 7.16344 160.837 0 152 0Z" fill="#FBF8FC"/>
<path id="Vector_2" fill-rule="evenodd" clip-rule="evenodd" d="M35.4104 17.2083C35.16 17.4664 35 17.82 35 18.2294V35.3578C35 35.8292 35.212 36.2265 35.53 36.4893L45.1107 26.9086L35.4104 17.2083ZM46.1512 27.9491L37.8501 36.2502L48.2634 30.0613L46.1512 27.9491ZM49.5687 29.2855L47.1917 26.9086L49.7129 24.3874L51.6331 25.5287C52.5927 26.099 52.5927 27.4882 51.6331 28.0586L49.5687 29.2855ZM46.1512 25.8681L37.2831 17L48.4077 23.6117L46.1512 25.8681Z" fill="url(#paint0_linear_145_504)"/>
<path id="Vector_3" d="M65.8101 21.9998V16.0958H67.2861C68.1981 16.0958 68.8911 16.3478 69.3651 16.8518C69.8391 17.3558 70.0761 18.0788 70.0761 19.0208C70.0761 19.4888 70.0161 19.9088 69.8961 20.2808C69.7761 20.6468 69.5991 20.9588 69.3651 21.2168C69.1311 21.4688 68.8431 21.6638 68.5011 21.8018C68.1591 21.9338 67.7661 21.9998 67.3221 21.9998H65.8101ZM66.5571 21.3878H67.2321C67.9221 21.3878 68.4381 21.1808 68.7801 20.7668C69.1281 20.3528 69.3021 19.7708 69.3021 19.0208C69.3021 18.2708 69.1281 17.6978 68.7801 17.3018C68.4381 16.9058 67.9221 16.7078 67.2321 16.7078H66.5571V21.3878ZM72.9762 22.1078C72.7062 22.1078 72.4482 22.0568 72.2022 21.9548C71.9622 21.8528 71.7492 21.7058 71.5632 21.5138C71.3772 21.3158 71.2272 21.0758 71.1132 20.7938C71.0052 20.5058 70.9512 20.1818 70.9512 19.8218C70.9512 19.4558 71.0052 19.1318 71.1132 18.8498C71.2272 18.5618 71.3772 18.3188 71.5632 18.1208C71.7492 17.9228 71.9622 17.7728 72.2022 17.6708C72.4482 17.5688 72.7062 17.5178 72.9762 17.5178C73.2462 17.5178 73.5012 17.5688 73.7412 17.6708C73.9872 17.7728 74.2032 17.9228 74.3892 18.1208C74.5752 18.3188 74.7222 18.5618 74.8302 18.8498C74.9442 19.1318 75.0012 19.4558 75.0012 19.8218C75.0012 20.1818 74.9442 20.5058 74.8302 20.7938C74.7222 21.0758 74.5752 21.3158 74.3892 21.5138C74.2032 21.7058 73.9872 21.8528 73.7412 21.9548C73.5012 22.0568 73.2462 22.1078 72.9762 22.1078ZM72.9762 21.4958C73.1622 21.4958 73.3332 21.4568 73.4892 21.3788C73.6452 21.2948 73.7772 21.1808 73.8852 21.0368C73.9992 20.8868 74.0862 20.7098 74.1462 20.5058C74.2062 20.3018 74.2362 20.0738 74.2362 19.8218C74.2362 19.5698 74.2062 19.3418 74.1462 19.1378C74.0862 18.9278 73.9992 18.7478 73.8852 18.5978C73.7772 18.4478 73.6452 18.3338 73.4892 18.2558C73.3332 18.1718 73.1622 18.1298 72.9762 18.1298C72.7902 18.1298 72.6192 18.1718 72.4632 18.2558C72.3072 18.3338 72.1722 18.4478 72.0582 18.5978C71.9502 18.7478 71.8662 18.9278 71.8062 19.1378C71.7462 19.3418 71.7162 19.5698 71.7162 19.8218C71.7162 20.0738 71.7462 20.3018 71.8062 20.5058C71.8662 20.7098 71.9502 20.8868 72.0582 21.0368C72.1722 21.1808 72.3072 21.2948 72.4632 21.3788C72.6192 21.4568 72.7902 21.4958 72.9762 21.4958ZM76.811 21.9998L75.596 17.6258H76.352L77 20.1548C77.048 20.3648 77.093 20.5688 77.135 20.7668C77.177 20.9648 77.219 21.1658 77.261 21.3698H77.297C77.345 21.1658 77.393 20.9648 77.441 20.7668C77.489 20.5628 77.54 20.3588 77.594 20.1548L78.269 17.6258H78.989L79.673 20.1548C79.727 20.3648 79.778 20.5688 79.826 20.7668C79.88 20.9648 79.931 21.1658 79.979 21.3698H80.015C80.063 21.1658 80.108 20.9648 80.15 20.7668C80.192 20.5688 80.237 20.3648 80.285 20.1548L80.924 17.6258H81.626L80.456 21.9998H79.556L78.926 19.6508C78.872 19.4408 78.821 19.2338 78.773 19.0298C78.731 18.8258 78.683 18.6128 78.629 18.3908H78.593C78.545 18.6128 78.497 18.8288 78.449 19.0388C78.401 19.2428 78.347 19.4498 78.287 19.6598L77.675 21.9998H76.811ZM82.5779 21.9998V17.6258H83.1899L83.2529 18.2558H83.2799C83.4899 18.0458 83.7089 17.8718 83.9369 17.7338C84.1709 17.5898 84.4409 17.5178 84.7469 17.5178C85.2089 17.5178 85.5449 17.6618 85.7549 17.9498C85.9709 18.2378 86.0789 18.6638 86.0789 19.2278V21.9998H85.3409V19.3268C85.3409 18.9128 85.2749 18.6158 85.1429 18.4358C85.0109 18.2498 84.8009 18.1568 84.5129 18.1568C84.2849 18.1568 84.0839 18.2138 83.9099 18.3278C83.7359 18.4418 83.5379 18.6098 83.3159 18.8318V21.9998H82.5779ZM88.2828 22.1078C88.0008 22.1078 87.7998 22.0238 87.6798 21.8558C87.5598 21.6878 87.4998 21.4418 87.4998 21.1178V15.5918H88.2378V21.1718C88.2378 21.2918 88.2588 21.3758 88.3008 21.4238C88.3428 21.4718 88.3908 21.4958 88.4448 21.4958C88.4688 21.4958 88.4898 21.4958 88.5078 21.4958C88.5318 21.4958 88.5648 21.4898 88.6068 21.4778L88.7058 22.0358C88.6578 22.0598 88.6008 22.0778 88.5348 22.0898C88.4688 22.1018 88.3848 22.1078 88.2828 22.1078ZM91.4948 22.1078C91.2248 22.1078 90.9668 22.0568 90.7208 21.9548C90.4808 21.8528 90.2678 21.7058 90.0818 21.5138C89.8958 21.3158 89.7458 21.0758 89.6318 20.7938C89.5238 20.5058 89.4698 20.1818 89.4698 19.8218C89.4698 19.4558 89.5238 19.1318 89.6318 18.8498C89.7458 18.5618 89.8958 18.3188 90.0818 18.1208C90.2678 17.9228 90.4808 17.7728 90.7208 17.6708C90.9668 17.5688 91.2248 17.5178 91.4948 17.5178C91.7648 17.5178 92.0198 17.5688 92.2598 17.6708C92.5058 17.7728 92.7218 17.9228 92.9078 18.1208C93.0938 18.3188 93.2408 18.5618 93.3488 18.8498C93.4628 19.1318 93.5198 19.4558 93.5198 19.8218C93.5198 20.1818 93.4628 20.5058 93.3488 20.7938C93.2408 21.0758 93.0938 21.3158 92.9078 21.5138C92.7218 21.7058 92.5058 21.8528 92.2598 21.9548C92.0198 22.0568 91.7648 22.1078 91.4948 22.1078ZM91.4948 21.4958C91.6808 21.4958 91.8518 21.4568 92.0078 21.3788C92.1638 21.2948 92.2958 21.1808 92.4038 21.0368C92.5178 20.8868 92.6048 20.7098 92.6648 20.5058C92.7248 20.3018 92.7548 20.0738 92.7548 19.8218C92.7548 19.5698 92.7248 19.3418 92.6648 19.1378C92.6048 18.9278 92.5178 18.7478 92.4038 18.5978C92.2958 18.4478 92.1638 18.3338 92.0078 18.2558C91.8518 18.1718 91.6808 18.1298 91.4948 18.1298C91.3088 18.1298 91.1378 18.1718 90.9818 18.2558C90.8258 18.3338 90.6908 18.4478 90.5768 18.5978C90.4688 18.7478 90.3848 18.9278 90.3248 19.1378C90.2648 19.3418 90.2348 19.5698 90.2348 19.8218C90.2348 20.0738 90.2648 20.3018 90.3248 20.5058C90.3848 20.7098 90.4688 20.8868 90.5768 21.0368C90.6908 21.1808 90.8258 21.2948 90.9818 21.3788C91.1378 21.4568 91.3088 21.4958 91.4948 21.4958ZM95.5566 22.1078C95.1906 22.1078 94.8846 21.9998 94.6386 21.7838C94.3986 21.5678 94.2786 21.2618 94.2786 20.8658C94.2786 20.3858 94.4916 20.0198 94.9176 19.7678C95.3436 19.5098 96.0246 19.3298 96.9606 19.2278C96.9606 19.0898 96.9456 18.9548 96.9156 18.8228C96.8916 18.6908 96.8466 18.5738 96.7806 18.4718C96.7146 18.3698 96.6216 18.2888 96.5016 18.2288C96.3876 18.1628 96.2406 18.1298 96.0606 18.1298C95.8086 18.1298 95.5716 18.1778 95.3496 18.2738C95.1276 18.3698 94.9296 18.4778 94.7556 18.5978L94.4676 18.0848C94.6716 17.9528 94.9206 17.8268 95.2146 17.7068C95.5086 17.5808 95.8326 17.5178 96.1866 17.5178C96.7206 17.5178 97.1076 17.6828 97.3476 18.0128C97.5876 18.3368 97.7076 18.7718 97.7076 19.3178V21.9998H97.0956L97.0326 21.4778H97.0056C96.7956 21.6518 96.5706 21.8018 96.3306 21.9278C96.0906 22.0478 95.8326 22.1078 95.5566 22.1078ZM95.7726 21.5138C95.9826 21.5138 96.1806 21.4658 96.3666 21.3698C96.5526 21.2678 96.7506 21.1208 96.9606 20.9288V19.7138C96.5946 19.7618 96.2856 19.8188 96.0336 19.8848C95.7876 19.9508 95.5866 20.0288 95.4306 20.1188C95.2806 20.2088 95.1696 20.3138 95.0976 20.4338C95.0316 20.5478 94.9986 20.6738 94.9986 20.8118C94.9986 21.0638 95.0736 21.2438 95.2236 21.3518C95.3736 21.4598 95.5566 21.5138 95.7726 21.5138ZM100.578 22.1078C100.026 22.1078 99.5848 21.9098 99.2548 21.5138C98.9308 21.1178 98.7688 20.5538 98.7688 19.8218C98.7688 19.4678 98.8198 19.1498 98.9218 18.8678C99.0298 18.5798 99.1708 18.3368 99.3448 18.1388C99.5188 17.9408 99.7198 17.7878 99.9478 17.6798C100.176 17.5718 100.416 17.5178 100.668 17.5178C100.92 17.5178 101.139 17.5628 101.325 17.6528C101.511 17.7428 101.7 17.8658 101.892 18.0218L101.856 17.2748V15.5918H102.603V21.9998H101.991L101.928 21.4868H101.901C101.727 21.6548 101.526 21.8018 101.298 21.9278C101.076 22.0478 100.836 22.1078 100.578 22.1078ZM100.74 21.4868C100.944 21.4868 101.136 21.4388 101.316 21.3428C101.496 21.2408 101.676 21.0878 101.856 20.8838V18.5978C101.67 18.4298 101.49 18.3128 101.316 18.2468C101.148 18.1748 100.974 18.1388 100.794 18.1388C100.62 18.1388 100.455 18.1808 100.299 18.2648C100.149 18.3428 100.017 18.4568 99.9028 18.6068C99.7888 18.7508 99.6988 18.9248 99.6328 19.1288C99.5668 19.3328 99.5338 19.5608 99.5338 19.8128C99.5338 20.3408 99.6388 20.7518 99.8488 21.0458C100.059 21.3398 100.356 21.4868 100.74 21.4868ZM106.823 21.9998L105.248 17.6258H106.013L106.841 20.1098C106.907 20.3258 106.973 20.5418 107.039 20.7578C107.111 20.9738 107.18 21.1868 107.246 21.3968H107.282C107.348 21.1868 107.414 20.9738 107.48 20.7578C107.546 20.5418 107.612 20.3258 107.678 20.1098L108.506 17.6258H109.235L107.687 21.9998H106.823ZM110.079 21.9998V17.6258H110.817V21.9998H110.079ZM110.457 16.7258C110.313 16.7258 110.19 16.6808 110.088 16.5908C109.992 16.5008 109.944 16.3868 109.944 16.2488C109.944 16.1048 109.992 15.9908 110.088 15.9068C110.19 15.8168 110.313 15.7718 110.457 15.7718C110.601 15.7718 110.721 15.8168 110.817 15.9068C110.919 15.9908 110.97 16.1048 110.97 16.2488C110.97 16.3868 110.919 16.5008 110.817 16.5908C110.721 16.6808 110.601 16.7258 110.457 16.7258ZM113.302 22.1078C112.936 22.1078 112.63 21.9998 112.384 21.7838C112.144 21.5678 112.024 21.2618 112.024 20.8658C112.024 20.3858 112.237 20.0198 112.663 19.7678C113.089 19.5098 113.77 19.3298 114.706 19.2278C114.706 19.0898 114.691 18.9548 114.661 18.8228C114.637 18.6908 114.592 18.5738 114.526 18.4718C114.46 18.3698 114.367 18.2888 114.247 18.2288C114.133 18.1628 113.986 18.1298 113.806 18.1298C113.554 18.1298 113.317 18.1778 113.095 18.2738C112.873 18.3698 112.675 18.4778 112.501 18.5978L112.213 18.0848C112.417 17.9528 112.666 17.8268 112.96 17.7068C113.254 17.5808 113.578 17.5178 113.932 17.5178C114.466 17.5178 114.853 17.6828 115.093 18.0128C115.333 18.3368 115.453 18.7718 115.453 19.3178V21.9998H114.841L114.778 21.4778H114.751C114.541 21.6518 114.316 21.8018 114.076 21.9278C113.836 22.0478 113.578 22.1078 113.302 22.1078ZM113.518 21.5138C113.728 21.5138 113.926 21.4658 114.112 21.3698C114.298 21.2678 114.496 21.1208 114.706 20.9288V19.7138C114.34 19.7618 114.031 19.8188 113.779 19.8848C113.533 19.9508 113.332 20.0288 113.176 20.1188C113.026 20.2088 112.915 20.3138 112.843 20.4338C112.777 20.5478 112.744 20.6738 112.744 20.8118C112.744 21.0638 112.819 21.2438 112.969 21.3518C113.119 21.4598 113.302 21.5138 113.518 21.5138Z" fill="#232224"/>
<path id="Vector_4" d="M70.745 37.1557C70.1643 37.1557 69.6183 37.0647 69.107 36.8827C68.6043 36.692 68.1667 36.4147 67.794 36.0507C67.4213 35.6867 67.1267 35.236 66.91 34.6987C66.702 34.1527 66.598 33.5244 66.598 32.8137C66.598 32.1117 66.7063 31.4877 66.923 30.9417C67.1397 30.387 67.4343 29.919 67.807 29.5377C68.1883 29.1564 68.6303 28.866 69.133 28.6667C69.6357 28.4674 70.1687 28.3677 70.732 28.3677C71.3473 28.3677 71.876 28.4804 72.318 28.7057C72.76 28.931 73.1197 29.1867 73.397 29.4727L72.396 30.6947C72.1793 30.504 71.9497 30.3437 71.707 30.2137C71.4643 30.0837 71.161 30.0187 70.797 30.0187C70.4677 30.0187 70.1643 30.0837 69.887 30.2137C69.6183 30.335 69.3843 30.5127 69.185 30.7467C68.9857 30.9807 68.8297 31.2667 68.717 31.6047C68.613 31.9427 68.561 32.324 68.561 32.7487C68.561 33.624 68.756 34.3044 69.146 34.7897C69.5447 35.2664 70.1427 35.5047 70.94 35.5047C71.1133 35.5047 71.2823 35.483 71.447 35.4397C71.6117 35.3964 71.746 35.3314 71.85 35.2447V33.7887H70.446V32.2287H73.54V36.1287C73.2453 36.4147 72.8553 36.6574 72.37 36.8567C71.8847 37.056 71.343 37.1557 70.745 37.1557ZM77.904 37.1557C77.4967 37.1557 77.1024 37.082 76.721 36.9347C76.3397 36.7787 76.0017 36.5577 75.707 36.2717C75.421 35.9857 75.1914 35.6347 75.018 35.2187C74.8447 34.794 74.758 34.313 74.758 33.7757C74.758 33.2384 74.8447 32.7617 75.018 32.3457C75.1914 31.921 75.421 31.5657 75.707 31.2797C76.0017 30.9937 76.3397 30.777 76.721 30.6297C77.1024 30.4737 77.4967 30.3957 77.904 30.3957C78.3114 30.3957 78.7014 30.4737 79.074 30.6297C79.4554 30.777 79.789 30.9937 80.075 31.2797C80.3697 31.5657 80.6037 31.921 80.777 32.3457C80.9504 32.7617 81.037 33.2384 81.037 33.7757C81.037 34.313 80.9504 34.794 80.777 35.2187C80.6037 35.6347 80.3697 35.9857 80.075 36.2717C79.789 36.5577 79.4554 36.7787 79.074 36.9347C78.7014 37.082 78.3114 37.1557 77.904 37.1557ZM77.904 35.6087C78.294 35.6087 78.5887 35.444 78.788 35.1147C78.9874 34.7854 79.087 34.339 79.087 33.7757C79.087 33.2124 78.9874 32.766 78.788 32.4367C78.5887 32.1074 78.294 31.9427 77.904 31.9427C77.5054 31.9427 77.2064 32.1074 77.007 32.4367C76.8164 32.766 76.721 33.2124 76.721 33.7757C76.721 34.339 76.8164 34.7854 77.007 35.1147C77.2064 35.444 77.5054 35.6087 77.904 35.6087ZM85.115 37.1557C84.7076 37.1557 84.3133 37.082 83.932 36.9347C83.5506 36.7787 83.2126 36.5577 82.918 36.2717C82.632 35.9857 82.4023 35.6347 82.229 35.2187C82.0556 34.794 81.969 34.313 81.969 33.7757C81.969 33.2384 82.0556 32.7617 82.229 32.3457C82.4023 31.921 82.632 31.5657 82.918 31.2797C83.2126 30.9937 83.5506 30.777 83.932 30.6297C84.3133 30.4737 84.7076 30.3957 85.115 30.3957C85.5223 30.3957 85.9123 30.4737 86.285 30.6297C86.6663 30.777 87 30.9937 87.286 31.2797C87.5806 31.5657 87.8146 31.921 87.988 32.3457C88.1613 32.7617 88.248 33.2384 88.248 33.7757C88.248 34.313 88.1613 34.794 87.988 35.2187C87.8146 35.6347 87.5806 35.9857 87.286 36.2717C87 36.5577 86.6663 36.7787 86.285 36.9347C85.9123 37.082 85.5223 37.1557 85.115 37.1557ZM85.115 35.6087C85.505 35.6087 85.7996 35.444 85.999 35.1147C86.1983 34.7854 86.298 34.339 86.298 33.7757C86.298 33.2124 86.1983 32.766 85.999 32.4367C85.7996 32.1074 85.505 31.9427 85.115 31.9427C84.7163 31.9427 84.4173 32.1074 84.218 32.4367C84.0273 32.766 83.932 33.2124 83.932 33.7757C83.932 34.339 84.0273 34.7854 84.218 35.1147C84.4173 35.444 84.7163 35.6087 85.115 35.6087ZM91.8579 39.7427C91.4766 39.7427 91.1212 39.708 90.7919 39.6387C90.4712 39.578 90.1852 39.4827 89.9339 39.3527C89.6912 39.2227 89.5006 39.0537 89.3619 38.8457C89.2232 38.6377 89.1539 38.3907 89.1539 38.1047C89.1539 37.5847 89.4616 37.1514 90.0769 36.8047V36.7527C89.9036 36.64 89.7606 36.497 89.6479 36.3237C89.5352 36.1504 89.4789 35.9294 89.4789 35.6607C89.4789 35.4267 89.5482 35.2057 89.6869 34.9977C89.8256 34.781 89.9989 34.599 90.2069 34.4517V34.3997C89.9816 34.2437 89.7779 34.0227 89.5959 33.7367C89.4226 33.442 89.3359 33.104 89.3359 32.7227C89.3359 32.3327 89.4096 31.9947 89.5569 31.7087C89.7042 31.414 89.8992 31.1714 90.1419 30.9807C90.3932 30.7814 90.6792 30.634 90.9999 30.5387C91.3206 30.4434 91.6542 30.3957 92.0009 30.3957C92.3822 30.3957 92.7159 30.4477 93.0019 30.5517H95.3549V31.9427H94.3279C94.3886 32.038 94.4362 32.1594 94.4709 32.3067C94.5142 32.454 94.5359 32.6144 94.5359 32.7877C94.5359 33.1604 94.4709 33.4854 94.3409 33.7627C94.2109 34.0314 94.0289 34.2567 93.7949 34.4387C93.5696 34.612 93.3009 34.742 92.9889 34.8287C92.6856 34.9154 92.3562 34.9587 92.0009 34.9587C91.7496 34.9587 91.4896 34.9154 91.2209 34.8287C91.1342 34.898 91.0736 34.9674 91.0389 35.0367C91.0042 35.106 90.9869 35.197 90.9869 35.3097C90.9869 35.4744 91.0562 35.5957 91.1949 35.6737C91.3422 35.7517 91.5979 35.7907 91.9619 35.7907H93.0019C93.7992 35.7907 94.4059 35.9207 94.8219 36.1807C95.2466 36.432 95.4589 36.848 95.4589 37.4287C95.4589 37.7667 95.3722 38.0744 95.1989 38.3517C95.0342 38.6377 94.7959 38.8804 94.4839 39.0797C94.1719 39.2877 93.7949 39.448 93.3529 39.5607C92.9109 39.682 92.4126 39.7427 91.8579 39.7427ZM92.0009 33.8017C92.2522 33.8017 92.4602 33.715 92.6249 33.5417C92.7982 33.3597 92.8849 33.0867 92.8849 32.7227C92.8849 32.3847 92.7982 32.129 92.6249 31.9557C92.4602 31.7737 92.2522 31.6827 92.0009 31.6827C91.7496 31.6827 91.5372 31.7694 91.3639 31.9427C91.1992 32.116 91.1169 32.376 91.1169 32.7227C91.1169 33.0867 91.1992 33.3597 91.3639 33.5417C91.5372 33.715 91.7496 33.8017 92.0009 33.8017ZM92.1569 38.5467C92.5902 38.5467 92.9456 38.4687 93.2229 38.3127C93.5002 38.1654 93.6389 37.979 93.6389 37.7537C93.6389 37.5544 93.5522 37.42 93.3789 37.3507C93.2142 37.2814 92.9716 37.2467 92.6509 37.2467H91.9879C91.7626 37.2467 91.5806 37.238 91.4419 37.2207C91.3032 37.212 91.1819 37.1947 91.0779 37.1687C90.8439 37.3767 90.7269 37.589 90.7269 37.8057C90.7269 38.0484 90.8569 38.2304 91.1169 38.3517C91.3769 38.4817 91.7236 38.5467 92.1569 38.5467ZM98.2563 37.1557C97.9269 37.1557 97.6496 37.1037 97.4243 36.9997C97.1989 36.8957 97.0169 36.7527 96.8783 36.5707C96.7483 36.38 96.6529 36.1547 96.5923 35.8947C96.5316 35.626 96.5013 35.327 96.5013 34.9977V27.8867H98.4123V35.0757C98.4123 35.275 98.4469 35.4137 98.5163 35.4917C98.5943 35.5697 98.6723 35.6087 98.7503 35.6087C98.7936 35.6087 98.8283 35.6087 98.8543 35.6087C98.8889 35.6087 98.9323 35.6 98.9843 35.5827L99.2183 36.9997C99.1143 37.043 98.9799 37.0777 98.8153 37.1037C98.6593 37.1384 98.4729 37.1557 98.2563 37.1557ZM103.107 37.1557C102.648 37.1557 102.219 37.082 101.82 36.9347C101.421 36.7787 101.075 36.5577 100.78 36.2717C100.485 35.977 100.256 35.6217 100.091 35.2057C99.9263 34.7897 99.844 34.313 99.844 33.7757C99.844 33.2557 99.9306 32.7877 100.104 32.3717C100.277 31.947 100.503 31.5917 100.78 31.3057C101.066 31.011 101.391 30.7857 101.755 30.6297C102.119 30.4737 102.496 30.3957 102.886 30.3957C103.345 30.3957 103.744 30.4737 104.082 30.6297C104.429 30.7857 104.715 31.0024 104.94 31.2797C105.174 31.557 105.347 31.8864 105.46 32.2677C105.573 32.6404 105.629 33.0477 105.629 33.4897C105.629 33.663 105.62 33.8277 105.603 33.9837C105.586 34.1397 105.568 34.2567 105.551 34.3347H101.69C101.777 34.8027 101.967 35.1494 102.262 35.3747C102.565 35.5914 102.934 35.6997 103.367 35.6997C103.826 35.6997 104.29 35.5567 104.758 35.2707L105.395 36.4277C105.066 36.653 104.697 36.8307 104.29 36.9607C103.891 37.0907 103.497 37.1557 103.107 37.1557ZM101.677 33.0737H104.004C104.004 32.7097 103.922 32.415 103.757 32.1897C103.592 31.9644 103.315 31.8517 102.925 31.8517C102.622 31.8517 102.353 31.9514 102.119 32.1507C101.894 32.35 101.746 32.6577 101.677 33.0737ZM109.708 36.9997V28.5237H112.62C113.088 28.5237 113.526 28.5714 113.933 28.6667C114.34 28.7534 114.696 28.905 114.999 29.1217C115.302 29.3297 115.541 29.6114 115.714 29.9667C115.896 30.3134 115.987 30.7424 115.987 31.2537C115.987 31.7477 115.896 32.1767 115.714 32.5407C115.541 32.9047 115.302 33.2037 114.999 33.4377C114.696 33.6717 114.345 33.845 113.946 33.9577C113.547 34.0704 113.123 34.1267 112.672 34.1267H111.619V36.9997H109.708ZM111.619 32.6057H112.555C113.595 32.6057 114.115 32.155 114.115 31.2537C114.115 30.8117 113.976 30.4997 113.699 30.3177C113.422 30.1357 113.023 30.0447 112.503 30.0447H111.619V32.6057ZM119.051 37.1557C118.722 37.1557 118.445 37.1037 118.219 36.9997C117.994 36.8957 117.812 36.7527 117.673 36.5707C117.543 36.38 117.448 36.1547 117.387 35.8947C117.327 35.626 117.296 35.327 117.296 34.9977V27.8867H119.207V35.0757C119.207 35.275 119.242 35.4137 119.311 35.4917C119.389 35.5697 119.467 35.6087 119.545 35.6087C119.589 35.6087 119.623 35.6087 119.649 35.6087C119.684 35.6087 119.727 35.6 119.779 35.5827L120.013 36.9997C119.909 37.043 119.775 37.0777 119.61 37.1037C119.454 37.1384 119.268 37.1557 119.051 37.1557ZM122.641 37.1557C122.346 37.1557 122.078 37.1037 121.835 36.9997C121.601 36.9044 121.402 36.77 121.237 36.5967C121.072 36.4147 120.942 36.2067 120.847 35.9727C120.76 35.7387 120.717 35.483 120.717 35.2057C120.717 34.5297 121.003 34.001 121.575 33.6197C122.147 33.2384 123.07 32.9827 124.344 32.8527C124.327 32.5667 124.24 32.3414 124.084 32.1767C123.937 32.0034 123.685 31.9167 123.33 31.9167C123.053 31.9167 122.775 31.9687 122.498 32.0727C122.229 32.1767 121.939 32.3197 121.627 32.5017L120.938 31.2407C121.354 30.9894 121.787 30.7857 122.238 30.6297C122.697 30.4737 123.183 30.3957 123.694 30.3957C124.526 30.3957 125.159 30.634 125.592 31.1107C126.034 31.5787 126.255 32.311 126.255 33.3077V36.9997H124.695L124.565 36.3367H124.513C124.236 36.5794 123.945 36.7787 123.642 36.9347C123.339 37.082 123.005 37.1557 122.641 37.1557ZM123.291 35.6737C123.508 35.6737 123.694 35.626 123.85 35.5307C124.006 35.4354 124.171 35.301 124.344 35.1277V33.9967C123.668 34.092 123.2 34.2307 122.94 34.4127C122.68 34.5947 122.55 34.8114 122.55 35.0627C122.55 35.2707 122.615 35.4267 122.745 35.5307C122.884 35.626 123.066 35.6737 123.291 35.6737ZM128.586 39.5217C128.387 39.5217 128.218 39.5087 128.079 39.4827C127.941 39.4654 127.806 39.435 127.676 39.3917L128.014 37.9357C128.075 37.953 128.144 37.9704 128.222 37.9877C128.3 38.005 128.374 38.0137 128.443 38.0137C128.764 38.0137 129.011 37.9357 129.184 37.7797C129.358 37.6237 129.488 37.42 129.574 37.1687L129.665 36.8307L127.182 30.5517H129.106L130.029 33.3207C130.125 33.6154 130.211 33.9144 130.289 34.2177C130.367 34.521 130.45 34.833 130.536 35.1537H130.588C130.658 34.8504 130.727 34.547 130.796 34.2437C130.874 33.9317 130.952 33.624 131.03 33.3207L131.81 30.5517H133.643L131.407 37.0647C131.251 37.472 131.087 37.8274 130.913 38.1307C130.749 38.4427 130.554 38.6984 130.328 38.8977C130.112 39.1057 129.86 39.2617 129.574 39.3657C129.297 39.4697 128.968 39.5217 128.586 39.5217Z" fill="#232224"/>
</g>
<defs>
<linearGradient id="paint0_linear_145_504" x1="49.6631" y1="19.6311" x2="36.7729" y2="32.8604" gradientUnits="userSpaceOnUse">
<stop stop-color="#A950C4"/>
<stop offset="1" stop-color="#82269E"/>
</linearGradient>
<clipPath id="clip0_145_504">
<rect width="168" height="54" fill="white"/>
</clipPath>
</defs>
</svg>
