<svg width="73" height="72" viewBox="0 0 73 72" fill="none" xmlns="http://www.w3.org/2000/svg">
<g id="icon-transfer" clip-path="url(#clip0_264_553)">
<g id="icon-transfer_2">
<path id="Rectangle 1006" d="M55.4231 0H17.5769C8.14559 0 0.5 7.64559 0.5 17.0769V54.9231C0.5 64.3544 8.14559 72 17.5769 72H55.4231C64.8544 72 72.5 64.3544 72.5 54.9231V17.0769C72.5 7.64559 64.8544 0 55.4231 0Z" fill="#FEFBFF"/>
<g id="Group 484">
<path id="Vector" d="M52.503 24.4961V33.4969H43.5022" stroke="url(#paint0_linear_264_553)" stroke-width="3.00026" stroke-linecap="round" stroke-linejoin="round"/>
<path id="Vector_2" d="M19.5 48.4969V39.4961H28.5008" stroke="url(#paint1_linear_264_553)" stroke-width="3.00026" stroke-linecap="round" stroke-linejoin="round"/>
<path id="Vector_3" d="M23.2653 31.9972C24.0261 29.8472 25.3192 27.925 27.0239 26.4099C28.7285 24.8948 30.7892 23.8362 33.0136 23.3329C35.238 22.8296 37.5537 22.898 39.7446 23.5317C41.9354 24.1654 43.93 25.3437 45.5423 26.9568L52.5029 33.4974M19.5 39.4979L26.4606 46.0385C28.0729 47.6515 30.0675 48.8299 32.2583 49.4636C34.4492 50.0973 36.7649 50.1657 38.9893 49.6624C41.2137 49.1591 43.2744 48.1005 44.979 46.5854C46.6837 45.0703 47.9767 43.148 48.7376 40.998" stroke="url(#paint2_linear_264_553)" stroke-width="3.00026" stroke-linecap="round" stroke-linejoin="round"/>
</g>
</g>
</g>
<defs>
<linearGradient id="paint0_linear_264_553" x1="51.1079" y1="25.7112" x2="45.2123" y2="32.5068" gradientUnits="userSpaceOnUse">
<stop stop-color="#A950C4"/>
<stop offset="1" stop-color="#82269E"/>
</linearGradient>
<linearGradient id="paint1_linear_264_553" x1="27.1057" y1="40.7112" x2="21.2101" y2="47.5068" gradientUnits="userSpaceOnUse">
<stop stop-color="#A950C4"/>
<stop offset="1" stop-color="#82269E"/>
</linearGradient>
<linearGradient id="paint2_linear_264_553" x1="47.3874" y1="26.6444" x2="30.5284" y2="50.4021" gradientUnits="userSpaceOnUse">
<stop stop-color="#A950C4"/>
<stop offset="1" stop-color="#82269E"/>
</linearGradient>
<clipPath id="clip0_264_553">
<rect width="72" height="72" fill="white" transform="translate(0.5)"/>
</clipPath>
</defs>
</svg>
