<svg width="49" height="48" viewBox="0 0 49 48" fill="none" xmlns="http://www.w3.org/2000/svg">
<g id="icon-youtube">
<path id="Vector" d="M39.8301 16.5481C39.6573 15.8523 39.3055 15.2148 38.81 14.6999C38.3146 14.185 37.6931 13.8111 37.0084 13.6158C34.5068 13 24.5 13 24.5 13C24.5 13 14.4932 13 11.9916 13.6744C11.3069 13.8697 10.6854 14.2437 10.19 14.7585C9.69454 15.2734 9.34266 15.9109 9.16989 16.6068C8.71204 19.166 8.48808 21.7623 8.50083 24.3628C8.48451 26.9829 8.70848 29.5989 9.16989 32.1775C9.36036 32.8517 9.72012 33.465 10.2144 33.9581C10.7087 34.4512 11.3208 34.8075 11.9916 34.9925C14.4932 35.6669 24.5 35.6669 24.5 35.6669C24.5 35.6669 34.5068 35.6669 37.0084 34.9925C37.6931 34.7972 38.3146 34.4233 38.81 33.9084C39.3055 33.3935 39.6573 32.756 39.8301 32.0602C40.2844 29.5202 40.5084 26.9437 40.4992 24.3628C40.5155 21.7427 40.2915 19.1267 39.8301 16.5481Z" stroke="#96928D" stroke-width="2" stroke-linecap="round" stroke-linejoin="round"/>
<path id="Vector_2" d="M21.2273 29.1591L29.5905 24.3647L21.2273 19.5703V29.1591Z" stroke="#96928D" stroke-width="2" stroke-linecap="round" stroke-linejoin="round"/>
</g>
</svg>
