<svg width="73" height="72" viewBox="0 0 73 72" fill="none" xmlns="http://www.w3.org/2000/svg">
<g id="icon-config" clip-path="url(#clip0_264_90)">
<g id="icon-config_2">
<path id="Rectangle 1006" d="M55.4231 0H17.5769C8.14559 0 0.5 7.64559 0.5 17.0769V54.9231C0.5 64.3544 8.14559 72 17.5769 72H55.4231C64.8544 72 72.5 64.3544 72.5 54.9231V17.0769C72.5 7.64559 64.8544 0 55.4231 0Z" fill="#FBF8FC"/>
<g id="Group 446">
<path id="Vector" d="M36.4999 41.3639C38.9098 41.3639 40.8635 39.4103 40.8635 37.0003C40.8635 34.5903 38.9098 32.6367 36.4999 32.6367C34.0899 32.6367 32.1362 34.5903 32.1362 37.0003C32.1362 39.4103 34.0899 41.3639 36.4999 41.3639Z" stroke="url(#paint0_linear_264_90)" stroke-width="3" stroke-linecap="round" stroke-linejoin="round"/>
<path id="Vector_2" d="M47.2636 41.3636C47.07 41.8024 47.0123 42.289 47.0978 42.7609C47.1834 43.2327 47.4083 43.6681 47.7436 44.0109L47.8309 44.0982C48.1014 44.3684 48.316 44.6892 48.4624 45.0424C48.6088 45.3955 48.6841 45.7741 48.6841 46.1564C48.6841 46.5387 48.6088 46.9172 48.4624 47.2704C48.316 47.6235 48.1014 47.9444 47.8309 48.2145C47.5607 48.485 47.2399 48.6996 46.8867 48.846C46.5336 48.9924 46.155 49.0677 45.7727 49.0677C45.3904 49.0677 45.0119 48.9924 44.6587 48.846C44.3056 48.6996 43.9847 48.485 43.7145 48.2145L43.6273 48.1273C43.2845 47.7919 42.8491 47.567 42.3772 47.4814C41.9054 47.3959 41.4187 47.4537 40.98 47.6473C40.5498 47.8317 40.1829 48.1378 39.9244 48.5281C39.666 48.9183 39.5273 49.3756 39.5255 49.8436V50.0909C39.5255 50.8624 39.219 51.6024 38.6734 52.1479C38.1278 52.6935 37.3879 53 36.6164 53C35.8448 53 35.1049 52.6935 34.5593 52.1479C34.0138 51.6024 33.7073 50.8624 33.7073 50.0909V49.96C33.696 49.4786 33.5402 49.0116 33.26 48.6199C32.9799 48.2282 32.5883 47.9299 32.1364 47.7636C31.6976 47.57 31.211 47.5123 30.7391 47.5978C30.2673 47.6834 29.8319 47.9083 29.4891 48.2436L29.4018 48.3309C29.1316 48.6014 28.8108 48.816 28.4576 48.9624C28.1045 49.1088 27.7259 49.1841 27.3436 49.1841C26.9613 49.1841 26.5828 49.1088 26.2296 48.9624C25.8765 48.816 25.5556 48.6014 25.2855 48.3309C25.015 48.0607 24.8004 47.7399 24.654 47.3867C24.5076 47.0336 24.4323 46.655 24.4323 46.2727C24.4323 45.8904 24.5076 45.5119 24.654 45.1587C24.8004 44.8056 25.015 44.4847 25.2855 44.2145L25.3727 44.1273C25.7081 43.7845 25.933 43.3491 26.0186 42.8772C26.1041 42.4054 26.0463 41.9187 25.8527 41.48C25.6683 41.0498 25.3622 40.6829 24.9719 40.4244C24.5817 40.166 24.1244 40.0273 23.6564 40.0255H23.4091C22.6376 40.0255 21.8976 39.719 21.3521 39.1734C20.8065 38.6278 20.5 37.8879 20.5 37.1164C20.5 36.3448 20.8065 35.6049 21.3521 35.0593C21.8976 34.5138 22.6376 34.2073 23.4091 34.2073H23.54C24.0214 34.196 24.4884 34.0402 24.8801 33.76C25.2718 33.4799 25.5701 33.0883 25.7364 32.6364C25.93 32.1976 25.9877 31.711 25.9022 31.2391C25.8166 30.7673 25.5917 30.3319 25.2564 29.9891L25.1691 29.9018C24.8986 29.6316 24.684 29.3108 24.5376 28.9576C24.3912 28.6045 24.3159 28.2259 24.3159 27.8436C24.3159 27.4613 24.3912 27.0828 24.5376 26.7296C24.684 26.3765 24.8986 26.0556 25.1691 25.7855C25.4393 25.515 25.7601 25.3004 26.1133 25.154C26.4664 25.0076 26.845 24.9323 27.2273 24.9323C27.6096 24.9323 27.9881 25.0076 28.3413 25.154C28.6944 25.3004 29.0153 25.515 29.2855 25.7855L29.3727 25.8727C29.7155 26.2081 30.1509 26.433 30.6228 26.5186C31.0946 26.6041 31.5813 26.5463 32.02 26.3527H32.1364C32.5666 26.1683 32.9335 25.8622 33.1919 25.4719C33.4504 25.0817 33.589 24.6244 33.5909 24.1564V23.9091C33.5909 23.1376 33.8974 22.3976 34.443 21.8521C34.9885 21.3065 35.7285 21 36.5 21C37.2715 21 38.0115 21.3065 38.557 21.8521C39.1026 22.3976 39.4091 23.1376 39.4091 23.9091V24.04C39.411 24.5081 39.5496 24.9653 39.8081 25.3556C40.0665 25.7458 40.4334 26.052 40.8636 26.2364C41.3024 26.43 41.789 26.4877 42.2609 26.4022C42.7327 26.3166 43.1681 26.0917 43.5109 25.7564L43.5982 25.6691C43.8684 25.3986 44.1892 25.184 44.5424 25.0376C44.8955 24.8912 45.2741 24.8159 45.6564 24.8159C46.0387 24.8159 46.4172 24.8912 46.7704 25.0376C47.1235 25.184 47.4444 25.3986 47.7145 25.6691C47.985 25.9393 48.1996 26.2601 48.346 26.6133C48.4924 26.9664 48.5677 27.345 48.5677 27.7273C48.5677 28.1096 48.4924 28.4881 48.346 28.8413C48.1996 29.1944 47.985 29.5153 47.7145 29.7855L47.6273 29.8727C47.2919 30.2155 47.067 30.6509 46.9814 31.1228C46.8959 31.5946 46.9537 32.0813 47.1473 32.52V32.6364C47.3317 33.0666 47.6378 33.4335 48.0281 33.6919C48.4183 33.9504 48.8756 34.089 49.3436 34.0909H49.5909C50.3624 34.0909 51.1024 34.3974 51.6479 34.943C52.1935 35.4885 52.5 36.2285 52.5 37C52.5 37.7715 52.1935 38.5115 51.6479 39.057C51.1024 39.6026 50.3624 39.9091 49.5909 39.9091H49.46C48.9919 39.911 48.5347 40.0496 48.1444 40.3081C47.7542 40.5665 47.448 40.9334 47.2636 41.3636Z" stroke="url(#paint1_linear_264_90)" stroke-width="3" stroke-linecap="round" stroke-linejoin="round"/>
</g>
</g>
</g>
<defs>
<linearGradient id="paint0_linear_264_90" x1="39.5108" y1="33.8149" x2="33.7944" y2="40.4039" gradientUnits="userSpaceOnUse">
<stop stop-color="#A950C4"/>
<stop offset="1" stop-color="#82269E"/>
</linearGradient>
<linearGradient id="paint1_linear_264_90" x1="47.54" y1="25.32" x2="26.58" y2="49.48" gradientUnits="userSpaceOnUse">
<stop stop-color="#A950C4"/>
<stop offset="1" stop-color="#82269E"/>
</linearGradient>
<clipPath id="clip0_264_90">
<rect width="72" height="72" fill="white" transform="translate(0.5)"/>
</clipPath>
</defs>
</svg>
