<svg width="73" height="72" viewBox="0 0 73 72" fill="none" xmlns="http://www.w3.org/2000/svg">
<g id="icon-cash" clip-path="url(#clip0_264_96)">
<g id="icon-cash_2">
<path id="Rectangle 1006" d="M55.4231 0H17.5769C8.14559 0 0.5 7.64559 0.5 17.0769V54.9231C0.5 64.3544 8.14559 72 17.5769 72H55.4231C64.8544 72 72.5 64.3544 72.5 54.9231V17.0769C72.5 7.64559 64.8544 0 55.4231 0Z" fill="#FEFBFF"/>
<g id="Group 289">
<path id="Vector" d="M36.5 19V52" stroke="url(#paint0_linear_264_96)" stroke-width="3" stroke-linecap="round" stroke-linejoin="round"/>
<path id="Vector_2" d="M44 25H32.75C31.3576 25 30.0223 25.5531 29.0377 26.5377C28.0531 27.5223 27.5 28.8576 27.5 30.25C27.5 31.6424 28.0531 32.9777 29.0377 33.9623C30.0223 34.9469 31.3576 35.5 32.75 35.5H40.25C41.6424 35.5 42.9777 36.0531 43.9623 37.0377C44.9469 38.0223 45.5 39.3576 45.5 40.75C45.5 42.1424 44.9469 43.4777 43.9623 44.4623C42.9777 45.4469 41.6424 46 40.25 46H27.5" stroke="url(#paint1_linear_264_96)" stroke-width="3" stroke-linecap="round" stroke-linejoin="round"/>
</g>
</g>
</g>
<defs>
<linearGradient id="paint0_linear_264_96" x1="-nan" y1="-nan" x2="-nan" y2="-nan" gradientUnits="userSpaceOnUse">
<stop stop-color="#A950C4"/>
<stop offset="1" stop-color="#82269E"/>
</linearGradient>
<linearGradient id="paint1_linear_264_96" x1="42.71" y1="27.835" x2="28.8169" y2="41.5614" gradientUnits="userSpaceOnUse">
<stop stop-color="#A950C4"/>
<stop offset="1" stop-color="#82269E"/>
</linearGradient>
<clipPath id="clip0_264_96">
<rect width="72" height="72" fill="white" transform="translate(0.5)"/>
</clipPath>
</defs>
</svg>
