<svg width="73" height="72" viewBox="0 0 73 72" fill="none" xmlns="http://www.w3.org/2000/svg">
<g id="icon-mobile" clip-path="url(#clip0_264_567)">
<g id="icon-mobile_2">
<g id="Group 347">
<path id="Rectangle 1013" d="M55.4231 0H17.5769C8.14559 0 0.5 7.64559 0.5 17.0769V54.9231C0.5 64.3544 8.14559 72 17.5769 72H55.4231C64.8544 72 72.5 64.3544 72.5 54.9231V17.0769C72.5 7.64559 64.8544 0 55.4231 0Z" fill="#FBF8FC"/>
<g id="Group 345">
<path id="Vector" d="M44.1 21H28.6C26.8879 21 25.5 22.3879 25.5 24.1V48.9C25.5 50.6121 26.8879 52 28.6 52H44.1C45.8121 52 47.2 50.6121 47.2 48.9V24.1C47.2 22.3879 45.8121 21 44.1 21Z" stroke="url(#paint0_linear_264_567)" stroke-width="3" stroke-linecap="round" stroke-linejoin="round"/>
<path id="Vector_2" d="M36.3501 45.8008H36.3663" stroke="url(#paint1_linear_264_567)" stroke-width="3" stroke-linecap="round" stroke-linejoin="round"/>
</g>
</g>
</g>
</g>
<defs>
<linearGradient id="paint0_linear_264_567" x1="43.8365" y1="25.185" x2="23.7896" y2="41.3603" gradientUnits="userSpaceOnUse">
<stop stop-color="#A950C4"/>
<stop offset="1" stop-color="#82269E"/>
</linearGradient>
<linearGradient id="paint1_linear_264_567" x1="-nan" y1="-nan" x2="-nan" y2="-nan" gradientUnits="userSpaceOnUse">
<stop stop-color="#A950C4"/>
<stop offset="1" stop-color="#82269E"/>
</linearGradient>
<clipPath id="clip0_264_567">
<rect width="72" height="72" fill="white" transform="translate(0.5)"/>
</clipPath>
</defs>
</svg>
