<svg width="49" height="48" viewBox="0 0 49 48" fill="none" xmlns="http://www.w3.org/2000/svg">
<g id="icon-twitter">
<path id="Vector" d="M40.5 11.0146C39.1071 11.9971 37.5649 12.7486 35.9327 13.2401C35.0567 12.2328 33.8925 11.5189 32.5975 11.1949C31.3025 10.8709 29.9393 10.9524 28.6921 11.4284C27.445 11.9044 26.3741 12.7519 25.6243 13.8564C24.8746 14.9609 24.4821 16.2689 24.5 17.6037V19.0583C21.9438 19.1245 19.4109 18.5576 17.1269 17.408C14.8429 16.2584 12.8786 14.5617 11.4091 12.4692C11.4091 12.4692 5.59091 25.5601 18.6818 31.3783C15.6862 33.4117 12.1177 34.4312 8.5 34.2874C21.5909 41.5601 37.5909 34.2874 37.5909 17.5601C37.5896 17.1549 37.5506 16.7508 37.4745 16.3528C38.9591 14.8888 40.0067 13.0404 40.5 11.0146Z" stroke="#96928D" stroke-width="2" stroke-linecap="round" stroke-linejoin="round"/>
</g>
</svg>
