<svg width="49" height="48" viewBox="0 0 49 48" fill="none" xmlns="http://www.w3.org/2000/svg">
<g id="icon-instagram">
<path id="Vector" d="M32.5 8H16.5C12.0817 8 8.5 11.5817 8.5 16V32C8.5 36.4183 12.0817 40 16.5 40H32.5C36.9183 40 40.5 36.4183 40.5 32V16C40.5 11.5817 36.9183 8 32.5 8Z" stroke="#96928D" stroke-width="2" stroke-linecap="round" stroke-linejoin="round"/>
<path id="Vector_2" d="M30.9 22.9925C31.0974 24.3241 30.87 25.684 30.25 26.8789C29.63 28.0738 28.649 29.0428 27.4466 29.648C26.2441 30.2532 24.8815 30.4638 23.5524 30.25C22.2234 30.0361 20.9956 29.4086 20.0437 28.4568C19.0918 27.5049 18.4643 26.2771 18.2505 24.948C18.0366 23.619 18.2473 22.2563 18.8525 21.0539C19.4577 19.8515 20.4267 18.8705 21.6215 18.2505C22.8164 17.6305 24.1764 17.403 25.508 17.6005C26.8662 17.8019 28.1237 18.4348 29.0947 19.4058C30.0656 20.3767 30.6986 21.6342 30.9 22.9925Z" stroke="#96928D" stroke-width="2" stroke-linecap="round" stroke-linejoin="round"/>
<path id="Vector_3" d="M33.3 15.1992H33.3169" stroke="#96928D" stroke-width="2" stroke-linecap="round" stroke-linejoin="round"/>
</g>
</svg>
