<svg width="73" height="55" viewBox="0 0 73 55" fill="none" xmlns="http://www.w3.org/2000/svg">
<g id="logonu">
<path id="logonu-letter-u" d="M71.6686 38.9969V11.7357C71.6686 10.4084 70.9513 10 69.9264 10H64.1871C62.9572 10 62.4448 10.4084 62.4448 11.7357V49.922C62.4448 50.8409 60.6128 54.1791 55.4756 53.802C45.7393 53.0873 40 46.3433 40 40.937V11.7357C40 10.6126 40.5125 10 41.7423 10H47.3791C48.609 10 49.1214 10.6126 49.1214 11.7357V38.6907C49.1214 41.7455 52.1535 45.0211 55.4756 45.0211H65.725C69.0046 45.0211 71.6686 41.2432 71.6686 38.9969Z" stroke="url(#paint0_linear_1_588)" stroke-width="1.5"/>
<path id="logonu-letter-n" d="M1 15.8346V43.0958C1 44.4232 1.71739 44.8316 2.74226 44.8316H8.4816C9.7114 44.8316 10.2238 44.4232 10.2239 43.0958V4.9095C10.2239 3.9906 12.0558 0.652455 17.193 1.02957C26.9293 1.74428 32.6686 8.4882 32.6686 13.8946V43.0958C32.6686 44.219 32.1562 44.8316 30.9263 44.8316H25.2895C24.0597 44.8316 23.5473 44.219 23.5473 43.0958V16.1408C23.5473 13.086 20.5151 9.8105 17.193 9.8105H6.9436C3.664 9.8105 0.99999 13.5884 1 15.8346Z" stroke="url(#paint1_linear_1_588)" stroke-width="1.5"/>
</g>
<defs>
<linearGradient id="paint0_linear_1_588" x1="44.9086" y1="47.9143" x2="73.43" y2="24.1613" gradientUnits="userSpaceOnUse">
<stop stop-color="#A950C4"/>
<stop offset="1" stop-color="#82269E"/>
</linearGradient>
<linearGradient id="paint1_linear_1_588" x1="27.76" y1="6.9173" x2="-0.761343" y2="30.6702" gradientUnits="userSpaceOnUse">
<stop stop-color="#A950C4"/>
<stop offset="1" stop-color="#82269E"/>
</linearGradient>
</defs>
</svg>
