<svg  viewBox="0 0 88 70" fill="none" xmlns="http://www.w3.org/2000/svg">
<g id="logonu-white">
<g id="logonu-white_2">
<path id="logonu-letter-u" d="M79.1686 46.9969V19.7357C79.1686 18.4084 78.4513 18 77.4264 18H71.6871C70.4572 18 69.9448 18.4084 69.9448 19.7357V57.922C69.9448 58.8409 68.1128 62.1791 62.9756 61.802C53.2393 61.0873 47.5 54.3433 47.5 48.937V19.7357C47.5 18.6126 48.0125 18 49.2423 18H54.8791C56.109 18 56.6214 18.6126 56.6214 19.7357V46.6907C56.6214 49.7455 59.6535 53.0211 62.9756 53.0211H73.225C76.5046 53.0211 79.1686 49.2432 79.1686 46.9969Z" stroke="#EDEAEF" stroke-width="2.45216"/>
<path id="logonu-letter-n" d="M8.5 23.8346V51.0958C8.5 52.4232 9.21739 52.8316 10.2423 52.8316H15.9816C17.2114 52.8316 17.7238 52.4232 17.7239 51.0958V12.9095C17.7239 11.9906 19.5558 8.65246 24.693 9.02957C34.4293 9.74428 40.1686 16.4882 40.1686 21.8946V51.0958C40.1686 52.219 39.6562 52.8316 38.4263 52.8316H32.7895C31.5597 52.8316 31.0473 52.219 31.0473 51.0958V24.1408C31.0473 21.086 28.0151 17.8105 24.693 17.8105H14.4436C11.164 17.8105 8.49999 21.5884 8.5 23.8346Z" stroke="#EDEAEF" stroke-width="2.45216"/>
</g>
</g>
</svg>
