<svg width="723" height="458" viewBox="0 0 723 458" fill="none" xmlns="http://www.w3.org/2000/svg">
<g id="nubank" clip-path="url(#clip0_264_589)">
<g id="Clip path group">
<mask id="mask0_264_589" style="mask-type:luminance" maskUnits="userSpaceOnUse" x="0" y="0" width="723" height="458">
<g id="clip0_1_747">
<path id="Vector" d="M722.5 0H0.5V458H722.5V0Z" fill="white"/>
</g>
</mask>
<g mask="url(#mask0_264_589)">
<g id="Group">
<g id="Group_2" filter="url(#filter0_d_264_589)">
<path id="Vector_2" d="M697.5 0H25.5C11.6929 0 0.5 11.1929 0.5 25V433C0.5 446.807 11.6929 458 25.5 458H697.5C711.307 458 722.5 446.807 722.5 433V25C722.5 11.1929 711.307 0 697.5 0Z" fill="url(#paint0_linear_264_589)"/>
</g>
<path id="Vector_3" fill-rule="evenodd" clip-rule="evenodd" d="M95.8452 319.86C95.8452 319.873 95.8463 319.88 95.8463 319.88C95.8463 319.88 95.8496 319.872 95.854 319.857C95.8731 319.791 95.9331 319.585 96.1221 319.258C96.3687 318.831 96.7717 318.314 97.3653 317.827C98.5224 316.878 100.479 315.983 103.59 316.212C116.293 317.144 123.236 325.858 123.236 332.162V372.169C123.236 372.582 123.163 372.735 123.142 372.77C123.1 372.795 122.941 372.867 122.528 372.867H114.806C114.393 372.867 114.234 372.795 114.192 372.77C114.171 372.735 114.099 372.582 114.099 372.169V335.239C114.099 332.613 112.815 330.044 110.974 328.16C109.127 326.269 106.54 324.887 103.713 324.887H95.8452V319.86ZM103.713 328.246H95.8452V372.169C95.8451 373.222 95.656 374.406 94.7613 375.257C93.8862 376.089 92.7223 376.226 91.7784 376.226H83.9154C83.037 376.226 81.956 376.059 81.0915 375.306C80.1809 374.512 79.8486 373.371 79.8486 372.169V334.82C79.8486 332.737 81.0152 330.296 82.6528 328.431C84.3125 326.541 86.7707 324.887 89.6714 324.887H92.4856V319.852C92.4856 319.114 92.8018 318.289 93.213 317.578C93.6569 316.809 94.3212 315.979 95.2349 315.23C97.0921 313.706 99.9099 312.573 103.836 312.861C117.812 313.887 126.595 323.652 126.595 332.162V372.169C126.595 373.16 126.372 374.258 125.565 375.098C124.746 375.951 123.628 376.226 122.528 376.226H114.806C113.707 376.226 112.588 375.951 111.769 375.098C110.962 374.258 110.739 373.16 110.739 372.169V335.239C110.739 333.68 109.945 331.914 108.571 330.507C107.204 329.108 105.438 328.246 103.713 328.246ZM89.6714 328.246H92.4856V372.169C92.4856 372.507 92.4534 372.705 92.4249 372.809C92.3146 372.838 92.115 372.867 91.7784 372.867H83.9154C83.4884 372.867 83.334 372.792 83.3028 372.775C83.274 372.726 83.2082 372.564 83.2082 372.169V334.82C83.2082 333.825 83.8665 332.14 85.1771 330.648C86.4656 329.18 88.0788 328.246 89.6714 328.246ZM83.3161 372.792C83.3161 372.792 83.3116 372.789 83.3054 372.779C83.3134 372.787 83.3161 372.792 83.3161 372.792ZM163.931 381.122C163.931 381.109 163.93 381.102 163.93 381.102C163.93 381.102 163.927 381.109 163.922 381.125C163.903 381.19 163.843 381.396 163.654 381.724C163.408 382.15 163.005 382.667 162.411 383.154C161.254 384.103 159.298 384.998 156.186 384.77C143.484 383.837 136.541 375.124 136.541 368.82V328.813C136.541 328.4 136.614 328.247 136.635 328.212C136.676 328.187 136.835 328.115 137.248 328.115H144.971C145.384 328.115 145.543 328.187 145.584 328.212C145.605 328.247 145.678 328.4 145.678 328.813V365.742C145.678 368.368 146.961 370.938 148.802 372.822C150.65 374.713 153.237 376.095 156.063 376.095H163.931V381.122ZM136.625 328.219C136.625 328.219 136.628 328.217 136.63 328.215C136.625 328.218 136.623 328.22 136.623 328.22L136.625 328.219ZM145.596 328.22C145.596 328.22 145.593 328.219 145.589 328.215C145.594 328.218 145.596 328.22 145.596 328.22ZM156.063 372.735H163.931V328.813C163.931 327.76 164.121 326.576 165.015 325.725C165.89 324.893 167.054 324.755 167.998 324.755H175.861C176.739 324.755 177.821 324.922 178.685 325.676C179.596 326.47 179.928 327.61 179.928 328.813V366.162C179.928 368.244 178.761 370.686 177.124 372.551C175.464 374.441 173.006 376.095 170.105 376.095H167.291V381.129C167.291 381.868 166.975 382.692 166.564 383.404C166.12 384.173 165.455 385.003 164.542 385.752C162.684 387.275 159.867 388.409 155.94 388.12C141.964 387.094 133.181 377.329 133.181 368.82V328.813C133.181 327.822 133.404 326.724 134.211 325.884C135.03 325.03 136.149 324.755 137.248 324.755H144.971C146.07 324.755 147.189 325.03 148.008 325.884C148.814 326.724 149.037 327.822 149.037 328.813V365.742C149.037 367.301 149.831 369.068 151.205 370.474C152.573 371.874 154.338 372.735 156.063 372.735ZM170.105 372.735H167.291V328.813C167.291 328.474 167.323 328.277 167.352 328.173C167.462 328.144 167.661 328.115 167.998 328.115H175.861C176.288 328.115 176.443 328.189 176.474 328.207C176.503 328.256 176.568 328.417 176.568 328.813V366.162C176.568 367.157 175.91 368.841 174.599 370.334C173.311 371.801 171.698 372.735 170.105 372.735ZM176.463 328.191C176.461 328.19 176.46 328.189 176.46 328.189C176.46 328.189 176.463 328.195 176.471 328.203C176.467 328.197 176.465 328.193 176.463 328.191Z" fill="#FBF8FC"/>
<path id="Vector_4" d="M582.389 132.247C607.656 132.247 628.139 111.763 628.139 86.4966C628.139 61.2293 607.656 40.7461 582.389 40.7461C557.122 40.7461 536.638 61.2293 536.638 86.4966C536.638 111.763 557.122 132.247 582.389 132.247Z" fill="#E71924"/>
<path id="Vector_5" d="M638.147 132.247C663.414 132.247 683.898 111.763 683.898 86.4966C683.898 61.2293 663.414 40.7461 638.147 40.7461C612.88 40.7461 592.396 61.2293 592.396 86.4966C592.396 111.763 612.88 132.247 638.147 132.247Z" fill="#F99F19"/>
<path id="Vector_6" fill-rule="evenodd" clip-rule="evenodd" d="M610.268 122.594C621.136 114.229 628.14 101.091 628.14 86.3167C628.14 71.5422 621.136 58.4035 610.268 50.0391C599.4 58.4035 592.397 71.5422 592.397 86.3167C592.397 101.091 599.4 114.229 610.268 122.594Z" fill="#F26520"/>
<path id="Vector_7" d="M172.779 156.195H86.9971C83.6413 156.195 80.9209 158.915 80.9209 162.271V219.459C80.9209 222.815 83.6413 225.536 86.9971 225.536H172.779C176.135 225.536 178.856 222.815 178.856 219.459V162.271C178.856 158.915 176.135 156.195 172.779 156.195Z" fill="url(#paint1_linear_264_589)" stroke="#211F21" stroke-width="2.14455"/>
<path id="Vector_8" d="M81.2783 178.715H110.587" stroke="#211F21" stroke-width="2" stroke-linecap="round"/>
<path id="Vector_9" d="M81.2783 200.871H109.945" stroke="#211F21" stroke-width="2" stroke-linecap="round"/>
<path id="Vector_10" d="M149.904 200.871H178.498" stroke="#211F21" stroke-width="2" stroke-linecap="round"/>
<path id="Vector_11" d="M149.475 179.43H178.498" stroke="#211F21" stroke-width="2" stroke-linecap="round"/>
<path id="Vector_12" d="M129.888 168.704C131.072 168.704 132.033 167.743 132.033 166.559C132.033 165.375 131.072 164.414 129.888 164.414C128.704 164.414 127.743 165.375 127.743 166.559C127.743 167.743 128.704 168.704 129.888 168.704Z" fill="#211F21"/>
<path id="Vector_13" d="M231.553 205.826C236.825 192.592 237.426 185.121 231.553 171.647C230.93 170.217 231.553 169.026 232.268 168.788C232.983 168.549 234.089 168.788 234.77 170.217C241.688 184.732 241.267 192.872 235.127 207.389C234.412 208.819 233.075 209 232.268 208.462C231.324 207.833 231.108 206.943 231.553 205.826Z" fill="#FBF8FC"/>
<path id="Vector_14" d="M224.047 172.719C223.332 173.077 222.875 174.432 223.69 175.936C228.499 185.942 228.301 191.664 223.69 202.028C223.186 203.073 223.498 204.228 224.405 204.53C225.477 204.888 226.413 204.127 226.906 203.1C232.201 192.086 232.34 185.758 226.906 174.149C226.405 173.077 225.119 172.183 224.047 172.719Z" fill="#FBF8FC"/>
<path id="Vector_15" d="M216.899 177.363C215.826 177.72 215.636 178.907 216.184 180.222C219.03 187.062 219.479 190.897 216.184 197.736C215.541 198.928 215.33 200.192 216.541 200.595C217.752 200.999 218.626 200.362 219.043 199.523C223.266 191.148 222.32 186.453 219.043 178.078C218.763 177.363 217.971 177.005 216.899 177.363Z" fill="#FBF8FC"/>
<path id="Vector_16" d="M209.393 180.224C208.32 180.939 208.168 182.023 209.035 183.798C210.844 187.565 210.803 189.681 209.035 193.449C208.213 195.111 207.963 197.023 209.393 197.381C210.822 197.738 211.457 197.23 212.252 195.236C214.078 189.988 214.256 187.021 212.252 181.654C211.791 180.262 210.822 179.509 209.393 180.224Z" fill="#FBF8FC"/>
<path id="Vector_17" d="M145.615 170.849C142.872 161.508 137.751 156.91 129.53 156.91C119.523 156.91 116.694 164.53 110.587 178.355C114.498 187.507 114.539 192.437 110.587 200.873C116.994 219.254 121.74 224.915 129.888 224.821C140.611 224.821 143.663 215.733 149.546 200.873C146.452 192.497 146.122 187.875 149 179.5" stroke="#211F21" stroke-width="2" stroke-linecap="round"/>
</g>
</g>
</g>
<text id="Nasser Y S Ali" transform="matrix(1 0 -0.217291 0.976107 207.78 338)" fill="#FBF8FC" xml:space="preserve" style="white-space: pre" font-family="Sora" font-size="17.6072" font-weight="bold" letter-spacing="0em"><tspan x="0" y="16.9864">WARLISON M SILVA</tspan></text>
</g>
<defs>
<filter id="filter0_d_264_589" x="-2.5" y="-3" width="734" height="470" filterUnits="userSpaceOnUse" color-interpolation-filters="sRGB">
<feFlood flood-opacity="0" result="BackgroundImageFix"/>
<feColorMatrix in="SourceAlpha" type="matrix" values="0 0 0 0 0 0 0 0 0 0 0 0 0 0 0 0 0 0 127 0" result="hardAlpha"/>
<feOffset dx="3" dy="3"/>
<feGaussianBlur stdDeviation="3"/>
<feComposite in2="hardAlpha" operator="out"/>
<feColorMatrix type="matrix" values="0 0 0 0 1 0 0 0 0 1 0 0 0 0 1 0 0 0 0.25 0"/>
<feBlend mode="normal" in2="BackgroundImageFix" result="effect1_dropShadow_264_589"/>
<feBlend mode="normal" in="SourceGraphic" in2="effect1_dropShadow_264_589" result="shape"/>
</filter>
<linearGradient id="paint0_linear_264_589" x1="610.59" y1="61.83" x2="354.596" y2="526.995" gradientUnits="userSpaceOnUse">
<stop stop-color="#A950C4"/>
<stop offset="1" stop-color="#82269E"/>
</linearGradient>
<linearGradient id="paint1_linear_264_589" x1="171.5" y1="165" x2="87.5" y2="221" gradientUnits="userSpaceOnUse">
<stop stop-color="#F4F4F4"/>
<stop offset="1" stop-color="#D6D6D6"/>
</linearGradient>
<clipPath id="clip0_264_589">
<rect width="722" height="458" fill="white" transform="translate(0.5)"/>
</clipPath>
</defs>
</svg>
